<?xml version="1.0" encoding="UTF-8"?>
<svg id="Layer_2" data-name="Layer 2" xmlns="http://www.w3.org/2000/svg" viewBox="0 0 1911.9 1569.57">
  <defs>
    <style>
      .cls-1 {
        fill: #355389;
      }

      .cls-1, .cls-2, .cls-3, .cls-4, .cls-5, .cls-6, .cls-7, .cls-8, .cls-9, .cls-10, .cls-11, .cls-12, .cls-13, .cls-14 {
        stroke-width: 0px;
      }

      .cls-2 {
        fill: #b75742;
      }

      .cls-3 {
        fill: #96d9c9;
      }

      .cls-4 {
        fill: #50bfa5;
      }

      .cls-5 {
        fill: #fff;
      }

      .cls-6 {
        fill: #86b1f2;
      }

      .cls-7 {
        fill: #466eb6;
      }

      .cls-8 {
        fill: #f7cc7f;
      }

      .cls-9 {
        fill: #f48c7f;
      }

      .cls-10 {
        fill: #9bc1f9;
      }

      .cls-11 {
        fill: #f47458;
      }

      .cls-12 {
        fill: #fae0b2;
      }

      .cls-13 {
        fill: #3c8f7c;
      }

      .cls-14 {
        fill: #184655;
      }
    </style>
  </defs>
  <g id="Layer_1-2" data-name="Layer 1">
    <rect class="cls-5" width="1911.9" height="1569.57" rx="34.52" ry="34.52"/>
    <polygon class="cls-4" points="735.09 392.07 721.08 396.37 711.66 374.58 690.39 378.35 680.68 363.19 673.01 368.11 686 388.38 706.15 384.81 715.95 407.48 737.04 401 735.09 392.07"/>
    <polygon class="cls-4" points="1634 1175.78 1619.99 1180.08 1610.57 1158.29 1589.3 1162.06 1579.59 1146.9 1571.92 1151.82 1584.91 1172.08 1605.06 1168.52 1614.86 1191.19 1635.95 1184.71 1634 1175.78"/>
    <path class="cls-4" d="M648.72,1433.75s-74.8-253.52-80.8-309.45c-6-55.92,35.82-38.59,35.82-38.59,0,0-35.19-106.56-9.74-131.85,25.44-25.29,48.39,21.85,48.39,21.85,0,0,7.7-129.36,34.83-129.41,50.53-.09,49.53,141.08,49.53,141.08,0,0,12.9-55.27,39.95-40.12,40.8,22.85-17.71,133.61-17.71,133.61,0,0,51.99.04,70.25,26.25,32.77,47.03-170.53,326.63-170.53,326.63Z"/>
    <g>
      <path class="cls-4" d="M673.18,1400.2s-215.63-36.06-262.53-74.27c-46.9-38.21-.48-55.44-.48-55.44,0,0-108.32-55.53-107.07-93.29,1.25-37.76,55.07-18.56,55.07-18.56,0,0-91.27-104.08-69.66-123.84,40.25-36.82,145.76,71.37,145.76,71.37,0,0-31.33-51.45,1.67-59.59,49.76-12.28,86.49,114.59,86.49,114.59,0,0-9.33-50.1,24.98-43.43,61.56,11.97,125.78,282.45,125.78,282.45Z"/>
      <path class="cls-13" d="M547.4,1117.75c-34.4-6.22-24.98,43.43-24.98,43.43,0,0-36.73-126.87-86.49-114.59-33,8.14-1.67,59.59-1.67,59.59,0,0-105.52-108.19-145.76-71.37l383.95,365.46c-6.83-34.91-67.38-272.09-125.05-282.51Z"/>
    </g>
    <g>
      <path class="cls-1" d="M734.52,1429.94s-113.56-115.48-170.74-127.51c-57.19-12.03-46.9,28.66-46.9,28.66,0,0-113.46-99.22-139.75-75.18-26.29,24.04,2.15,47.25,2.15,47.25,0,0-94.51-16.75-108.04,14.27-20.79,47.66,134.64,73.59,134.64,73.59,0,0-65.13,4.51-50.03,34.39,22.78,45.06,378.67,4.52,378.67,4.52Z"/>
      <path class="cls-7" d="M271.24,1317.43c13.53-31.01,108.04-14.27,108.04-14.27,0,0-28.44-23.21-2.15-47.25,26.29-24.04,136.23,61.69,136.23,61.69,0,0-25.92-49.54,31.27-37.52,57.19,12.03,189.91,149.86,189.91,149.86l-463.29-112.51Z"/>
    </g>
    <g>
      <path class="cls-8" d="M915.31,238.91c-38.22,6.29-49.58,56.46-17.8,78.9,5.71,4.03,9.66,10.09,11.34,16.87l5.79,23.34c1.59,6.43,7.86,10.56,14.4,9.48l14.48-2.38c6.54-1.08,11.15-6.99,10.6-13.6-2.01-24.09-4.49-32.83,3.34-43.58,22.91-31.43-3.91-75.33-42.14-69.03Z"/>
      <path class="cls-12" d="M919.21,340.9c-2.49-20.64-5.98-42.43-7.17-48.61-21.91,1.21-13.58-21.89-3.47-12.5,2.88,2.68,4.24,6.31,5.14,10.28,7.28-.66,14.39-2.73,20.87-6.08-.35-5.09-.85-8.95.57-12.21,2.15-4.92,8.38-6.26,10.92-1.47.95,1.8,1.12,4.1.43,6.01-1.47,4.07-5.89,6.76-9.75,8.87,1.15,16.41,2.75,32.95,4.76,49.23l-2.07.26c-1.98-16.02-3.56-32.29-4.71-48.44-6.44,3.2-13.44,5.2-20.61,5.88,1.5,7.9,4.81,29.14,7.15,48.52l-2.07.25ZM901.64,287.42c1.95,2.1,5.21,3.02,9.97,2.8-.82-3.51-2.04-6.66-4.45-8.9-5.44-5.06-8.78,2.58-5.51,6.1ZM937.07,272.62c-1.2,2.74-.74,6.25-.47,10.28,3.13-1.78,6.77-4.01,7.94-7.27.83-2.29-.1-5.52-2.43-6.12-.25-.06-4.21,1.2-5.04,3.12Z"/>
      <path class="cls-3" d="M908.68,334.1c.05.19.12.38.17.58l5.79,23.34c1.59,6.43,7.86,10.56,14.4,9.48l14.48-2.38c6.54-1.08,11.15-6.99,10.6-13.6-.89-10.72-1.88-18.39-2.01-24.56l-43.42,7.14Z"/>
      <path class="cls-12" d="M886.98,221.48l-11.43-20.86c-1.11-2.02-.37-4.55,1.65-5.66,2.02-1.11,4.55-.37,5.66,1.65l11.43,20.86c1.11,2.02.37,4.55-1.65,5.66-2.03,1.11-4.56.36-5.66-1.65Z"/>
      <path class="cls-12" d="M861.99,271.95l-24.91-2.18c-2.29-.2-3.99-2.22-3.79-4.52.2-2.29,2.22-3.99,4.52-3.79l24.91,2.18c2.29.2,3.99,2.22,3.79,4.52-.2,2.29-2.22,3.99-4.52,3.79Z"/>
      <path class="cls-12" d="M837.29,348.33c-1.62-1.64-1.6-4.28.04-5.9,6.12-6.05,12.86-11.55,20.02-16.33,1.91-1.28,4.5-.76,5.78,1.15,1.28,1.91.76,4.5-1.15,5.78-6.72,4.49-13.04,9.65-18.79,15.33-1.63,1.61-4.27,1.61-5.9-.04Z"/>
      <path class="cls-12" d="M948.54,220.35c-2.23-.59-3.55-2.88-2.95-5.1,2.82-10.56,4.55-21.45,5.14-32.37.12-2.3,2.09-4.07,4.39-3.94,2.3.12,4.06,2.09,3.94,4.39-.62,11.49-2.44,22.96-5.41,34.08-.6,2.24-2.9,3.54-5.1,2.95Z"/>
      <path class="cls-12" d="M974.2,252.38c-.66-2.21.58-4.53,2.79-5.2l25.9-7.81c2.21-.66,4.53.58,5.2,2.79.66,2.2-.58,4.53-2.79,5.19l-25.9,7.81c-2.2.66-4.53-.58-5.19-2.79Z"/>
      <path class="cls-12" d="M1016.74,321.3c-.37,0-.75-.05-1.13-.16-8.97-2.52-17.7-6.02-25.94-10.4-2.03-1.08-2.8-3.6-1.72-5.64,1.08-2.03,3.61-2.81,5.64-1.73,7.71,4.1,15.88,7.37,24.28,9.73,2.22.62,3.51,2.92,2.88,5.14-.52,1.84-2.19,3.04-4.01,3.04Z"/>
    </g>
    <path class="cls-8" d="M1396.13,505.6l-13.07-30.9-32.87-6.75c-3.74-.77-4.98-5.5-2.09-8l25.35-21.98-3.73-33.34c-.43-3.8,3.69-6.43,6.96-4.46l28.73,17.32,30.56-13.85c3.48-1.58,7.26,1.52,6.4,5.24l-7.59,32.68,22.62,24.78c2.58,2.82.8,7.37-3.01,7.7l-33.43,2.88-16.58,29.17c-1.89,3.32-6.77,3.04-8.26-.48Z"/>
    <polygon class="cls-9" points="1604.16 399.57 1598.79 421.2 1563.03 416.4 1551.27 447.06 1523.92 447.85 1524.32 461.69 1560.9 460.64 1572.04 431.59 1609.24 436.58 1617.33 404.02 1604.16 399.57"/>
    <path class="cls-2" d="M1285.54,1436.59h-628.65c-24.01,0-43.48-20.19-43.48-45.09v-26.81c0-24.91,19.47-45.09,43.48-45.09h628.65c-28.76,32.6-29.25,82.43-1.16,115.64l1.16,1.36Z"/>
    <path class="cls-12" d="M1275.83,1333h-348.68c-24.01,0-43.48,20.19-43.48,45.1h0c0,24.9,19.46,45.09,43.48,45.09h348.71c-16.29-27.66-16.26-62.6-.03-90.19Z"/>
    <path class="cls-6" d="M1064.68,1238.33c.91-1.71-.48-3.7-2.59-3.7h-332.64c-26.07,0-47.21,19.02-47.21,42.49h0c0,23.46,21.14,42.49,47.21,42.49h332.73c2.12,0,3.52-2,2.59-3.72h0c-13.17-24.56-13.14-53.11-.1-77.56Z"/>
    <path class="cls-8" d="M1062.58,1242.54h-164.86c-30.6,0-55.41,15.94-55.41,35.6s24.81,35.6,55.41,35.6h165.94c-11.34-22.66-11.66-48.45-1.08-71.21Z"/>
    <g>
      <path class="cls-2" d="M1020.01,1259.42h-21.47c-4.62,0-8.36,1.55-8.36,3.46v.31h29.83v-3.77Z"/>
      <path class="cls-11" d="M1038.32,1268.1c0-4.8-5.61-8.68-12.52-8.68h-27.55c5.25,0,9.5,2.95,9.5,6.59l-.13,93.09,15.22-11.97,15.52,11.97-.03-90.99Z"/>
    </g>
    <g>
      <path class="cls-12" d="M1003.52,1231.57h-193.55c-17.16,0-31.08-16.51-31.08-36.88h0c0-20.37,13.91-36.88,31.08-36.88h193.55c-14.79,20.45-15.37,50.44-1.38,71.67l1.38,2.1Z"/>
      <path class="cls-7" d="M778.92,1194.68h0c0-20.37,14.24-36.88,31.81-36.88h196.48c.92,0,1.66-.87,1.65-1.93h0c0-1.05-.74-1.89-1.65-1.89h-311.7c-19.39,0-35.11,18.22-35.11,40.71h0c0,22.48,15.72,40.71,35.11,40.71h311.69c.9,0,1.64-.85,1.65-1.89h0c0-1.06-.73-1.93-1.65-1.93h-196.48c-17.57,0-31.81-16.51-31.81-36.88Z"/>
      <g>
        <path class="cls-14" d="M969.73,1175.92h-21.47c-4.62,0-8.36,1.52-8.36,3.4v.3h29.83v-3.7Z"/>
        <path class="cls-13" d="M988.04,1184.44c0-4.7-5.61-8.52-12.52-8.52h-27.55c5.25,0,9.5,2.89,9.5,6.46l-.13,91.29,15.22-11.74,15.52,11.74-.03-89.23Z"/>
      </g>
    </g>
    <g>
      <path class="cls-8" d="M553.97,668.8l-190.86-35.54c-3.83-.71-6.36-4.4-5.65-8.23l23.91-128.39c.71-3.83,4.4-6.36,8.23-5.65l190.86,35.54c3.83.71,6.36,4.4,5.65,8.23l-23.91,128.39c-.71,3.83-4.4,6.36-8.23,5.65Z"/>
      <path class="cls-8" d="M463.12,522.02l-58.1-10.82c-3.83-.71-6.36-4.4-5.65-8.23l3.64-19.54c.71-3.83,4.4-6.36,8.23-5.65l58.1,10.82c3.83.71,6.36,4.4,5.65,8.23l-3.64,19.54c-.71,3.83-4.4,6.36-8.23,5.65Z"/>
      <path class="cls-12" d="M562.67,663.89c-.99,3.51-4.5,5.69-8.09,5.02l-192.1-35.77c-3.57-.67-6.06-3.93-5.74-7.56l10.05-115.09c.17-1.98,1.18-3.8,2.76-5.01,1.59-1.2,3.61-1.68,5.56-1.32l213.41,39.74c1.95.36,3.66,1.53,4.71,3.22,1.05,1.69,1.34,3.73.8,5.64l-31.36,111.12Z"/>
    </g>
    <polygon class="cls-4" points="1438.06 243.35 1405.38 252.28 1398.34 212.67 1409.04 210.77 1413.99 238.67 1435.2 232.87 1438.06 243.35"/>
    <g>
      <path class="cls-1" d="M396.84,787.28c8.18-.67,20.75,2.94,26.38,6.76.85.79,7.33,3.37,14.06,14.53l-1.52,1.05c-7.11-7.44-11.89-9.11-17.58-10.81-9.38-2.41-18.84-.61-19.62-.19l-1.73-11.33Z"/>
      <path class="cls-11" d="M436.52,809.09s-49.87,8.32-45.22,47.28c4.65,38.96,57.26,69.26,104.21,45.17,63.16-32.41,38.22-114.82-6.74-121.19-44.96-6.37-52.25,28.74-52.25,28.74Z"/>
      <path class="cls-9" d="M457.68,791.94s13.01-13.36,41.52-1.2c28.51,12.15,30.57,68.82,5.14,65.53-25.42-3.29-66.99-56.14-46.66-64.32Z"/>
    </g>
    <g>
      <path class="cls-6" d="M800.74,274.39l-205.1,73.16c-6.61,2.36-13.88-1.09-16.24-7.7l-37.86-106.13c-2.36-6.61,1.09-13.88,7.7-16.24l205.1-73.16c6.61-2.36,13.88,1.09,16.24,7.7l37.86,106.12c2.36,6.61-1.09,13.88-7.7,16.24Z"/>
      <path class="cls-5" d="M664.79,247.11c7.54,21.14-3.48,44.4-24.63,51.94-21.14,7.54-44.4-3.48-51.94-24.63-7.54-21.14,3.48-44.4,24.63-51.94,21.14-7.54,44.4,3.48,51.94,24.63Z"/>
      <path class="cls-6" d="M632.34,241.42c2.22,6.23-1.03,13.09-7.26,15.32-6.23,2.22-13.09-1.03-15.32-7.26s1.03-13.09,7.26-15.32c6.23-2.22,13.09,1.03,15.32,7.26Z"/>
      <path class="cls-6" d="M625.77,263.32h9.9c7.84,0,14.2,6.36,14.2,14.2v4.3h-38.3v-4.3c0-7.84,6.36-14.2,14.2-14.2Z" transform="translate(-54.91 227.75) rotate(-19.63)"/>
      <path class="cls-5" d="M669.85,224.93c-2.19,0-4.15-1.38-4.88-3.44-.96-2.69.45-5.66,3.14-6.62l89.66-31.98c.56-.2,1.15-.3,1.74-.3,2.19,0,4.15,1.38,4.88,3.44.96,2.69-.45,5.66-3.14,6.62l-89.66,31.98c-.56.2-1.15.3-1.74.3Z"/>
      <path class="cls-5" d="M694.05,247.28c-2.19,0-4.15-1.38-4.88-3.44-.96-2.69.45-5.66,3.14-6.62l70.03-24.98c.56-.2,1.15-.3,1.74-.3,2.19,0,4.15,1.38,4.88,3.44.46,1.3.39,2.71-.2,3.96-.59,1.25-1.64,2.2-2.94,2.66l-70.03,24.98c-.56.2-1.15.3-1.74.3Z"/>
    </g>
    <path class="cls-11" d="M1119.42,1074.87h-495.24c-15.38,0-27.85,12.47-27.85,27.85v23.42c0,15.38,12.47,27.85,27.85,27.85h495.24l-.26-.27c-21.19-22.05-21.07-56.93.26-78.84Z"/>
    <path class="cls-12" d="M1110.65,1086.58h-264.75c-15.38,0-27.85,12.47-27.85,27.85h0c0,15.38,12.47,27.85,27.85,27.85h264.74c-9.73-17.24-9.72-38.46,0-55.69Z"/>
    <g>
      <g>
        <path class="cls-12" d="M1524.74,1077.15l-37.54-94.18c-1.89-4.74.42-10.11,5.16-12l135.09-53.84c4.74-1.89,10.11.42,12,5.16l37.54,94.18c1.89,4.74-.42,10.11-5.16,12l-135.08,53.84c-4.74,1.89-10.11-.42-12-5.16Z"/>
        <path class="cls-7" d="M1652.17,1022.69l-33.73-84.63c-.54-1.36.12-2.9,1.48-3.44h0c1.36-.54,2.9.12,3.44,1.48l33.73,84.63c.54,1.36-.12,2.9-1.48,3.44h0c-1.36.54-2.9-.12-3.44-1.48Z"/>
        <path class="cls-7" d="M1636.1,1011.54l-27.7-69.49c-.54-1.36.12-2.9,1.48-3.44h0c1.36-.54,2.9.12,3.44,1.48l27.7,69.49c.54,1.36-.12,2.9-1.48,3.44h0c-1.36.54-2.9-.12-3.44-1.48Z"/>
        <path class="cls-7" d="M1632.1,1030.69l-33.73-84.63c-.54-1.36.12-2.9,1.48-3.44h0c1.36-.54,2.9.12,3.44,1.48l33.73,84.63c.54,1.36-.12,2.9-1.48,3.44h0c-1.36.54-2.9-.12-3.44-1.48Z"/>
        <path class="cls-7" d="M1614.37,1015.38l-26.04-65.32c-.54-1.36.12-2.9,1.48-3.44h0c1.36-.54,2.9.12,3.44,1.48l26.04,65.32c.54,1.36-.12,2.9-1.48,3.44h0c-1.36.54-2.9-.12-3.44-1.48Z"/>
        <g>
          <path class="cls-1" d="M1651.26,929.03l-.68-1.7c-.25-.63-.93-.95-1.52-.71l-12.82,5.11c-.59.23-.87.93-.62,1.56l.68,1.7c.25.63.93.95,1.52.71l12.82-5.11c.59-.23.87-.93.62-1.56Z"/>
          <path class="cls-1" d="M1654.17,936.32l-.68-1.7c-.25-.63-.93-.95-1.52-.71l-12.82,5.11c-.59.23-.87.93-.62,1.56l.68,1.7c.25.63.93.95,1.52.71l12.82-5.11c.59-.24.86-.93.62-1.56Z"/>
          <path class="cls-1" d="M1657.07,943.61l-.68-1.7c-.25-.63-.93-.95-1.52-.71l-12.82,5.11c-.59.23-.87.93-.62,1.56l.68,1.7c.25.63.93.95,1.52.71l12.82-5.11c.59-.23.87-.93.62-1.56Z"/>
          <path class="cls-1" d="M1659.98,950.9l-.68-1.7c-.25-.63-.93-.95-1.52-.71l-12.82,5.11c-.59.24-.87.93-.62,1.56l.68,1.7c.25.63.93.95,1.52.71l12.82-5.11c.59-.24.87-.93.62-1.56Z"/>
          <path class="cls-1" d="M1662.89,958.19l-.68-1.7c-.25-.63-.93-.95-1.52-.71l-12.82,5.11c-.59.24-.87.94-.62,1.56l.68,1.7c.25.63.93.95,1.52.71l12.82-5.11c.59-.24.87-.93.62-1.56Z"/>
          <path class="cls-1" d="M1665.79,965.48l-.68-1.7c-.25-.63-.93-.95-1.52-.71l-12.82,5.11c-.59.24-.87.93-.62,1.56l.68,1.7c.25.63.93.95,1.52.71l12.82-5.11c.59-.24.87-.93.62-1.56Z"/>
          <path class="cls-1" d="M1668.7,972.77l-.68-1.7c-.25-.63-.93-.95-1.52-.71l-12.82,5.11c-.59.24-.87.93-.62,1.56l.68,1.7c.25.63.93.95,1.52.71l12.82-5.11c.59-.24.87-.93.62-1.56Z"/>
          <path class="cls-1" d="M1671.6,980.06l-.68-1.7c-.25-.63-.93-.95-1.52-.71l-12.82,5.11c-.59.24-.87.93-.62,1.56l.68,1.7c.25.63.93.95,1.52.71l12.82-5.11c.59-.24.87-.93.62-1.56Z"/>
          <path class="cls-1" d="M1674.51,987.35l-.68-1.7c-.25-.63-.93-.95-1.52-.71l-12.82,5.11c-.59.24-.87.93-.62,1.56l.68,1.7c.25.63.93.95,1.52.71l12.82-5.11c.59-.24.87-.93.62-1.56Z"/>
          <path class="cls-1" d="M1677.41,994.64l-.68-1.7c-.25-.63-.93-.95-1.52-.71l-12.82,5.11c-.59.24-.87.93-.62,1.56l.68,1.7c.25.63.93.95,1.52.71l12.82-5.11c.59-.24.87-.94.62-1.56Z"/>
          <path class="cls-1" d="M1680.32,1001.93l-.68-1.71c-.25-.63-.93-.95-1.52-.71l-12.82,5.11c-.59.24-.87.93-.62,1.56l.68,1.7c.25.63.93.95,1.52.71l12.82-5.11c.59-.24.87-.93.62-1.56Z"/>
          <path class="cls-1" d="M1683.22,1009.22l-.68-1.7c-.25-.63-.93-.95-1.52-.71l-12.82,5.11c-.59.23-.87.93-.62,1.56l.68,1.7c.25.63.93.95,1.52.71l12.82-5.11c.59-.24.87-.93.62-1.56Z"/>
        </g>
      </g>
      <g>
        <path class="cls-2" d="M1718.64,1001.72l-53.61,76.34c-.12.17-.21.36-.28.56l-5.46,16.77c-.64,1.95,1.62,3.56,3.26,2.33l14.35-10.82c.18-.13.33-.29.46-.47l53.75-76.54c.69-.98.42-2.33-.59-2.98l-9.02-5.76c-.95-.61-2.2-.36-2.85.56Z"/>
        <path class="cls-8" d="M1677.3,1086.51l-.13.19-13.85,10.44-3.78-2.53,5.18-15.9c4.06,2.22,8.92,4.5,12.57,7.8Z"/>
      </g>
    </g>
    <g>
      <path class="cls-7" d="M1175.5,175.25c7.72,6.16,21.14,25.98,38.27,39.89,10.02,8.14,17.74,6.07,30.53,7.61,60.68,7.33,44.24,19.74,51.52,20.96-2.07,4.76-20.97,44.94-24.5,53.07-3.26,7.49-8.89,10.85-17.05,9.72-12.55-1.73-25.21-3.03-37.57-5.7-31.67-6.87-49.29-22.71-71.99-41.95-6.02-5.1-7.5-11.47-4.38-18.68,14.53-33.57,33.61-61.83,35.18-64.92Z"/>
      <path class="cls-6" d="M1302.39,292.06c-.27,13.22.74,15.88-4.94,13.87-3.42-1.21-6.73-2.78-9.96-4.45-2.28-1.18-2.37-2.73-.52-4.59,2.69-2.71,5.46-5.34,8.16-7.97-1.97-5.19.29-11.22,5.14-14.06.99-.58.27.65,8.72-18.8-27.95-3.45-47.66-5.76-81.76-9.95-9.12-1.12-17.22-4.66-24.27-10.56-24.35-20.38-48.7-40.75-73.04-61.15-3.3-2.77-3.72-6.82-1.1-9.94,2-2.39,4.66-2.5,7.52-2.14,7.78.98,84.07,10.45,91.82,11.36,10.18,1.19,19.14,5.02,27.01,11.61,23.92,20.03,47.91,40,71.86,59.99,3.29,2.74,4.18,5.26,3.02,8.31-1.27,3.35-4.04,4.95-8.23,4.05-3.02-.65-4.36.26-5.4,3.06-4.7,12.65-7.98,15.45-6.84,20.07.88,3.56-3.36,9.74-7.19,11.28Z"/>
    </g>
    <g>
      <path class="cls-7" d="M1428.95,1190.39l13.9,13.26c32.89,31.37,59.71,68.53,79.11,109.62l2.13,4.51s36.41,3.22,41.49-29.7h0c-31.94-36.07-58.24-74.57-79.94-117.4l-6.58-15.39-50.12,35.1Z"/>
      <path class="cls-6" d="M1479.04,1155.25c1.79,2.56-7.98,12.46-21.81,22.11-13.83,9.65-26.56,15.51-28.35,12.95-1.79-2.56,8.04-12.58,21.88-22.23,13.83-9.65,26.5-15.39,28.28-12.83Z"/>
      <path class="cls-1" d="M1479.1,1155.34l-.04-.05s-27.71,23.46-39.14,25.85l3.53,4.8c4.17-2.26,8.91-5.19,13.79-8.59,13.67-9.54,23.37-19.32,21.87-22.02Z"/>
      <g>
        <path class="cls-2" d="M1516.12,1223.45c.05,4.04-1.5,21.5-30.54,28.78,1.91,2.6,3.79,5.23,5.63,7.88,18.38-5.43,26.65-14.87,30.36-22.06.59-1.14,1.3-2.66,1.77-3.84-2.45-3.56-4.86-7.15-7.23-10.76Z"/>
        <polygon class="cls-2" points="1488.19 1247.07 1445.45 1245.54 1455.58 1254.14 1449.53 1265.12 1489.98 1254.81 1488.19 1247.07"/>
        <polygon class="cls-2" points="1492.09 1257.01 1476.9 1283.46 1487.58 1279.4 1491.69 1287.8 1498.83 1259.98 1492.09 1257.01"/>
        <path class="cls-11" d="M1497.89,1264.18c-7.5.53-14.03-5.31-14.58-13.04-.55-7.73,5.09-14.43,12.6-14.96,7.5-.53,14.03,5.31,14.58,13.04.55,7.73-5.09,14.43-12.6,14.96Z"/>
      </g>
    </g>
    <g>
      <path class="cls-10" d="M1588.6,664.01l-90-80.31c-5.85-5.22-3.41-15.96,4.66-20.53l71.83-40.67c4.6-2.6,9.78-2.36,13.11.61l90,80.31c5.85,5.22,3.41,15.96-4.66,20.53l-71.83,40.67c-4.6,2.6-9.78,2.36-13.11-.61Z"/>
      <path class="cls-5" d="M1584.34,600.13l-7.5-61.7c-.29-2.36,1.43-4.89,3.84-5.64,2.41-.75,4.6.56,4.88,2.92l6.91,56.78,68.25,16.5c2.22.54,3.25,2.94,2.29,5.36-.96,2.42-3.55,3.95-5.78,3.41l-72.89-17.63Z"/>
    </g>
    <path class="cls-14" d="M64.94,1435.85c-4.82,0-8.72,4.52-8.72,10.09s3.9,10.09,9.76,3.32h1772.62c2.27,0,4.11-2.98,4.13-6.66h0c.01-3.72-1.84-6.75-4.13-6.75H64.94Z"/>
    <polygon class="cls-8" points="409.07 317.49 418.37 335.9 439.39 335.22 448.36 356.58 470.52 348.96 481.73 372.67 503 368.17 517.52 389.22 509.55 394.71 498.7 378.97 476.25 383.73 465.48 360.93 442.94 368.68 433.05 345.11 412.52 345.77 403.9 328.71 390.51 331.97 388.22 322.56 409.07 317.49"/>
    <polygon class="cls-4" points="1534.62 788.27 1553.73 796.03 1569.13 781.71 1589.92 791.93 1601.62 771.62 1625.65 782.14 1638.73 764.77 1663.51 771.11 1661.11 780.48 1642.58 775.75 1628.78 794.08 1605.68 783.97 1593.79 804.62 1570.84 793.34 1555.8 807.32 1538.09 800.13 1530.14 811.38 1522.23 805.79 1534.62 788.27"/>
  </g>
</svg>