<?xml version="1.0" encoding="UTF-8"?>
<svg id="Layer_2" data-name="Layer 2" xmlns="http://www.w3.org/2000/svg" viewBox="0 0 485.8 446.28">
  <defs>
    <style>
      .cls-1, .cls-2 {
        opacity: .7;
      }

      .cls-3, .cls-4 {
        opacity: .4;
      }

      .cls-3, .cls-4, .cls-5, .cls-6, .cls-7, .cls-8, .cls-9, .cls-10, .cls-11, .cls-12, .cls-13, .cls-14, .cls-15, .cls-16, .cls-17, .cls-18, .cls-19, .cls-2, .cls-20, .cls-21, .cls-22, .cls-23, .cls-24, .cls-25, .cls-26, .cls-27, .cls-28 {
        stroke-width: 0px;
      }

      .cls-3, .cls-5, .cls-13, .cls-14, .cls-18, .cls-19, .cls-2, .cls-24, .cls-26 {
        fill: #fff;
      }

      .cls-5, .cls-21 {
        opacity: .15;
      }

      .cls-7, .cls-26 {
        opacity: .3;
      }

      .cls-8 {
        fill: #37474f;
      }

      .cls-9 {
        fill: #e0e0e0;
      }

      .cls-10 {
        fill: #f5f5f5;
      }

      .cls-11, .cls-24 {
        opacity: .2;
      }

      .cls-12 {
        fill: #ffa8a7;
      }

      .cls-14 {
        opacity: .6;
      }

      .cls-15 {
        fill: #fafafa;
      }

      .cls-16 {
        fill: #f28f8f;
      }

      .cls-17 {
        fill: #263238;
      }

      .cls-18 {
        opacity: .65;
      }

      .cls-19 {
        opacity: .25;
      }

      .cls-20 {
        fill: #ebebeb;
      }

      .cls-22 {
        fill: #455a64;
      }

      .cls-23 {
        opacity: .5;
      }

      .cls-23, .cls-28 {
        fill: #ba68c8;
      }

      .cls-25 {
        opacity: .1;
      }

      .cls-27 {
        fill: #e8e8ea;
      }
    </style>
  </defs>
  <g id="Floor">
    <path id="Floor-2" data-name="Floor" class="cls-27" d="M71.14,206.88c-94.86,54.77-94.85,143.56,0,198.32,94.86,54.77,248.66,54.77,343.51,0,94.86-54.77,94.85-143.56,0-198.32-94.86-54.77-248.66-54.77-343.51,0Z"/>
  </g>
  <g id="Shadows">
    <path id="Shadow" class="cls-9" d="M246.57,353.28c-.03.39-.24.78-.68,1.09l-.08.05-109.33,63.1h-.03c-.58.34-1.34.52-2.1.52-.82,0-1.65-.16-2.27-.52l-72.44-41.82s0,0,0,0c-.99-.57-1.46-1.58-1.43-2.59v-.08c.04-.79.41-1.57,1.09-2.1,0,0,.03-.02.03-.03l105.58-60.92s0,0,.02,0c1.11-.64,2.33-1,3.57-1.06h.07c1.44-.07,2.92.26,4.23.99.05.03.09.05.14.08l72.73,42s.03.02.03.03c.03.02.07.04.09.06.03.02.05.03.08.05,0,0,.02,0,.03.03.25.18.44.38.54.6.03.05.05.11.07.16.03.05.03.1.03.14.02.04.02.08.02.1,0,.02,0,.03,0,.03,0,.03,0,.07,0,.11Z"/>
    <ellipse id="Shadow-2" data-name="Shadow" class="cls-9" cx="87.25" cy="296.34" rx="52.2" ry="30.14"/>
    <ellipse id="Shadow-3" data-name="Shadow" class="cls-9" cx="398.43" cy="304.73" rx="52.2" ry="30.14"/>
    <polygon id="Shadow-4" data-name="Shadow" class="cls-9" points="307.69 250.56 213.28 305.09 87.77 232.63 182.18 178.1 307.69 250.56"/>
  </g>
  <g id="Books">
    <g id="Book">
      <path class="cls-6" d="M286.7,55.95v4.2s-1.61-1.48-1.7-2.54c-.09-1.06,1.7-1.66,1.7-1.66Z"/>
      <path class="cls-17" d="M283.47,54.93s-1.34,4.18,3.24,5.61c4.58,1.44,7.46-.01,8.14,1.28.69,1.29-21.74,14.21-21.74,14.21l4.26-18.56,6.09-2.56Z"/>
      <path class="cls-8" d="M281.2,252.43v.26s-2.24-1.29-2.24-1.29l-94.03-54.37.13-191.86c0-2.68,1.47-4,3.27-2.95l3.27,1.9,89.94,51.9-.08.79-.25,195.62Z"/>
      <path class="cls-28" d="M261.94,81.19l-4.73-5.31,24.15-13.94c3.64,2.75,6.44,4.22,9.7,2.84l-29.13,16.41Z"/>
      <path class="cls-10" d="M280.15,59.08L191.07,7.66c-1.55-.89-4.05-.89-5.6,0l-23.81,13.74,90.33,51.7s3.9-1.02,6.56,1.13c2.66,2.15,2.51-.57,2.51-.57l20.3-11.72c-1.66-2.22-1.22-2.85-1.22-2.85Z"/>
      <path class="cls-17" d="M260.2,80.08c-.92-.53-1.31-1.14-.88-1.4l.75-.44c.84-.48.06-1.73-1.76-2.79-1.81-1.04-3.97-1.52-4.81-1.03l-.76.44c-.43.25-2.02-.27-3.55-1.15l.55,187.28c.89.51,2.25,1.29,2.25,1.29.5.14,1.13-.02,1.32-.12l.76-.44c.84-.49,2.99-.03,4.8,1.01,1.82,1.06,2.6,2.3,1.76,2.79l-.76.44c-.43.25-.04.86.88,1.39l-.55-187.27Z"/>
      <path class="cls-8" d="M252,262.02v.26l-2.24-1.29-96.19-55.54V23.35c.01-2.68,1.48-4,3.29-2.95l3.27,1.9,91.87,50.8v188.92Z"/>
      <path class="cls-8" d="M259.15,266.42V78.95l5.97,2.41v186.92c-1.6.2-2.6.03-3.3-.33l-2.67-1.54Z"/>
      <path class="cls-22" d="M297.26,249.07c0,.1-.01.21-.03.32,0,.07-.01.14-.04.21-.04.15-.1.3-.19.45-.02.09-.06.15-.11.23-.14.25-.31.5-.51.73-.19.24-.43.49-.67.72-.27.25-.54.48-.85.73-.16.15-.34.27-.53.4-.15.1-.28.2-.44.31-.33.23-.69.45-1.07.67l-20.72,11.96c-2.32,1.34-4.9,2.22-6.99,2.48V81.36s32.16-19.27,32.16-19.27v186.92s-.01.05-.01.05Z"/>
      <g>
        <path class="cls-28" d="M265.12,104.5v20.09c12.85-4.36,23.88-10.29,32.16-18.57v-20.09c-8.28,8.28-19.3,14.2-32.16,18.57Z"/>
        <path class="cls-3" d="M265.12,104.5v20.09c12.85-4.36,23.88-10.29,32.16-18.57v-20.09c-8.28,8.28-19.3,14.2-32.16,18.57Z"/>
        <path class="cls-28" d="M265.12,132.04v7.49c12.85-4.36,23.88-10.29,32.16-18.57v-7.49c-8.28,8.28-19.3,14.2-32.16,18.57Z"/>
        <path class="cls-3" d="M265.12,132.04v7.49c12.85-4.36,23.88-10.29,32.16-18.57v-7.49c-8.28,8.28-19.3,14.2-32.16,18.57Z"/>
      </g>
      <path class="cls-22" d="M296.55,60.97c-.45-.26-.89-.51-1.28-.73-.39-.22-.75-.43-1.03-.6-.17-.11-.35-.21-.48-.28-.26-.16-.84-.07-1.31.19l-.9.52c-.9.48-2.38.44-4.15-.59-1.81-1.04-2.55-2.32-1.64-2.84l.73-.42s.08-.05.13-.09c.35-.3-.52-1.19-2.02-2.04l-20.92-12.08L198.16,4.16s-.47-.27-1.22-.69c-.2-.13-.44-.25-.7-.4-.29-.19-.62-.37-.98-.57-.5-.29-1.05-.59-1.59-.91-.31-.18-.62-.35-.92-.53-.52-.28-1-.58-1.48-.84-.02,0-.03-.02-.04-.01-.62-.27-1.21-.25-1.67.01l-2.38,1.37-.9.52c.56-.32,1.16-.28,1.79,0,1.2.69,2.6,1.5,4,2.3.46.25.92.53,1.36.78,2.57,1.48,4.73,2.73,4.73,2.73l82.51,47.63c.19.11.38.21.58.32l.29.17c-.2.97-.04,2.06.52,3.04.76,1.31,2.07,2.26,3.03,2.8,2.12,1.24,5.33,2.22,7.7,1.19-.02.03-.03.04-.06.06l-.66.47c-.27.18-.56.36-.85.53l-20.72,11.96c-2.99,1.73-5.98,2.28-6.9,2.17.12-.89-.05-1.83-.57-2.73-.76-1.31-2.1-2.28-3.1-2.85-1.31-.75-3.05-1.43-4.71-1.59-.12,0-.24-.03-.35-.02-1.03-.08-2.04.09-2.88.54l-85.31-49.26-2.9-1.66-3.7-2.14c-.76-.44-1.46-.46-2.01-.15l-3.27,1.89c.64-.37,1.34-.27,2.05.12l.05.03,9.78,5.66,82.51,47.63c1.54.88,3.13,1.42,3.57,1.17l.76-.44c.36-.21.98-.25,1.71-.11.94.13,2.07.54,3.09,1.12,1.82,1.06,2.6,2.31,1.76,2.79l-.75.44c-.43.25-.04.86.88,1.39l1.64.94c1.8,1.05,6.41.08,10.27-2.14l20.72-11.96c.38-.22.73-.44,1.07-.67.16-.11.29-.21.44-.31.19-.13.37-.25.53-.4.3-.25.58-.48.85-.73.24-.23.47-.48.67-.72.2-.23.38-.48.51-.73.05-.08.07-.13.09-.22h.01c.09-.15.15-.3.19-.45.03-.07.05-.14.04-.21.12-.63-.1-1.14-.69-1.49Z"/>
      <path class="cls-24" d="M296.55,60.97c-.45-.26-.89-.51-1.28-.73-.39-.22-.75-.43-1.03-.6-.17-.11-.35-.21-.48-.28-.26-.16-.84-.07-1.31.19l-.9.52c-.9.48-2.38.44-4.15-.59-1.81-1.04-2.55-2.32-1.64-2.84l.73-.42s.08-.05.13-.09c.35-.3-.52-1.19-2.02-2.04l-20.92-12.08L198.16,4.16s-.47-.27-1.22-.69c-.2-.13-.44-.25-.7-.4-.29-.19-.62-.37-.98-.57-.5-.29-1.05-.59-1.59-.91-.31-.18-.62-.35-.92-.53-.52-.28-1-.58-1.48-.84-.02,0-.03-.02-.04-.01-.62-.27-1.21-.25-1.67.01l-2.38,1.37-.9.52c.56-.32,1.16-.28,1.79,0,1.2.69,2.6,1.5,4,2.3.46.25.92.53,1.36.78,2.57,1.48,4.73,2.73,4.73,2.73l82.51,47.63c.19.11.38.21.58.32l.29.17c-.2.97-.04,2.06.52,3.04.76,1.31,2.07,2.26,3.03,2.8,2.12,1.24,5.33,2.22,7.7,1.19-.02.03-.03.04-.06.06l-.66.47c-.27.18-.56.36-.85.53l-20.72,11.96c-2.99,1.73-5.98,2.28-6.9,2.17.12-.89-.05-1.83-.57-2.73-.76-1.31-2.1-2.28-3.1-2.85-1.31-.75-3.05-1.43-4.71-1.59-.12,0-.24-.03-.35-.02-1.03-.08-2.04.09-2.88.54l-85.31-49.26-2.9-1.66-3.7-2.14c-.76-.44-1.46-.46-2.01-.15l-3.27,1.89c.64-.37,1.34-.27,2.05.12l.05.03,9.78,5.66,82.51,47.63c1.54.88,3.13,1.42,3.57,1.17l.76-.44c.36-.21.98-.25,1.71-.11.94.13,2.07.54,3.09,1.12,1.82,1.06,2.6,2.31,1.76,2.79l-.75.44c-.43.25-.04.86.88,1.39l1.64.94c1.8,1.05,6.41.08,10.27-2.14l20.72-11.96c.38-.22.73-.44,1.07-.67.16-.11.29-.21.44-.31.19-.13.37-.25.53-.4.3-.25.58-.48.85-.73.24-.23.47-.48.67-.72.2-.23.38-.48.51-.73.05-.08.07-.13.09-.22h.01c.09-.15.15-.3.19-.45.03-.07.05-.14.04-.21.12-.63-.1-1.14-.69-1.49Z"/>
    </g>
    <g id="Book-2" data-name="Book">
      <path class="cls-6" d="M239.01,84.68v4.2s-1.61-1.48-1.7-2.54c-.09-1.06,1.7-1.66,1.7-1.66Z"/>
      <path class="cls-28" d="M235.78,83.67s-1.34,4.18,3.24,5.61c4.58,1.44,7.46-.01,8.14,1.28.69,1.29-21.74,14.21-21.74,14.21l4.26-18.56,6.09-2.56Z"/>
      <path class="cls-7" d="M235.78,83.67s-1.34,4.18,3.24,5.61c4.58,1.44,7.46-.01,8.14,1.28.69,1.29-21.74,14.21-21.74,14.21l4.26-18.56,6.09-2.56Z"/>
      <path class="cls-28" d="M233.51,281.17v.26s-2.24-1.29-2.24-1.29l-94.03-54.37.13-191.86c0-2.68,1.47-4,3.27-2.95l3.27,1.9,89.94,51.9-.08.78-.25,195.62Z"/>
      <path class="cls-11" d="M233.51,281.17v.26s-2.24-1.29-2.24-1.29l-94.03-54.37.13-191.86c0-2.68,1.47-4,3.27-2.95l3.27,1.9,89.94,51.9-.08.78-.25,195.62Z"/>
      <path class="cls-22" d="M214.25,109.93l-4.72-5.31,24.15-13.94c3.64,2.75,6.44,4.22,9.7,2.84l-29.13,16.41Z"/>
      <path class="cls-10" d="M232.46,87.82l-89.07-51.43c-1.55-.89-4.05-.89-5.6,0l-23.81,13.75,90.33,51.7s3.91-1.02,6.56,1.13c2.66,2.15,2.51-.57,2.51-.57l20.3-11.72c-1.66-2.22-1.22-2.85-1.22-2.85Z"/>
      <path class="cls-28" d="M212.51,108.82c-.92-.53-1.31-1.14-.88-1.4l.76-.44c.84-.48.06-1.73-1.76-2.79-1.81-1.04-3.97-1.52-4.81-1.03l-.76.44c-.43.25-2.02-.27-3.55-1.15l.55,187.28c.89.51,2.25,1.29,2.25,1.29.5.14,1.13-.02,1.31-.12l.76-.44c.84-.48,2.99-.03,4.8,1.01,1.82,1.06,2.6,2.3,1.76,2.79l-.76.44c-.43.25-.04.86.88,1.39l-.55-187.28Z"/>
      <path class="cls-19" d="M212.51,108.82c-.92-.53-1.31-1.14-.88-1.4l.76-.44c.84-.48.06-1.73-1.76-2.79-1.81-1.04-3.97-1.52-4.81-1.03l-.76.44c-.43.25-2.02-.27-3.55-1.15l.55,187.28c.89.51,2.25,1.29,2.25,1.29.5.14,1.13-.02,1.31-.12l.76-.44c.84-.48,2.99-.03,4.8,1.01,1.82,1.06,2.6,2.3,1.76,2.79l-.76.44c-.43.25-.04.86.88,1.39l-.55-187.28Z"/>
      <path class="cls-28" d="M204.31,290.76v.26s-2.24-1.29-2.24-1.29l-96.19-55.54V52.08c.01-2.68,1.48-4,3.29-2.95l3.27,1.9,91.87,50.8v188.92Z"/>
      <path class="cls-3" d="M204.31,290.76v.26s-2.24-1.29-2.24-1.29l-96.19-55.54V52.08c.01-2.68,1.48-4,3.29-2.95l3.27,1.9,91.87,50.8v188.92Z"/>
      <path class="cls-28" d="M211.46,295.15V107.69l5.97,2.41v186.92c-1.6.2-2.6.03-3.3-.33l-2.67-1.54Z"/>
      <path class="cls-3" d="M211.46,295.15V107.69l5.97,2.41v186.92c-1.6.2-2.6.03-3.3-.33l-2.67-1.54Z"/>
      <path class="cls-28" d="M249.57,277.81c0,.1-.01.21-.03.32,0,.07-.01.14-.04.21-.04.15-.1.3-.19.45-.02.09-.06.15-.11.23-.14.25-.31.5-.51.73-.19.24-.43.49-.67.72-.27.25-.54.48-.85.73-.16.15-.35.27-.53.4-.15.1-.28.2-.44.31-.33.23-.69.45-1.07.67l-20.72,11.96c-2.32,1.34-4.9,2.22-6.99,2.48V110.1s32.16-19.27,32.16-19.27v186.92s-.01.05-.01.05Z"/>
      <g class="cls-1">
        <path class="cls-13" d="M249.57,277.81c0,.1-.01.21-.03.32,0,.07-.01.14-.04.21-.04.15-.1.3-.19.45-.02.09-.06.15-.11.23-.14.25-.31.5-.51.73-.19.24-.43.49-.67.72-.27.25-.54.48-.85.73-.16.15-.35.27-.53.4-.15.1-.28.2-.44.31-.33.23-.69.45-1.07.67l-20.72,11.96c-2.32,1.34-4.9,2.22-6.99,2.48V110.1s32.16-19.27,32.16-19.27v186.92s-.01.05-.01.05Z"/>
      </g>
      <g>
        <path class="cls-15" d="M217.43,123.91v20.09c12.86-4.36,23.88-10.29,32.16-18.57v-20.09c-8.28,8.28-19.3,14.2-32.16,18.57Z"/>
        <path class="cls-15" d="M217.43,256.08v20.09c12.86-4.36,23.88-10.29,32.16-18.57v-20.09c-8.28,8.28-19.3,14.2-32.16,18.57Z"/>
      </g>
      <g>
        <path class="cls-28" d="M224.42,107.61l-1.62-2.8c-2.99,1.73-5.98,2.28-6.9,2.17.12-.89-.05-1.84-.57-2.73-.76-1.31-2.1-2.28-3.1-2.85-1.31-.75-3.05-1.43-4.71-1.59-.12,0-.24-.03-.35-.02-1.03-.08-2.04.09-2.88.54l-85.31-49.25-2.9-1.66-3.7-2.14c-.76-.44-1.46-.46-2.01-.15l-3.27,1.89c.64-.37,1.34-.27,2.05.12l.05.03,9.78,5.66,82.51,47.63c1.54.88,3.13,1.42,3.57,1.17l.76-.44c.36-.21.98-.25,1.71-.11.93.13,2.07.54,3.09,1.12,1.82,1.06,2.6,2.31,1.76,2.79l-.76.44c-.43.25-.04.86.88,1.39l1.64.94c1.8,1.05,6.41.08,10.27-2.14Z"/>
        <path class="cls-14" d="M224.42,107.61l-1.62-2.8c-2.99,1.73-5.98,2.28-6.9,2.17.12-.89-.05-1.84-.57-2.73-.76-1.31-2.1-2.28-3.1-2.85-1.31-.75-3.05-1.43-4.71-1.59-.12,0-.24-.03-.35-.02-1.03-.08-2.04.09-2.88.54l-85.31-49.25-2.9-1.66-3.7-2.14c-.76-.44-1.46-.46-2.01-.15l-3.27,1.89c.64-.37,1.34-.27,2.05.12l.05.03,9.78,5.66,82.51,47.63c1.54.88,3.13,1.42,3.57,1.17l.76-.44c.36-.21.98-.25,1.71-.11.93.13,2.07.54,3.09,1.12,1.82,1.06,2.6,2.31,1.76,2.79l-.76.44c-.43.25-.04.86.88,1.39l1.64.94c1.8,1.05,6.41.08,10.27-2.14Z"/>
        <path class="cls-28" d="M222.81,104.81l20.72-11.96c.29-.17.58-.35.85-.53l.66-.47s.04-.02.06-.05c-2.37,1.03-5.58.05-7.7-1.19-.97-.54-2.27-1.48-3.03-2.8-.57-.98-.73-2.06-.52-3.04l-.29-.17c-.2-.11-.38-.21-.58-.32l-82.51-47.63s-2.16-1.25-4.73-2.73c-.44-.25-.9-.52-1.36-.78-1.39-.8-2.8-1.61-4-2.3-.62-.27-1.23-.32-1.79,0l.9-.52,2.38-1.37c.46-.27,1.05-.29,1.67-.01.01,0,.02,0,.04.01.47.27.96.56,1.48.84.31.18.62.35.92.53.54.32,1.09.62,1.59.91.36.2.69.38.98.57.26.15.5.27.7.4.75.43,1.22.69,1.22.69l65.52,37.85,20.92,12.08c1.5.85,2.37,1.75,2.02,2.04-.05.04-.11.08-.13.09l-.73.42c-.91.52-.17,1.8,1.64,2.84,1.77,1.03,3.25,1.07,4.15.59l.9-.52c.46-.27,1.04-.36,1.31-.19.13.07.31.18.48.28.29.17.65.37,1.03.6.39.22.83.47,1.28.73.59.35.81.86.69,1.49,0,.07-.01.14-.04.21-.04.15-.1.3-.19.45h-.01c-.02.1-.05.15-.09.23-.14.25-.31.5-.51.73-.2.24-.43.49-.67.72-.27.25-.54.48-.85.73-.16.15-.34.27-.53.4-.15.1-.28.2-.44.31-.33.23-.69.45-1.07.67l-20.72,11.96-1.62-2.8Z"/>
        <path class="cls-14" d="M222.81,104.81l20.72-11.96c.29-.17.58-.35.85-.53l.66-.47s.04-.02.06-.05c-2.37,1.03-5.58.05-7.7-1.19-.97-.54-2.27-1.48-3.03-2.8-.57-.98-.73-2.06-.52-3.04l-.29-.17c-.2-.11-.38-.21-.58-.32l-82.51-47.63s-2.16-1.25-4.73-2.73c-.44-.25-.9-.52-1.36-.78-1.39-.8-2.8-1.61-4-2.3-.62-.27-1.23-.32-1.79,0l.9-.52,2.38-1.37c.46-.27,1.05-.29,1.67-.01.01,0,.02,0,.04.01.47.27.96.56,1.48.84.31.18.62.35.92.53.54.32,1.09.62,1.59.91.36.2.69.38.98.57.26.15.5.27.7.4.75.43,1.22.69,1.22.69l65.52,37.85,20.92,12.08c1.5.85,2.37,1.75,2.02,2.04-.05.04-.11.08-.13.09l-.73.42c-.91.52-.17,1.8,1.64,2.84,1.77,1.03,3.25,1.07,4.15.59l.9-.52c.46-.27,1.04-.36,1.31-.19.13.07.31.18.48.28.29.17.65.37,1.03.6.39.22.83.47,1.28.73.59.35.81.86.69,1.49,0,.07-.01.14-.04.21-.04.15-.1.3-.19.45h-.01c-.02.1-.05.15-.09.23-.14.25-.31.5-.51.73-.2.24-.43.49-.67.72-.27.25-.54.48-.85.73-.16.15-.34.27-.53.4-.15.1-.28.2-.44.31-.33.23-.69.45-1.07.67l-20.72,11.96-1.62-2.8Z"/>
      </g>
    </g>
  </g>
  <g id="Plant">
    <g id="Plant-2" data-name="Plant">
      <g id="Pot">
        <path class="cls-8" d="M130.93,255.94l-89.7-.02,9.28,38.64h.01c.71,4.66,4.14,9.21,10.31,12.77,13.95,8.05,36.57,8.05,50.52,0,6.65-3.84,10.09-8.81,10.4-13.84l9.18-37.55Z"/>
        <path class="cls-17" d="M119.99,282.42c2.03-1.17,3.81-2.44,5.38-3.76l5.05-20.64c-2.3,2.6-5.32,5.04-9.08,7.21-18.92,10.92-49.25,11.2-68.82.89l2.28-9.2-.7-.97h-12.88s9.27,38.62,9.27,38.62h.01c.71,4.66,4.14,9.21,10.31,12.77,9.94,5.74,24.26,7.36,36.73,4.93-22.35,1.67-37.68-8.11-39.98-17.11-.92-3.59-2.52-11.55-2.52-11.55,18.67,9.48,47.1,9.11,64.93-1.18Z"/>
        <path class="cls-22" d="M135.59,244.51c-.46,2.37-1.46,4.72-2.99,6.97-2.42,3.65-6.18,7.06-11.25,10-19.47,11.24-51.05,11.24-70.52,0-5.08-2.94-8.84-6.35-11.25-10-1.52-2.26-2.52-4.6-2.98-6.97h-.02c-1.74-8.45,3.02-17.26,14.25-23.74,19.47-11.26,51.05-11.26,70.52,0,11.23,6.48,15.98,15.29,14.25,23.74Z"/>
        <path class="cls-8" d="M132.6,251.48c-2.42,3.65-6.18,7.06-11.25,10-19.47,11.24-51.05,11.24-70.52,0-5.08-2.94-8.84-6.35-11.25-10-1.52-2.26-2.52-4.6-2.98-6.97h-.02l2.21,15.2c1.01,6.12,5.57,12.08,13.7,16.77,18.56,10.7,48.64,10.7,67.2,0,8.01-4.63,12.57-10.52,13.66-16.55l.12-.78,2.14-14.64c-.46,2.37-1.46,4.72-2.99,6.97Z"/>
        <path class="cls-17" d="M115.47,224.16c-16.23-9.37-42.54-9.37-58.76,0-9.19,5.31-13.16,12.47-11.96,19.38.93,5.31,4.92,10.47,11.96,14.54,16.22,9.37,42.53,9.37,58.76,0,7.03-4.07,11.02-9.23,11.95-14.52,1.22-6.93-2.76-14.09-11.95-19.4Z"/>
        <path class="cls-15" d="M47.49,249.97c2.03,2.95,5.08,5.73,9.22,8.11,16.22,9.37,42.53,9.37,58.76,0,4.13-2.39,7.18-5.16,9.21-8.11-.12-5.61-3.88-11.2-11.29-15.48-15.08-8.71-39.53-8.71-54.6,0-7.42,4.29-11.18,9.88-11.3,15.48Z"/>
      </g>
      <g id="Plant-3" data-name="Plant">
        <g>
          <path class="cls-28" d="M88.91,235.48c-7.42-2.01-8.67-18.08-4.52-35.04,4.04-16.5,16.98-41.24,19.73-40.69,2.75.54,6.19,27.43,4.25,45.19-2.34,21.51-12.05,32.55-19.47,30.54Z"/>
          <path class="cls-7" d="M88.91,235.48c-7.42-2.01-8.67-18.08-4.52-35.04,4.04-16.5,16.98-41.24,19.73-40.69,2.75.54,6.19,27.43,4.25,45.19-2.34,21.51-12.05,32.55-19.47,30.54Z"/>
          <path class="cls-23" d="M92.53,183.53c1.33,2.1,2.15,5.66,5.27,5.67,2.5.01,3.81-2.64,6.06-3.25,1.81-.49,3.53.47,4.98,1.49-.02-.65-.05-1.29-.08-1.93-1.28-.84-2.73-1.56-4.3-1.52-1.4.04-2.52.79-3.6,1.62-1.16.9-2.57,2.25-4.17,1.6-1.8-.74-2.32-3.01-3.24-4.52-.51-.84-1.16-1.55-1.98-2.03-.2.45-.4.91-.6,1.37.66.34,1.24.83,1.66,1.5ZM101.32,176.89c1.07-.51,1.68-1.56,2.5-2.36,1.05-1.01,2.47-1.22,3.82-.74.05.02.08.05.13.07-.07-.57-.14-1.14-.21-1.69-.23-.07-.46-.14-.71-.17-1.07-.16-2.21.03-3.1.67-1.02.73-1.59,2-2.67,2.65-1.94,1.16-3.48-.95-4.06-2.54-.26-.71-.46-1.44-.7-2.16-.2.37-.39.75-.59,1.13.13.51.26,1.02.41,1.5.66,2.09,2.63,4.83,5.18,3.63ZM101.08,198.36c-1.35.82-2.49,2.21-4.05,2.65-3.82,1.09-4.7-4.81-7.14-6.55-1.03-.74-2.27-1.01-3.47-.91-.15.45-.3.9-.44,1.35.63-.11,1.29-.14,1.94.02,1.63.39,2.56,1.56,3.34,2.97,1.22,2.19,2.77,5.33,5.83,4.72,1.36-.27,2.45-1.22,3.55-2,1.55-1.11,3.24-1.8,5.17-1.39,1.15.24,2.04.86,2.91,1.55.04-.58.07-1.16.09-1.75-1.06-.79-2.19-1.41-3.54-1.57-1.47-.18-2.94.14-4.2.91ZM103.41,211.32c-1.69-.42-3.51-.1-5.06.66-1.77.87-3.05,2.58-4.9,3.28-4.04,1.53-4.66-4.32-7.62-5.76-.97-.47-2.03-.66-3.06-.59-.06.46-.13.92-.19,1.37.39-.03.79-.03,1.17.02,2.03.28,3.24,1.5,4.17,3.23,1.43,2.67,3.31,4.83,6.58,3.23,1.75-.85,3-2.45,4.8-3.22,1.95-.84,4.35-.91,6.02.55.31.27.7.78,1.14,1.39.15-.57.29-1.17.43-1.76-.91-1.14-2.01-2.06-3.47-2.42Z"/>
          <path class="cls-25" d="M88.91,235.48c7.42,2.01,17.12-9.03,19.47-30.54.61-5.61.69-12.13.42-18.45-6.06,4.98-12.14,15.13-12.14,15.13,0,0-3.97-10.39-7.2-16.22-2.11,5.17-3.93,10.43-5.06,15.04-4.15,16.96-2.9,33.03,4.52,35.04Z"/>
        </g>
        <g>
          <path class="cls-28" d="M82.87,244.39c-9.76,6.26-18.86-16.01-23.71-32.82-4.85-16.81-1.68-60.76,3.23-63.17,3.48-1.7,21.91,37.68,25.53,56.85,2.62,13.86,2.7,34.16-5.05,39.14Z"/>
          <path class="cls-25" d="M82.87,244.39c-9.76,6.26-18.86-16.01-23.71-32.82-4.85-16.81-1.68-60.76,3.23-63.17,3.48-1.7,21.91,37.68,25.53,56.85,2.62,13.86,2.7,34.16-5.05,39.14Z"/>
          <path class="cls-28" d="M61.81,179.43c3.06,1.51,5.5,1.52,7.89-1.07,2.22-2.41,3.86-5.44,7.33-5.05-.34-.77-.67-1.54-1.01-2.3-.56-.03-1.12.02-1.69.17-3.03.81-4.38,3.96-6.51,5.95-3.27,3.07-6.76-.96-10.47-.74-.11,0-.22.03-.34.04-.03.67-.06,1.34-.09,2.02,1.62-.13,3.33.19,4.89.96ZM88.63,209.67c-.51-.19-1.04-.36-1.61-.46-1.61-.31-3.29.08-4.61,1.04-2.95,2.17-3.09,6.98-7.86,5.72-3.63-.96-6.36-3.35-10.17-1.44-1.3.65-2.46,1.57-3.5,2.64.18.56.37,1.11.56,1.67,1.39-1.36,2.94-2.48,4.75-2.95,4.11-1.06,7.21,3.1,11.3,2.42,3.34-.55,3.7-4.21,6.01-6.02,1.72-1.34,3.56-1.02,5.41-.34-.09-.77-.18-1.53-.28-2.28ZM61.98,163.47c1.14,1.57,2.75,3.31,4.86,2.22,2.26-1.16,2.44-3.91,3.89-5.7-.27-.51-.53-1.02-.79-1.51-1.41,1.89-2.12,6-4.82,5.85-2.12-.11-2.95-3.25-4.72-4.16-.61-.31-1.2-.4-1.77-.34-.07.42-.13.85-.2,1.29.14-.01.28-.03.42-.03,1.48.05,2.34,1.3,3.13,2.38ZM69.33,196.84c3.85.83,5.73-3.76,7.47-6.3,1.29-1.89,3.23-3.84,5.35-4.52-.26-.69-.52-1.38-.78-2.07-.71.16-1.4.4-2.01.75-1.76,1-3.07,2.59-4.18,4.24-1.16,1.73-2.12,4.06-3.92,5.23-2.06,1.34-4.48-.75-6.61-1.15-1.98-.37-4.04-.19-5.94.49-.62.22-1.22.53-1.8.87.04.95.09,1.9.15,2.82,1.61-1.51,4.11-2.15,6.26-2.1,2.25.05,3.92,1.29,6.03,1.75Z"/>
          <path class="cls-25" d="M82.8,187.79c-5.17,6.2-7.9,12.95-7.9,12.95,0,0-10.59-14.37-18.03-20.88-.41,11.93.18,24.39,2.29,31.7,4.85,16.81,13.95,39.09,23.71,32.82,7.76-4.98,7.68-25.28,5.05-39.14-.92-4.85-2.79-11.01-5.12-17.46Z"/>
        </g>
        <g>
          <path class="cls-28" d="M82.2,255.84c-17.84.96-34.52-9.84-45.33-23.46-10.81-13.62-19.26-41.76-16.82-43.49,2.44-1.73,31.23,16.02,42.04,28.83,14.18,16.8,20.11,38.12,20.11,38.12Z"/>
          <path class="cls-11" d="M82.2,255.84c-17.84.96-34.52-9.84-45.33-23.46-10.81-13.62-19.26-41.76-16.82-43.49,2.44-1.73,31.23,16.02,42.04,28.83,14.18,16.8,20.11,38.12,20.11,38.12Z"/>
          <path class="cls-28" d="M43.25,211.15c1.04-1.68.45-3.71.22-5.52-.17-1.33.1-2.49.72-3.46-.67-.48-1.34-.96-2.01-1.43-.87,1.5-.98,3.13-.73,4.84.3,2.06.79,4.62-1.96,5-3,.41-7.16-2.27-9.56.7-1.16,1.44-.72,3.28-.76,4.96-.02.7-.26,1.48-.64,2.17.32.68.65,1.35.99,2.02.7-.86,1.19-1.93,1.33-3.03.26-2.07-.56-4.75,2.24-5.2,1.94-.31,3.8.59,5.72.72,1.71.12,3.49-.23,4.45-1.78ZM33.29,196.25c.22-.34.49-.61.79-.85-.54-.34-1.08-.66-1.6-.98-1.31,1.72-1.31,4.08-2.63,5.79-.88,1.14-2.03,1.23-3.37.96-1.29-.26-2.48-.44-3.72.13-.27.12-.51.27-.75.43.13.43.27.86.41,1.3.55-.31,1.17-.5,1.87-.52,1.35-.04,2.6.67,3.97.58.94-.06,1.73-.52,2.36-1.21,1.47-1.6,1.53-3.85,2.67-5.62ZM53.06,220.16c1.39-1.15,2.26-2.87,2.71-4.59.32-1.22.3-2.53.46-3.79-.55-.5-1.11-1-1.69-1.5-.37,2.09-.17,4.2-1.25,6.17-1.24,2.25-3.09,2.91-5.55,2.91-1.78,0-3.51.11-4.77,1.52-1.17,1.31-1.53,3.11-1.78,4.79-.36,2.48-.74,4.78-3.05,6.19-.4.24-.81.43-1.23.58.42.52.86,1.03,1.29,1.55.96-.43,1.84-1.05,2.56-1.9,2.99-3.54.57-10.57,6.91-10.57,2,0,3.78-.02,5.4-1.35ZM62.66,221.96c.35-.69.82-1.3,1.34-1.87-.5-.64-1.02-1.28-1.54-1.92-1.53,1.57-2.35,3.49-2.86,5.61-.55,2.27-.84,4.75-2.32,6.65-1.55,1.99-4.02,1.78-6.07,2.93-1.75.98-3.09,2.57-3.8,4.44-.56,1.45-.73,2.98-.95,4.5.62.53,1.25,1.05,1.89,1.56.02-.09.04-.19.05-.27.4-2.53.7-5.12,2.67-6.97,1.89-1.78,4.48-1.51,6.5-2.93,3.84-2.71,3.17-7.93,5.11-11.71ZM70.39,229.39c-.51.41-1.01.85-1.45,1.33-3.04,3.35-2.67,7.69-3.78,11.78-.57,2.09-1.68,4.22-3.79,5.1-1.7.7-3.62.02-5.1,1.36-.06.05-.09.11-.14.17.88.5,1.77.98,2.67,1.43.48-.12.99-.14,1.49-.17,1-.06,1.88-.21,2.77-.67,1.54-.78,2.66-2.18,3.39-3.71,1.85-3.83,1.03-8.49,3.33-12.14.55-.87,1.2-1.6,1.93-2.23-.43-.75-.87-1.5-1.32-2.25Z"/>
          <path class="cls-11" d="M42.01,200.63c1.68,14.77,9.56,54.52,40.18,55.21,0,0-5.94-21.32-20.11-38.12-4.58-5.43-12.4-11.75-20.07-17.1Z"/>
        </g>
        <g>
          <path class="cls-28" d="M82.2,255.84c-14.04-2.05-26.08-10.93-32.27-37.37-6.19-26.44-7.13-38.38-2.88-41,4.9-3.02,24.05,23.63,30.21,35.35,15.48,29.45,4.93,43.02,4.93,43.02Z"/>
          <path class="cls-24" d="M56.16,206.99c3.5,1.1,8.05,2.27,10.67-1.19,1.28-1.69,1.63-3.98,2.53-5.76-.61-.9-1.24-1.8-1.88-2.7-1.54,2.49-1.5,6.17-4.21,7.6-2.03,1.07-4.44.37-6.5-.25-2.11-.64-4.22-1.27-6.45-.97-1.23.17-2.36.59-3.36,1.18.15.77.33,1.59.49,2.4.45-.26.92-.49,1.4-.67,2.48-.93,4.85-.41,7.3.36ZM52.01,193.31c1.06.43,2.1.86,3.26.62,2.13-.44,3.24-2.5,4.33-4.17.32-.49.67-.97,1.08-1.39-.44-.54-.88-1.07-1.32-1.59-.09.09-.18.17-.27.27-1.33,1.61-2.44,4.88-4.92,4.93-1.2.02-2.34-.77-3.5-1.02-1-.22-2.01-.23-3.03-.06-1.02.16-1.96.54-2.81,1.07.07.61.15,1.25.24,1.89,1.16-.66,2.43-1.1,3.77-1.15,1.11-.04,2.14.18,3.16.6ZM67.33,222.67c1.34-1.96,2.31-4.17,4.29-5.59,2.31-1.66,4.64-1.56,7.15-1.27-.47-.98-.97-1.97-1.5-2.98-1.62-.17-3.2-.2-4.85.31-2.19.68-4.02,2.05-5.35,3.91-1.21,1.69-2.03,3.76-3.59,5.18-2.86,2.61-6.72.33-9.91-.31-.93-.19-1.87-.26-2.8-.22.25.92.5,1.83.76,2.7,1.17-.01,2.4.16,3.69.56,4.76,1.48,8.93,2.36,12.11-2.3ZM83.49,227.81c-.24.07-.47.11-.71.2-1.9.72-3.52,1.97-4.75,3.57-1.36,1.76-2.08,3.89-3.37,5.69-1.5,2.1-3.18,2.62-5.59,1.86-2.11-.67-4.01-1.16-6.17-.45-1.49.48-2.79,1.35-3.91,2.44.48.71.97,1.37,1.46,2.02.88-.76,1.91-1.42,3.02-1.76,1.77-.54,3.2-.06,4.84.6,4.03,1.65,7.46.6,9.93-3.02,1.2-1.76,1.9-3.84,3.25-5.5.8-.98,1.79-1.72,2.9-2.22-.26-1.11-.55-2.25-.9-3.43Z"/>
          <path class="cls-21" d="M77.26,212.82c-1.11-2.12-2.66-4.73-4.46-7.57-6.07,18.77-8.02,46.14,9.4,50.59,0,0,10.55-13.57-4.93-43.02Z"/>
        </g>
        <g>
          <path class="cls-28" d="M89.45,255.84c17.84.96,34.52-9.84,45.33-23.46,10.81-13.62,19.26-41.76,16.82-43.49-2.44-1.73-31.23,16.02-42.04,28.83-14.18,16.8-20.11,38.12-20.11,38.12Z"/>
          <path class="cls-11" d="M89.45,255.84c17.84.96,34.52-9.84,45.33-23.46,10.81-13.62,19.26-41.76,16.82-43.49-2.44-1.73-31.23,16.02-42.04,28.83-14.18,16.8-20.11,38.12-20.11,38.12Z"/>
          <path class="cls-28" d="M132.85,212.93c1.91-.13,3.78-1.03,5.72-.72,2.8.44,1.98,3.12,2.24,5.2.14,1.09.63,2.17,1.33,3.03.33-.67.67-1.34.99-2.02-.39-.69-.63-1.47-.64-2.17-.04-1.69.4-3.53-.76-4.96-2.4-2.97-6.56-.29-9.56-.7-2.76-.38-2.26-2.94-1.96-5,.25-1.71.14-3.34-.73-4.84-.67.47-1.34.94-2.01,1.43.62.97.89,2.13.72,3.46-.23,1.81-.82,3.84.22,5.52.96,1.55,2.75,1.9,4.45,1.78ZM141.02,201.87c.63.69,1.42,1.15,2.36,1.21,1.36.09,2.62-.62,3.97-.58.71.02,1.33.21,1.87.52.14-.44.28-.87.41-1.3-.23-.16-.48-.3-.75-.43-1.24-.57-2.43-.39-3.72-.13-1.34.27-2.48.19-3.37-.96-1.32-1.71-1.32-4.07-2.63-5.79-.53.32-1.06.64-1.6.98.29.24.57.51.79.85,1.14,1.77,1.21,4.02,2.67,5.62ZM123.98,221.51c6.34,0,3.92,7.03,6.91,10.57.72.86,1.6,1.47,2.56,1.9.43-.51.87-1.03,1.29-1.55-.42-.16-.83-.34-1.23-.58-2.31-1.4-2.69-3.7-3.05-6.19-.25-1.68-.61-3.48-1.78-4.79-1.26-1.42-3-1.52-4.77-1.52-2.47,0-4.32-.65-5.55-2.91-1.08-1.97-.88-4.07-1.25-6.17-.58.5-1.14,1-1.69,1.5.16,1.25.15,2.57.47,3.79.45,1.72,1.31,3.44,2.71,4.59,1.62,1.33,3.4,1.35,5.4,1.35ZM114.1,233.67c2.02,1.42,4.61,1.15,6.5,2.93,1.97,1.85,2.27,4.44,2.67,6.97.01.09.03.18.05.27.64-.51,1.27-1.03,1.89-1.56-.23-1.52-.4-3.05-.95-4.5-.72-1.87-2.05-3.46-3.8-4.44-2.05-1.15-4.52-.93-6.07-2.93-1.48-1.9-1.78-4.38-2.32-6.65-.51-2.12-1.33-4.04-2.86-5.61-.53.63-1.04,1.27-1.54,1.92.52.57.99,1.18,1.34,1.87,1.94,3.78,1.27,9,5.11,11.71ZM99.93,231.64c.73.63,1.39,1.37,1.93,2.23,2.31,3.64,1.48,8.3,3.33,12.14.74,1.53,1.86,2.92,3.39,3.71.9.46,1.78.61,2.77.67.5.03,1.01.05,1.49.17.9-.46,1.79-.93,2.67-1.43-.05-.05-.09-.12-.14-.17-1.48-1.34-3.4-.66-5.1-1.36-2.11-.87-3.22-3-3.79-5.1-1.12-4.09-.74-8.44-3.79-11.78-.44-.48-.93-.92-1.45-1.33-.46.75-.9,1.5-1.32,2.25Z"/>
          <path class="cls-11" d="M129.63,200.63c-1.68,14.77-9.56,54.52-40.18,55.21,0,0,5.94-21.32,20.11-38.12,4.58-5.43,12.4-11.75,20.07-17.1Z"/>
        </g>
        <g>
          <path class="cls-28" d="M89.45,255.84c14.04-2.05,26.08-10.93,32.27-37.37,6.19-26.44,7.13-38.38,2.88-41-4.9-3.02-24.05,23.63-30.21,35.35-15.48,29.45-4.93,43.02-4.93,43.02Z"/>
          <path class="cls-24" d="M122.79,206.63c.48.18.95.41,1.4.67.17-.81.34-1.63.49-2.4-1.01-.6-2.13-1.02-3.36-1.18-2.22-.3-4.34.33-6.45.97-2.05.62-4.46,1.32-6.5.25-2.71-1.43-2.67-5.1-4.21-7.6-.64.9-1.27,1.8-1.88,2.7.89,1.78,1.24,4.07,2.53,5.76,2.62,3.45,7.18,2.28,10.67,1.19,2.45-.77,4.82-1.29,7.3-.36ZM122.79,192.71c1.33.05,2.61.49,3.77,1.15.09-.65.17-1.29.24-1.89-.84-.53-1.78-.91-2.81-1.07-1.01-.16-2.02-.15-3.03.06-1.16.25-2.3,1.04-3.5,1.02-2.47-.04-3.59-3.32-4.92-4.93-.09-.1-.18-.18-.27-.27-.44.52-.88,1.05-1.32,1.59.41.41.76.89,1.08,1.39,1.09,1.67,2.2,3.73,4.33,4.17,1.16.24,2.2-.19,3.26-.62,1.02-.41,2.05-.64,3.16-.6ZM116.43,224.97c1.29-.4,2.52-.58,3.69-.56.26-.88.51-1.78.76-2.7-.93-.04-1.87.03-2.8.22-3.19.63-7.05,2.92-9.91.31-1.56-1.42-2.38-3.49-3.59-5.18-1.33-1.86-3.16-3.23-5.35-3.91-1.65-.51-3.23-.48-4.85-.31-.53,1.01-1.03,2.01-1.5,2.98,2.51-.29,4.84-.39,7.15,1.27,1.98,1.42,2.95,3.63,4.29,5.59,3.19,4.66,7.35,3.78,12.11,2.3ZM87.25,231.24c1.1.5,2.1,1.24,2.9,2.22,1.35,1.66,2.05,3.74,3.25,5.5,2.47,3.62,5.9,4.67,9.93,3.02,1.63-.67,3.07-1.14,4.84-.6,1.11.34,2.14,1,3.02,1.76.5-.65.99-1.31,1.46-2.02-1.12-1.09-2.42-1.96-3.91-2.44-2.16-.7-4.06-.22-6.17.45-2.41.76-4.08.24-5.59-1.86-1.28-1.8-2-3.93-3.37-5.69-1.24-1.6-2.86-2.85-4.75-3.57-.24-.09-.47-.13-.71-.2-.35,1.19-.64,2.33-.9,3.43Z"/>
          <path class="cls-21" d="M94.38,212.82c1.11-2.12,2.66-4.73,4.46-7.57,6.07,18.77,8.02,46.14-9.4,50.59,0,0-10.55-13.57,4.93-43.02Z"/>
        </g>
        <g>
          <path class="cls-28" d="M85.82,258.75c11.84,0,15.77-16.11,14.59-29.08-1.18-12.97-9.38-37.64-14.59-37.64s-13.4,24.67-14.59,37.64c-1.18,12.97,2.75,29.08,14.59,29.08Z"/>
          <path class="cls-26" d="M85.82,258.75c11.84,0,15.77-16.11,14.59-29.08-1.18-12.97-9.38-37.64-14.59-37.64s-13.4,24.67-14.59,37.64c-1.18,12.97,2.75,29.08,14.59,29.08Z"/>
          <path class="cls-24" d="M85.75,208.91c1.89-.37,3.09-1.91,4.41-3.15,1.08-1.01,2.34-1.6,3.66-1.89-.3-.77-.61-1.52-.92-2.24-1.84.49-3.49,1.55-4.99,3.07-.72.73-1.48,1.51-2.47,1.86-1.43.5-2.3-.27-3.24-1.21-1.13-1.12-2.31-1.98-3.89-2.33-.04,0-.08,0-.12-.02-.25.61-.49,1.23-.73,1.87,1.48.26,2.91,1.02,4.13,2.32,1.13,1.21,2.47,2.06,4.19,1.72ZM76.92,223.11c3.95,3.09,7.21-1.3,9.73-3.9,2.11-2.18,4.33-2.63,6.73-.62,1.43,1.2,2.71,2.62,4.51,3.27.46.17.91.27,1.36.33-.15-.74-.31-1.48-.49-2.24-1.84-.46-3.19-1.88-4.8-3.2-3.53-2.89-6.7-1.68-9.49,1.52-1.61,1.85-4.21,5.02-6.86,3.04-1.56-1.16-2.3-3.15-3.93-4.28-.02-.01-.04-.02-.06-.03-.17.65-.33,1.3-.48,1.94,1.54,1.03,2.32,3.01,3.79,4.16ZM81.34,237.3c2.24,2.96,5.02,3.69,8.05,1.15,1.48-1.24,2.45-3,4.06-4.09,2.25-1.52,4.83-.73,7.15.18,0-.71,0-1.41-.03-2.1-1.07-.43-2.14-.83-3.29-1.03-1.81-.31-3.58-.04-5.09,1.03-1.68,1.19-2.7,3.05-4.32,4.29-.88.68-2.27,1.52-3.42,1.09-1.35-.5-2.16-2.19-3.15-3.19-1.25-1.27-2.85-2.19-4.57-2.62-2-.49-3.96-.25-5.66.57-.02.67-.04,1.34-.03,2.02,3.56-1.56,7.67-.79,10.31,2.69ZM92.57,249.37c-1.9,1.47-4.27,2.27-6.68,2-1.28-.14-2.46-.54-3.37-1.47-.66-.67-1.13-1.5-1.8-2.17-1.2-1.2-2.77-1.97-4.45-2.21-1.26-.18-2.52-.04-3.71.31.21.73.43,1.43.68,2.13,1.94-.63,3.97-.61,5.9.81,1.42,1.05,2.1,2.79,3.61,3.77,1.36.89,3.02,1.19,4.62,1.19,1.7,0,3.4-.42,4.91-1.21,1.7-.89,2.91-2.43,4.56-3.39.44-.25.9-.45,1.36-.62.33-.86.62-1.76.88-2.68-.54.06-1.09.16-1.66.35-1.96.65-3.27,1.95-4.85,3.17Z"/>
        </g>
      </g>
    </g>
  </g>
  <g id="Envelope">
    <g id="Envelope-2" data-name="Envelope">
      <g>
        <path class="cls-28" d="M239.12,346.71s0-.07,0-.1c0,0,0-.02,0-.03,0-.03,0-.06-.02-.09,0-.04,0-.08-.03-.13-.02-.05-.03-.1-.06-.15-.09-.2-.26-.39-.49-.55,0-.02-.02-.02-.02-.02-.03-.02-.05-.03-.08-.05s-.05-.04-.08-.05c0,0-.02-.02-.03-.02l-66.41-38.35s-.08-.05-.13-.07c-1.2-.66-2.54-.96-3.86-.91h-.06c-1.13.06-2.25.39-3.26.97,0,0,0,0-.02,0l-4.82,2.78-83.76,48.37-10.67,6.16s-.02.02-.03.02c-.62.49-.96,1.2-1,1.92v5.91c0,.89.43,1.76,1.3,2.27,0,0,0,0,0,0l1.05.6,65.1,37.59c.57.33,1.33.49,2.08.48.69,0,1.38-.17,1.91-.47h.02s89.56-51.71,89.56-51.71l12.99-7.5s.08-.05.12-.09l.08-.05c.41-.29.6-.64.62-1,0-.1-.02-5.39,0-5.74Z"/>
        <path class="cls-19" d="M132.52,413.11s.1.03.15.04c.17.04.34.07.52.09,0,0,0,0,0,0,.13.01.26.02.39.02.05,0,.11,0,.16,0v-5.74c-.73,0-1.46-.15-2.01-.48l-66.14-38.2c-.81-.46-1.3-1.22-1.31-2.41v5.89c0,.89.43,1.76,1.3,2.27,0,0,0,0,0,0l1.05.6,65.1,37.59c.14.08.29.15.45.21.11.04.23.07.34.1Z"/>
        <path class="cls-5" d="M239.12,352.45c-.02.36-.22.71-.62,1l-.08.05s-.08.05-.12.09l-102.56,59.21h-.02c-.53.31-1.22.47-1.91.48h-.06v-5.74c.69,0,1.44-.17,1.98-.47h.02s102.68-59.3,102.68-59.3l.08-.05c.41-.29.6-.64.62-1-.02.35,0,5.64,0,5.74Z"/>
        <path class="cls-18" d="M239.12,346.71c-.02.35-.22.71-.62,1l-.08.05-13.13,7.58-54.25,31.33-35.31,20.39h-.02c-.53.31-1.22.47-1.91.48-.75,0-1.5-.15-2.08-.48l-1.13-.66-50.68-29.27-13.28-7.66-1.05-.6s0,0,0,0c-.9-.52-1.33-1.44-1.3-2.36v-.08c.04-.73.37-1.44,1-1.92,0,0,.02-.02.03-.02l10.67-6.16,83.76-48.37,4.82-2.78s0,0,.02,0c1.01-.59,2.13-.91,3.26-.96h.06c1.32-.06,2.66.24,3.86.9.05.02.08.05.13.07l66.41,38.35s.02.02.03.02c.03.02.06.04.08.05s.05.03.08.05c0,0,.02,0,.02.02.23.16.4.35.49.55.03.05.05.1.06.15.02.05.03.09.03.13.02.04.02.07.02.09,0,.02,0,.02,0,.03,0,.03,0,.06,0,.1Z"/>
      </g>
      <g>
        <path class="cls-13" d="M109.38,372.33c-4.52,2.61-12.45,2.28-17.67-.73s-5.79-7.59-1.27-10.2c4.52-2.61,12.45-2.28,17.67.73,5.22,3.01,5.79,7.59,1.27,10.2ZM91.13,361.8c-4.19,2.42-3.66,6.66,1.18,9.46,4.84,2.8,12.19,3.1,16.38.68,4.19-2.42,3.66-6.66-1.18-9.46-4.84-2.79-12.19-3.1-16.38-.68Z"/>
        <path class="cls-13" d="M107.96,371.52l-.17.04c-8.65,1.93-17.39-3.56-17.48-3.61l-.14-.09v-.11c-.08-1.76.93-3.11,3.39-4.53,2.46-1.42,4.81-2.01,7.85-1.96h.2s.16.09.16.09c.1.05,9.6,5.1,6.26,10.09l-.06.1ZM91.14,367.68c1.13.67,8.65,4.93,16.03,3.38,2.69-4.26-4.68-8.6-5.85-9.26-2.68-.01-4.79.54-7.02,1.82-2.23,1.29-3.18,2.51-3.16,4.05Z"/>
        <path class="cls-13" d="M95.5,365.09l1,.58-.6.54,4.3,2.49c.54.31,1.08.48,1.6.49.52,0,1.01-.11,1.45-.37.45-.26.67-.54.65-.84-.01-.3-.29-.61-.84-.93l-4.3-2.49-.93.34-1-.58,2.96-1.71,1,.58-.6.54,4.3,2.49c.93.53,1.37,1.1,1.35,1.69-.03.59-.47,1.14-1.32,1.63-.85.49-1.79.75-2.82.76-1.03.01-2-.25-2.93-.78l-4.3-2.49-.93.34-1-.58.76-.44,1.43-.83.77-.44Z"/>
        <g>
          <g>
            <g>
              <polygon class="cls-13" points="111.67 374.03 110.88 374.4 108.87 373.87 109.66 373.51 111.67 374.03"/>
              <polygon class="cls-13" points="111.67 374.03 110.88 374.4 111.42 375.61 112.21 375.24 111.67 374.03"/>
            </g>
            <g>
              <polygon class="cls-13" points="109.65 374.94 108.76 375.2 106.92 374.49 107.82 374.23 109.65 374.94"/>
              <polygon class="cls-13" points="109.65 374.94 108.76 375.2 108.9 376.4 109.8 376.14 109.65 374.94"/>
            </g>
            <g>
              <polygon class="cls-13" points="107.38 375.55 106.4 375.7 104.8 374.84 105.78 374.69 107.38 375.55"/>
              <polygon class="cls-13" points="107.38 375.55 106.4 375.7 106.17 376.85 107.14 376.7 107.38 375.55"/>
            </g>
            <g>
              <polygon class="cls-13" points="104.81 375.92 103.8 375.97 102.47 374.99 103.48 374.95 104.81 375.92"/>
              <polygon class="cls-13" points="104.81 375.92 103.8 375.97 103.22 377.02 104.23 376.98 104.81 375.92"/>
            </g>
            <g>
              <polygon class="cls-13" points="102.11 376.02 101.09 375.97 100.05 374.91 101.07 374.97 102.11 376.02"/>
              <polygon class="cls-13" points="102.11 376.02 101.09 375.97 100.2 376.91 101.22 376.97 102.11 376.02"/>
            </g>
            <g>
              <polygon class="cls-13" points="99.37 375.85 98.37 375.7 97.65 374.6 98.65 374.75 99.37 375.85"/>
              <polygon class="cls-13" points="99.37 375.85 98.37 375.7 97.22 376.51 98.22 376.66 99.37 375.85"/>
            </g>
            <g>
              <polygon class="cls-13" points="96.62 375.38 95.66 375.14 95.26 374.03 96.21 374.27 96.62 375.38"/>
              <polygon class="cls-13" points="96.62 375.38 95.66 375.14 94.28 375.79 95.23 376.04 96.62 375.38"/>
            </g>
            <g>
              <polygon class="cls-13" points="93.91 374.63 93.04 374.31 92.96 373.22 93.84 373.54 93.91 374.63"/>
              <polygon class="cls-13" points="93.91 374.63 93.04 374.31 91.47 374.79 92.34 375.12 93.91 374.63"/>
            </g>
            <g>
              <polygon class="cls-13" points="91.39 373.65 90.62 373.25 90.89 372.22 91.66 372.61 91.39 373.65"/>
              <polygon class="cls-13" points="91.39 373.65 90.62 373.25 88.91 373.55 89.68 373.94 91.39 373.65"/>
            </g>
            <g>
              <polygon class="cls-13" points="89.3 372.53 88.65 372.08 89.23 371.13 89.87 371.58 89.3 372.53"/>
              <polygon class="cls-13" points="89.3 372.53 88.65 372.08 86.86 372.19 87.51 372.64 89.3 372.53"/>
            </g>
            <g>
              <polygon class="cls-13" points="87.61 371.29 87.1 370.8 87.94 369.95 88.45 370.44 87.61 371.29"/>
              <polygon class="cls-13" points="87.61 371.29 87.1 370.8 85.29 370.73 85.8 371.22 87.61 371.29"/>
            </g>
            <g>
              <polygon class="cls-13" points="86.29 369.91 85.92 369.4 86.99 368.68 87.36 369.19 86.29 369.91"/>
              <polygon class="cls-13" points="86.29 369.91 85.92 369.4 84.14 369.17 84.51 369.68 86.29 369.91"/>
            </g>
            <g>
              <polygon class="cls-13" points="85.3 368.41 85.07 367.89 86.35 367.31 86.57 367.83 85.3 368.41"/>
              <polygon class="cls-13" points="85.3 368.41 85.07 367.89 83.38 367.5 83.6 368.02 85.3 368.41"/>
            </g>
            <g>
              <polygon class="cls-13" points="84.7 366.83 84.63 366.32 86.07 365.89 86.14 366.4 84.7 366.83"/>
              <polygon class="cls-13" points="84.7 366.83 84.63 366.32 83.06 365.78 83.13 366.29 84.7 366.83"/>
            </g>
            <g>
              <polygon class="cls-13" points="84.58 365.23 84.67 364.75 86.22 364.49 86.13 364.98 84.58 365.23"/>
              <polygon class="cls-13" points="84.58 365.23 84.67 364.75 83.27 364.08 83.19 364.57 84.58 365.23"/>
            </g>
            <g>
              <polygon class="cls-13" points="85.02 363.64 85.26 363.19 86.88 363.12 86.64 363.57 85.02 363.64"/>
              <polygon class="cls-13" points="85.02 363.64 85.26 363.19 84.09 362.42 83.85 362.87 85.02 363.64"/>
            </g>
            <g>
              <polygon class="cls-13" points="86.08 362.08 86.47 361.68 88.1 361.79 87.71 362.18 86.08 362.08"/>
              <polygon class="cls-13" points="86.08 362.08 86.47 361.68 85.56 360.83 85.17 361.23 86.08 362.08"/>
            </g>
          </g>
          <g>
            <g>
              <polygon class="cls-13" points="112.32 373.65 112.95 373.2 112.05 372.04 111.41 372.49 112.32 373.65"/>
              <polygon class="cls-13" points="112.32 373.65 112.95 373.2 115.05 373.51 114.42 373.96 112.32 373.65"/>
            </g>
            <g>
              <polygon class="cls-13" points="113.9 372.49 114.35 371.97 113.12 370.92 112.67 371.43 113.9 372.49"/>
              <polygon class="cls-13" points="113.9 372.49 114.35 371.97 116.42 372.06 115.97 372.57 113.9 372.49"/>
            </g>
            <g>
              <polygon class="cls-13" points="114.96 371.18 115.21 370.61 113.72 369.69 113.46 370.25 114.96 371.18"/>
              <polygon class="cls-13" points="114.96 371.18 115.21 370.61 117.19 370.48 116.94 371.04 114.96 371.18"/>
            </g>
            <g>
              <polygon class="cls-13" points="115.6 369.7 115.67 369.11 113.98 368.34 113.91 368.93 115.6 369.7"/>
              <polygon class="cls-13" points="115.6 369.7 115.67 369.11 117.5 368.77 117.43 369.36 115.6 369.7"/>
            </g>
            <g>
              <polygon class="cls-13" points="115.77 368.14 115.67 367.55 113.84 366.95 113.95 367.54 115.77 368.14"/>
              <polygon class="cls-13" points="115.77 368.14 115.67 367.55 117.3 367.03 117.41 367.62 115.77 368.14"/>
            </g>
            <g>
              <polygon class="cls-13" points="115.47 366.56 115.21 365.98 113.3 365.56 113.57 366.14 115.47 366.56"/>
              <polygon class="cls-13" points="115.47 366.56 115.21 365.98 116.61 365.31 116.87 365.89 115.47 366.56"/>
            </g>
            <g>
              <polygon class="cls-13" points="114.66 364.96 114.24 364.42 112.32 364.18 112.74 364.73 114.66 364.96"/>
              <polygon class="cls-13" points="114.66 364.96 114.24 364.42 115.37 363.62 115.8 364.17 114.66 364.96"/>
            </g>
            <g>
              <polygon class="cls-13" points="113.36 363.4 112.8 362.9 110.91 362.85 111.47 363.36 113.36 363.4"/>
              <polygon class="cls-13" points="113.36 363.4 112.8 362.9 113.64 361.99 114.2 362.5 113.36 363.4"/>
            </g>
            <g>
              <polygon class="cls-13" points="111.66 361.95 110.97 361.5 109.18 361.66 109.86 362.1 111.66 361.95"/>
              <polygon class="cls-13" points="111.66 361.95 110.97 361.5 111.48 360.52 112.17 360.96 111.66 361.95"/>
            </g>
            <g>
              <polygon class="cls-13" points="109.72 360.74 108.94 360.37 107.3 360.7 108.08 361.07 109.72 360.74"/>
              <polygon class="cls-13" points="109.72 360.74 108.94 360.37 109.13 359.33 109.91 359.71 109.72 360.74"/>
            </g>
            <g>
              <polygon class="cls-13" points="107.57 359.76 106.73 359.47 105.26 359.96 106.1 360.25 107.57 359.76"/>
              <polygon class="cls-13" points="107.57 359.76 106.73 359.47 106.6 358.43 107.45 358.72 107.57 359.76"/>
            </g>
            <g>
              <polygon class="cls-13" points="105.19 359 104.31 358.79 103.05 359.41 103.94 359.62 105.19 359"/>
              <polygon class="cls-13" points="105.19 359 104.31 358.79 103.89 357.76 104.78 357.98 105.19 359"/>
            </g>
            <g>
              <polygon class="cls-13" points="102.58 358.43 101.69 358.3 100.68 359.04 101.58 359.17 102.58 358.43"/>
              <polygon class="cls-13" points="102.58 358.43 101.69 358.3 101.01 357.32 101.9 357.45 102.58 358.43"/>
            </g>
            <g>
              <polygon class="cls-13" points="99.84 358.08 98.96 358.04 98.22 358.87 99.11 358.91 99.84 358.08"/>
              <polygon class="cls-13" points="99.84 358.08 98.96 358.04 98.03 357.14 98.92 357.18 99.84 358.08"/>
            </g>
            <g>
              <polygon class="cls-13" points="97.08 358.01 96.24 358.06 95.8 358.96 96.64 358.91 97.08 358.01"/>
              <polygon class="cls-13" points="97.08 358.01 96.24 358.06 95.08 357.26 95.93 357.21 97.08 358.01"/>
            </g>
            <g>
              <polygon class="cls-13" points="94.32 358.27 93.54 358.41 93.41 359.35 94.19 359.21 94.32 358.27"/>
              <polygon class="cls-13" points="94.32 358.27 93.54 358.41 92.2 357.73 92.98 357.59 94.32 358.27"/>
            </g>
            <g>
              <polygon class="cls-13" points="91.62 358.88 90.93 359.1 91.12 360.05 91.8 359.82 91.62 358.88"/>
              <polygon class="cls-13" points="91.62 358.88 90.93 359.1 89.46 358.58 90.14 358.36 91.62 358.88"/>
            </g>
          </g>
          <g>
            <polygon class="cls-13" points="89.16 359.52 87.52 359.71 87.19 360.66 88.83 360.47 89.16 359.52"/>
            <polygon class="cls-13" points="89.16 359.52 87.19 360.66 88.83 360.47 89.16 359.52"/>
          </g>
        </g>
      </g>
      <path class="cls-13" d="M144.94,338.47l-28.3,16.35c-.75.43-2.07.38-2.94-.12h0c-.87-.5-.96-1.26-.21-1.7l28.3-16.35c.75-.43,2.07-.38,2.94.12h0c.87.5.96,1.26.21,1.7Z"/>
      <path class="cls-13" d="M152,342.55l-28.3,16.35c-.75.43-2.07.38-2.94-.12h0c-.87-.5-.96-1.26-.21-1.7l28.3-16.35c.75-.43,2.07-.38,2.94.12h0c.87.5.96,1.26.21,1.7Z"/>
      <path class="cls-13" d="M189.94,340.4l-56.61,32.69c-.75.43-2.07.38-2.94-.12h0c-.87-.5-.96-1.26-.21-1.7l56.61-32.69c.75-.43,2.07-.38,2.94.12h0c.87.5.96,1.26.21,1.7Z"/>
      <path class="cls-13" d="M196.99,344.48l-56.61,32.69c-.75.43-2.07.38-2.94-.12h0c-.87-.5-.96-1.26-.21-1.7l56.61-32.69c.75-.43,2.07-.38,2.94.12h0c.87.5.96,1.26.21,1.7Z"/>
    </g>
  </g>
  <g id="Letter">
    <polygon id="Shadow-5" data-name="Shadow" class="cls-11" points="307.72 418.05 150.33 327.18 280.48 252.05 437.86 342.91 307.72 418.05"/>
    <g id="Sheet">
      <path class="cls-28" d="M278.44,218.07l-2.8-1.62-126.05,72.78v1.62c0,19.95,10.74,38.55,28.02,48.53l130.08,75.1,126.04-72.77v-3.24s-128.67-74.29-128.67-74.29c-16.46-9.51-26.62-27.08-26.61-46.11Z"/>
      <polygon class="cls-4" points="307.69 411.24 433.73 338.47 433.73 341.71 307.68 414.48 307.69 411.24"/>
      <polygon class="cls-26" points="152.39 290.85 149.59 289.23 275.63 216.45 278.44 218.07 152.39 290.85"/>
      <g>
        <path class="cls-28" d="M433.73,338.47l-128.68-74.29c-16.46-9.51-26.62-27.08-26.61-46.11l-126.05,72.78c0,19.01,10.15,36.59,26.62,46.1l128.68,74.29,126.04-72.77h0Z"/>
        <path class="cls-15" d="M181.4,332.81c-14.14-8.17-23.23-23.03-24.15-39.24l116.96-67.53c2.45,17.55,12.92,33.32,28.45,42.29l121.5,70.15-116.48,67.25-126.29-72.91Z"/>
      </g>
      <path class="cls-11" d="M179.01,336.95l128.68,74.29v3.24s-130.08-75.1-130.08-75.1c-17.28-9.98-28.02-28.58-28.02-48.53v-1.62s2.81,1.62,2.81,1.62c0,19.01,10.15,36.59,26.62,46.1Z"/>
    </g>
    <g id="Text">
      <g>
        <path class="cls-9" d="M243.21,254.94l24.55-14.17c.89-.51,1.85-.29,2.15.5.3.79-.18,1.85-1.07,2.37l-24.55,14.17c-.89.51-1.86.29-2.15-.5-.3-.79.18-1.85,1.07-2.37Z"/>
        <path class="cls-9" d="M186.07,306.82l51.27-29.51c.89-.51,1.86-.29,2.15.5.3.79-.18,1.85-1.07,2.37l-51.27,29.51c-.89.51-1.86.29-2.15-.5s.18-1.85,1.07-2.37Z"/>
        <path class="cls-9" d="M194.32,319.26l84.54-48.81c.89-.51,2.29-.54,3.13-.06.84.48.79,1.29-.1,1.81l-84.55,48.81c-.89.51-2.29.54-3.13.06s-.79-1.29.1-1.81Z"/>
        <path class="cls-9" d="M200.37,322.76l84.54-48.81c.89-.51,2.29-.54,3.13-.06.84.48.79,1.29-.1,1.81l-84.55,48.81c-.89.51-2.29.54-3.13.06-.84-.48-.79-1.29.1-1.81Z"/>
        <path class="cls-9" d="M242.74,347.22l84.54-48.81c.89-.51,2.29-.54,3.13-.06.84.48.79,1.29-.1,1.81l-84.55,48.81c-.89.51-2.29.54-3.13.06-.84-.48-.79-1.29.1-1.81Z"/>
        <path class="cls-9" d="M248.8,350.71l84.54-48.81c.89-.51,2.29-.54,3.13-.06.84.48.79,1.29-.1,1.81l-84.55,48.81c-.89.51-2.29.54-3.13.06-.84-.48-.79-1.29.1-1.81Z"/>
        <path class="cls-9" d="M260.9,357.71l84.54-48.81c.89-.51,2.29-.54,3.13-.06.84.48.79,1.29-.1,1.81l-84.55,48.81c-.89.51-2.29.54-3.13.06s-.79-1.29.1-1.81Z"/>
        <path class="cls-9" d="M266.95,361.2l84.54-48.81c.89-.51,2.29-.54,3.13-.06.84.48.79,1.29-.1,1.81l-84.55,48.81c-.89.51-2.29.54-3.13.06-.84-.48-.79-1.29.1-1.81Z"/>
        <path class="cls-9" d="M282.09,369.94l44.95-25.95c.89-.51,2.29-.54,3.13-.06.84.48.79,1.29-.1,1.81l-44.95,25.95c-.89.51-2.29.54-3.13.06s-.79-1.29.1-1.81Z"/>
        <path class="cls-9" d="M288.39,373.28l44.95-25.95c.89-.51,2.29-.54,3.13-.06.84.48.79,1.29-.1,1.81l-44.95,25.95c-.89.51-2.29.54-3.13.06-.84-.48-.79-1.29.1-1.81Z"/>
      </g>
    </g>
    <g>
      <path class="cls-28" d="M376.55,343.77c-6.1,3.52-16.78,3.08-23.82-.99-7.04-4.06-7.81-10.23-1.71-13.75,6.1-3.52,16.78-3.08,23.82.99,7.04,4.06,7.81,10.23,1.71,13.75ZM351.95,329.56c-5.65,3.26-4.94,8.98,1.59,12.75,6.53,3.77,16.44,4.18,22.09.92,5.65-3.26,4.94-8.98-1.59-12.75-6.53-3.77-16.43-4.18-22.09-.92Z"/>
      <path class="cls-28" d="M374.65,342.67l-.22.05c-11.66,2.6-23.45-4.8-23.57-4.87l-.19-.12v-.15c-.11-2.37,1.25-4.19,4.57-6.11,3.32-1.91,6.48-2.7,10.58-2.64h.27s.21.12.21.12c.13.07,12.94,6.88,8.44,13.61l-.09.13ZM351.97,337.5c1.52.91,11.66,6.65,21.61,4.55,3.63-5.74-6.31-11.6-7.88-12.48-3.62-.02-6.46.72-9.47,2.46-3.01,1.74-4.29,3.38-4.26,5.47Z"/>
      <path class="cls-28" d="M357.84,334l1.34.78-.8.73,5.8,3.35c.73.42,1.45.64,2.16.65.71.01,1.36-.15,1.95-.5.6-.35.9-.73.88-1.13-.02-.41-.4-.82-1.13-1.25l-5.8-3.35-1.25.46-1.34-.78,3.99-2.3,1.34.78-.8.73,5.8,3.35c1.25.72,1.85,1.48,1.82,2.28-.03.8-.63,1.54-1.78,2.2-1.15.66-2.42,1.01-3.8,1.02-1.38.02-2.7-.33-3.95-1.05l-5.8-3.35-1.25.46-1.34-.78,1.02-.59,1.93-1.11,1.03-.6Z"/>
      <g>
        <g>
          <g>
            <polygon class="cls-28" points="379.64 346.06 378.58 346.55 375.87 345.84 376.93 345.35 379.64 346.06"/>
            <polygon class="cls-28" points="379.64 346.06 378.58 346.55 379.31 348.18 380.36 347.69 379.64 346.06"/>
          </g>
          <g>
            <polygon class="cls-28" points="376.92 347.29 375.71 347.63 373.24 346.68 374.45 346.33 376.92 347.29"/>
            <polygon class="cls-28" points="376.92 347.29 375.71 347.63 375.9 349.25 377.12 348.9 376.92 347.29"/>
          </g>
          <g>
            <polygon class="cls-28" points="373.85 348.11 372.54 348.31 370.38 347.15 371.7 346.95 373.85 348.11"/>
            <polygon class="cls-28" points="373.85 348.11 372.54 348.31 372.22 349.85 373.54 349.65 373.85 348.11"/>
          </g>
          <g>
            <polygon class="cls-28" points="370.4 348.61 369.03 348.67 367.23 347.35 368.6 347.29 370.4 348.61"/>
            <polygon class="cls-28" points="370.4 348.61 369.03 348.67 368.24 350.09 369.61 350.03 370.4 348.61"/>
          </g>
          <g>
            <polygon class="cls-28" points="366.75 348.75 365.37 348.66 363.98 347.24 365.36 347.32 366.75 348.75"/>
            <polygon class="cls-28" points="366.75 348.75 365.37 348.66 364.18 349.94 365.56 350.02 366.75 348.75"/>
          </g>
          <g>
            <polygon class="cls-28" points="363.07 348.51 361.72 348.3 360.73 346.82 362.08 347.03 363.07 348.51"/>
            <polygon class="cls-28" points="363.07 348.51 361.72 348.3 360.16 349.39 361.51 349.6 363.07 348.51"/>
          </g>
          <g>
            <polygon class="cls-28" points="359.35 347.88 358.06 347.55 357.52 346.05 358.8 346.38 359.35 347.88"/>
            <polygon class="cls-28" points="359.35 347.88 358.06 347.55 356.2 348.43 357.48 348.76 359.35 347.88"/>
          </g>
          <g>
            <polygon class="cls-28" points="355.7 346.87 354.52 346.43 354.42 344.96 355.6 345.4 355.7 346.87"/>
            <polygon class="cls-28" points="355.7 346.87 354.52 346.43 352.4 347.08 353.58 347.52 355.7 346.87"/>
          </g>
          <g>
            <polygon class="cls-28" points="352.3 345.54 351.27 345.01 351.62 343.61 352.66 344.15 352.3 345.54"/>
            <polygon class="cls-28" points="352.3 345.54 351.27 345.01 348.96 345.4 350 345.94 352.3 345.54"/>
          </g>
          <g>
            <polygon class="cls-28" points="349.48 344.04 348.61 343.43 349.38 342.15 350.25 342.75 349.48 344.04"/>
            <polygon class="cls-28" points="349.48 344.04 348.61 343.43 346.2 343.57 347.07 344.18 349.48 344.04"/>
          </g>
          <g>
            <polygon class="cls-28" points="347.2 342.36 346.51 341.7 347.65 340.56 348.34 341.22 347.2 342.36"/>
            <polygon class="cls-28" points="347.2 342.36 346.51 341.7 344.08 341.61 344.77 342.26 347.2 342.36"/>
          </g>
          <g>
            <polygon class="cls-28" points="345.42 340.51 344.92 339.82 346.37 338.84 346.87 339.53 345.42 340.51"/>
            <polygon class="cls-28" points="345.42 340.51 344.92 339.82 342.53 339.5 343.03 340.19 345.42 340.51"/>
          </g>
          <g>
            <polygon class="cls-28" points="344.09 338.48 343.78 337.78 345.5 337 345.8 337.69 344.09 338.48"/>
            <polygon class="cls-28" points="344.09 338.48 343.78 337.78 341.5 337.25 341.8 337.95 344.09 338.48"/>
          </g>
          <g>
            <polygon class="cls-28" points="343.28 336.35 343.19 335.66 345.12 335.08 345.22 335.77 343.28 336.35"/>
            <polygon class="cls-28" points="343.28 336.35 343.19 335.66 341.07 334.93 341.17 335.62 343.28 336.35"/>
          </g>
          <g>
            <polygon class="cls-28" points="343.12 334.2 343.23 333.54 345.33 333.2 345.22 333.85 343.12 334.2"/>
            <polygon class="cls-28" points="343.12 334.2 343.23 333.54 341.36 332.64 341.24 333.3 343.12 334.2"/>
          </g>
          <g>
            <polygon class="cls-28" points="343.71 332.05 344.04 331.44 346.22 331.34 345.9 331.95 343.71 332.05"/>
            <polygon class="cls-28" points="343.71 332.05 344.04 331.44 342.46 330.4 342.13 331.01 343.71 332.05"/>
          </g>
          <g>
            <polygon class="cls-28" points="345.14 329.94 345.66 329.41 347.86 329.55 347.34 330.09 345.14 329.94"/>
            <polygon class="cls-28" points="345.14 329.94 345.66 329.41 344.44 328.26 343.92 328.79 345.14 329.94"/>
          </g>
        </g>
        <g>
          <g>
            <polygon class="cls-28" points="380.52 345.55 381.37 344.94 380.15 343.37 379.3 343.98 380.52 345.55"/>
            <polygon class="cls-28" points="380.52 345.55 381.37 344.94 384.19 345.36 383.34 345.97 380.52 345.55"/>
          </g>
          <g>
            <polygon class="cls-28" points="382.65 343.98 383.25 343.28 381.59 341.86 380.99 342.56 382.65 343.98"/>
            <polygon class="cls-28" points="382.65 343.98 383.25 343.28 386.04 343.39 385.44 344.09 382.65 343.98"/>
          </g>
          <g>
            <polygon class="cls-28" points="384.07 342.21 384.42 341.45 382.41 340.2 382.06 340.96 384.07 342.21"/>
            <polygon class="cls-28" points="384.07 342.21 384.42 341.45 387.09 341.27 386.74 342.03 384.07 342.21"/>
          </g>
          <g>
            <polygon class="cls-28" points="384.94 340.21 385.04 339.42 382.75 338.39 382.66 339.18 384.94 340.21"/>
            <polygon class="cls-28" points="384.94 340.21 385.04 339.42 387.5 338.97 387.41 339.76 384.94 340.21"/>
          </g>
          <g>
            <polygon class="cls-28" points="385.17 338.11 385.03 337.31 382.57 336.51 382.71 337.3 385.17 338.11"/>
            <polygon class="cls-28" points="385.17 338.11 385.03 337.31 387.24 336.62 387.38 337.42 385.17 338.11"/>
          </g>
          <g>
            <polygon class="cls-28" points="384.77 335.98 384.41 335.2 381.84 334.64 382.2 335.41 384.77 335.98"/>
            <polygon class="cls-28" points="384.77 335.98 384.41 335.2 386.3 334.3 386.66 335.08 384.77 335.98"/>
          </g>
          <g>
            <polygon class="cls-28" points="383.67 333.83 383.11 333.09 380.51 332.78 381.08 333.52 383.67 333.83"/>
            <polygon class="cls-28" points="383.67 333.83 383.11 333.09 384.64 332.02 385.2 332.76 383.67 333.83"/>
          </g>
          <g>
            <polygon class="cls-28" points="381.92 331.73 381.17 331.05 378.62 330.99 379.37 331.67 381.92 331.73"/>
            <polygon class="cls-28" points="381.92 331.73 381.17 331.05 382.29 329.83 383.05 330.51 381.92 331.73"/>
          </g>
          <g>
            <polygon class="cls-28" points="379.63 329.77 378.7 329.17 376.28 329.37 377.21 329.97 379.63 329.77"/>
            <polygon class="cls-28" points="379.63 329.77 378.7 329.17 379.39 327.84 380.31 328.44 379.63 329.77"/>
          </g>
          <g>
            <polygon class="cls-28" points="377.02 328.14 375.97 327.63 373.74 328.08 374.8 328.58 377.02 328.14"/>
            <polygon class="cls-28" points="377.02 328.14 375.97 327.63 376.21 326.24 377.26 326.74 377.02 328.14"/>
          </g>
          <g>
            <polygon class="cls-28" points="374.11 326.82 372.98 326.42 371 327.08 372.14 327.48 374.11 326.82"/>
            <polygon class="cls-28" points="374.11 326.82 372.98 326.42 372.81 325.02 373.95 325.42 374.11 326.82"/>
          </g>
          <g>
            <polygon class="cls-28" points="370.9 325.79 369.71 325.5 368.03 326.34 369.22 326.63 370.9 325.79"/>
            <polygon class="cls-28" points="370.9 325.79 369.71 325.5 369.16 324.12 370.35 324.41 370.9 325.79"/>
          </g>
          <g>
            <polygon class="cls-28" points="367.39 325.02 366.18 324.85 364.82 325.84 366.03 326.02 367.39 325.02"/>
            <polygon class="cls-28" points="367.39 325.02 366.18 324.85 365.26 323.53 366.47 323.7 367.39 325.02"/>
          </g>
          <g>
            <polygon class="cls-28" points="363.7 324.56 362.51 324.5 361.51 325.62 362.71 325.68 363.7 324.56"/>
            <polygon class="cls-28" points="363.7 324.56 362.51 324.5 361.25 323.28 362.45 323.34 363.7 324.56"/>
          </g>
          <g>
            <polygon class="cls-28" points="359.98 324.46 358.83 324.53 358.24 325.74 359.38 325.68 359.98 324.46"/>
            <polygon class="cls-28" points="359.98 324.46 358.83 324.53 357.28 323.45 358.42 323.38 359.98 324.46"/>
          </g>
          <g>
            <polygon class="cls-28" points="356.25 324.81 355.2 324.99 355.03 326.26 356.08 326.07 356.25 324.81"/>
            <polygon class="cls-28" points="356.25 324.81 355.2 324.99 353.4 324.08 354.45 323.9 356.25 324.81"/>
          </g>
          <g>
            <polygon class="cls-28" points="352.6 325.63 351.68 325.93 351.93 327.2 352.86 326.9 352.6 325.63"/>
            <polygon class="cls-28" points="352.6 325.63 351.68 325.93 349.69 325.23 350.62 324.93 352.6 325.63"/>
          </g>
        </g>
        <g>
          <polygon class="cls-28" points="349.3 326.5 347.08 326.75 346.64 328.03 348.86 327.78 349.3 326.5"/>
          <polygon class="cls-28" points="349.3 326.5 346.64 328.03 348.86 327.78 349.3 326.5"/>
        </g>
      </g>
    </g>
    <path class="cls-22" d="M348.51,360.09c-6.01,2.86-11.5,6.03-16.62,9.42-.51.34-1.02.68-1.52,1.02-1.2-2.47-2.39-4.94-3.59-7.41-.05-.31-.1-.62-.17-.93-.43-2.11-.98-4.26-2.04-6.35-.57-1.12-1.33-2.21-2.49-3.22-.25-.22-1.2-.28-1.09.06.62,1.95,1.54,3.88,2.48,5.81.73,1.51,1.46,3.03,2.19,4.54.1.53.18,1.06.25,1.59.07.57.15,1.14.16,1.7,0,.36-.05.72-.27,1.03-.37-.3-.73-.59-1.1-.89-.2-.16-.71-.19-.93-.1-.47-.3-.98-.58-1.52-.83-.24-.11-.98-.18-.94.08.26,1.54.37,3.08.33,4.61-.78-.74-1.42-1.53-1.91-2.34-.18-.3-1.21-.28-1.06.06.55,1.28.82,2.57.79,3.84-.01.65-.1,1.29-.28,1.92-.12.43-.38,1.33-1.41,1.27-.66-.04-1.21-.45-1.58-.81.91-2.18,1.38-4.53.91-6.86-.12-.63-.33-1.25-.6-1.87-.04-.09-.27-.17-.41-.18-1.15-.14-1.83.28-2.22.82-.43.58-.7,1.23-.85,1.87-.32,1.31-.16,2.68.49,4.03.32.67.76,1.33,1.32,1.97.07.08.14.15.21.23-.77,1.87-2,3.68-4.23,5.03-.67.4-1.43.75-2.28,1.03-.74.24-1.69.54-2.65.43-.02,0-.04,0-.07-.01,2.96-2.6,4.68-5.78,5.6-8.91.67-2.3.86-4.69.3-7.11-.27-1.17-.72-2.34-1.37-3.49-.62-1.1-1.36-2.43-2.89-3.3-1.78-1.01-3.96-.65-5.41.07-1.66.83-2.52,2.06-3.05,3.32-1,2.41-1.26,5.02-1.05,7.58.21,2.58.92,5.24,2.33,7.79.7,1.26,1.67,2.62,3.23,3.67.26.18.55.33.86.47-1.12.93-2.41,1.78-3.91,2.51-.75.36-1.55.69-2.4.99-.37.13.44.5.78.38,2.62-.92,4.76-2.15,6.5-3.58.26.05.54.09.82.1,1.03.04,1.97-.18,2.81-.43,3.8-1.15,5.81-3.49,6.93-5.86.3.19.65.35,1.05.47,1.06.3,2.18.12,2.73-.38.61-.55.7-1.3.8-1.98.15-.93.13-1.89-.05-2.84.39.38.81.76,1.27,1.12.24.19,1.01.24,1.02-.03.09-1.62.01-3.25-.22-4.89.73.42,1.36.89,1.89,1.4.16.15.64.21.88.12.05.04.09.08.14.12.21.18.74.21.95.07.76-.5.86-1.19.82-1.89.79,1.64,1.59,3.29,2.38,4.93-4.26,2.92-8.29,5.97-12.22,9.05-1.31,1.03-2.6,2.06-3.89,3.09-.63.51-1.26,1.01-1.89,1.52-.32.26-.64.52-.96.78-.14.12-.29.23-.43.35-.05.04-.32.22-.43.36-.11-.03-.23-.05-.34-.04-.81.05-.29.62.37.65.38.02.63-.1.83-.25.36-.28.7-.56,1.05-.84,1.23-.98,2.45-1.97,3.69-2.95,2.47-1.97,4.97-3.93,7.52-5.87,2.29-1.74,4.64-3.45,7.06-5.12.73,1.51,1.45,3.01,2.18,4.52.53,1.1,1.05,2.21,1.6,3.31.48.95,1.08,1.9,2.3,2.67.39.24,1.39.06.92-.23-1.09-.69-1.65-1.54-2.09-2.39-.49-.95-.93-1.91-1.4-2.87-.9-1.86-1.8-3.72-2.71-5.58,2.67-1.82,5.43-3.6,8.32-5.31,3.27-1.93,6.7-3.79,10.34-5.5.43-.2-.53-.51-.88-.35ZM322.98,355c.67,1.05,1.09,2.15,1.45,3.23-.51-1.07-1.01-2.15-1.45-3.23ZM314.79,372.32c-.63-1.12-.89-2.29-.81-3.41.05-.63.22-1.25.5-1.84.14-.29.29-.59.51-.86.09-.12.29-.36.55-.46.95,2.36.7,4.74.01,6.98-.05.17-.11.34-.16.51-.22-.3-.42-.61-.6-.92ZM303.54,379.36c-.63-.57-1.13-1.17-1.56-1.79-.84-1.21-1.38-2.47-1.83-3.72-.43-1.2-.73-2.41-.92-3.61-.38-2.45-.28-4.88.34-7.23.32-1.24.74-2.51,1.75-3.57.49-.51,1.12-.98,1.94-1.33.74-.31,1.75-.62,2.76-.28.87.29,1.46.86,1.89,1.35.46.54.83,1.1,1.17,1.66.66,1.08,1.13,2.19,1.43,3.3.61,2.24.55,4.47.05,6.62-.54,2.32-1.58,4.58-3.09,6.68-.73,1.01-1.59,1.98-2.61,2.89-.54-.27-.97-.66-1.31-.98ZM344.26,355.18c-.27.34-.59.69-1.08.93-.64.32-1.33.26-2.04-.14-.67-.39-1.25-.85-1.82-1.28-.66-.51-1.28-1.03-1.83-1.58-.19-.18-1.1-.34-.99-.02.8,2.2,1.86,4.55,1.28,6.71-.17.63-1.08,2.58-2.83,1.68-.45-.23-.81-.53-1.13-.83.19-1.18.03-2.42-.3-3.64-.32-1.21-.7-2.49-1.45-3.67-.37-.58-.86-1.14-1.56-1.63-.54-.38-1.47-.72-2.13-.37-.61.32-.41.96-.34,1.42.09.61.25,1.22.46,1.83.42,1.2,1.08,2.4,1.96,3.55.42.56.89,1.11,1.41,1.65.29.3.59.6.91.9-.17.91-.56,1.79-1.28,2.6-.19.22.71.51.91.29.62-.68,1.01-1.41,1.23-2.17.62.44,1.45.8,2.4.78.91-.02,1.56-.37,1.98-.78,1.12-1.11,1.12-2.59.91-3.93-.15-1.02-.49-2.04-.89-3.05.27.22.53.44.8.65.69.54,1.42,1.24,2.48,1.57,1.88.57,3.29-.34,3.89-1.18.2-.27-.78-.52-.97-.28ZM331.98,358.74c-1.7-2.02-2.72-4.2-2.94-6.32-.02-.21-.04-.42.09-.61.02-.03.07-.1.12-.12.03-.02.05-.02.07-.03.19.05.5.32.59.4.6.47,1,1,1.3,1.54.57,1.02.91,2.09,1.21,3.13.29,1,.48,2.01.46,3-.32-.33-.62-.65-.9-.99ZM347.65,354.86c-.4.23.55.54.86.36.4-.23-.55-.54-.86-.36Z"/>
    <path class="cls-28" d="M292.01,281.35l-78.44,45.29,24.5,14.14,78.44-45.29-24.5-14.14ZM217.24,326.64l74.77-43.17,20.82,12.02-74.77,43.17-20.82-12.02ZM251.64,321.97c-.36-.41-.85-.82-1.48-1.23-.75-.47-1.53-.92-2.34-1.35-.7-.36-1.41-.65-2.13-.86-.72-.21-1.43-.33-2.15-.35-.71-.03-1.42.04-2.13.21-.7.17-1.39.45-2.07.84l-3.39,1.96c-.1.06-.14.13-.13.22.01.09.08.17.19.24l10.23,5.9c.11.07.25.1.41.11.16,0,.29-.02.39-.08l3.45-1.99c.66-.38,1.13-.77,1.41-1.17.28-.4.4-.81.35-1.22-.05-.41-.26-.82-.62-1.23ZM249.24,323.82c-.15.23-.42.45-.79.67l-1.91,1.1-7.12-4.11,1.84-1.06c.39-.23.79-.39,1.2-.48.4-.09.81-.13,1.21-.11.4.02.8.08,1.19.19.39.11.76.26,1.11.45.82.43,1.6.88,2.34,1.35.32.21.58.42.78.65.2.23.31.45.34.68.03.23-.03.46-.19.68ZM245,328.27s-.08-.04-.12-.06l-13.36-3.84c-.23-.07-.43-.11-.6-.12-.16,0-.32.03-.46.11l-1.51.87c-.15.08-.21.17-.19.27.02.09.09.21.21.34l6.65,7.72s.05.05.1.07c.12.07.25.1.41.11.16,0,.29-.02.39-.08l.99-.57c.18-.11.27-.21.25-.3-.02-.09-.05-.17-.11-.24l-1.17-1.35,4.33-2.5,2.35.67c.11.03.25.05.41.06.16.01.34-.04.52-.14l.99-.57c.1-.06.15-.13.13-.22-.01-.09-.07-.17-.19-.24ZM235.14,329.69l-3-3.48,6.02,1.73-3.02,1.74ZM264.89,316.79l-10.23-5.9c-.12-.07-.25-.1-.41-.11-.16,0-.29.02-.39.08l-.93.54c-.18.11-.26.22-.23.33.03.12.05.2.07.25l2.62,4.52-7.83-1.51c-.09,0-.24-.02-.44-.04-.2-.02-.4.03-.58.13l-.93.54c-.1.06-.15.13-.13.22.01.09.08.17.19.24l10.23,5.9c.12.07.25.1.41.11.16,0,.29-.02.39-.08l1.11-.64c.1-.06.14-.13.13-.22-.01-.09-.07-.17-.19-.24l-6.19-3.57,5.34,1.03c.13.02.28.04.45.04.17,0,.32-.03.45-.1l.71-.41c.13-.07.19-.16.18-.26,0-.1-.03-.19-.07-.26l-1.78-3.09,6.19,3.57c.12.07.25.1.41.11.16,0,.29-.02.39-.08l1.11-.64c.1-.06.14-.13.13-.22-.01-.09-.08-.17-.19-.24ZM294.03,299.96l-1.12-.65c-.12-.07-.25-.1-.41-.11-.16,0-.29.02-.39.08l-4.54,2.62-2.63-1.52,4.13-2.38c.1-.06.14-.13.13-.22-.01-.09-.08-.17-.19-.24l-1.12-.65c-.12-.07-.25-.1-.41-.11-.16,0-.29.02-.39.08l-4.13,2.38-2.52-1.45,4.43-2.56c.1-.06.15-.13.13-.22-.01-.09-.07-.17-.19-.24l-1.12-.65c-.12-.07-.25-.1-.41-.11-.16,0-.29.02-.39.08l-5.91,3.41c-.1.06-.15.13-.13.22.01.09.07.17.19.24l10.23,5.9c.12.07.25.1.41.11.16,0,.29-.02.39-.08l6.02-3.48c.1-.06.14-.13.13-.22-.01-.09-.08-.17-.19-.24ZM283.06,306.29l-8.67-5.01,2.47-1.42c.1-.06.15-.13.13-.22-.01-.09-.07-.17-.19-.24l-1.12-.65c-.12-.07-.25-.1-.41-.11-.16,0-.29.02-.39.08l-6.79,3.92c-.1.06-.14.13-.13.22.01.09.08.17.19.24l1.12.65c.12.07.25.1.41.11.16,0,.29-.02.39-.08l2.47-1.42,8.67,5.01c.12.07.25.1.41.11.16,0,.29-.02.39-.08l1.11-.64c.1-.06.14-.13.13-.22-.01-.09-.08-.17-.19-.24ZM301.74,294.63c-.05-.41-.26-.82-.62-1.23-.36-.41-.85-.82-1.48-1.23-.75-.47-1.53-.92-2.34-1.35-.7-.36-1.41-.65-2.13-.86s-1.43-.33-2.15-.35c-.71-.03-1.42.04-2.13.21s-1.39.45-2.07.84l-3.39,1.96c-.1.06-.14.13-.13.22.01.09.08.17.19.24l10.23,5.9c.12.07.25.1.41.11.16,0,.29-.02.39-.08l3.45-1.99c.66-.38,1.13-.77,1.41-1.17.28-.4.4-.81.35-1.22ZM298.73,295.25c-.15.23-.42.45-.79.67l-1.91,1.1-7.12-4.11,1.84-1.06c.39-.23.79-.39,1.2-.48.4-.09.81-.13,1.21-.11.4.02.8.08,1.19.19.39.11.76.26,1.11.45.82.43,1.6.88,2.34,1.35.32.21.58.42.78.65.2.23.31.45.34.68.03.23-.03.46-.19.68ZM268.88,314.48l-10.23-5.9c-.11-.07-.25-.1-.41-.11-.16,0-.29.02-.39.08l-1.11.64c-.1.06-.15.13-.13.22.01.09.07.17.19.24l10.23,5.9c.12.07.25.1.41.11.16,0,.29-.02.39-.08l1.11-.64c.1-.06.14-.13.13-.22-.01-.09-.08-.17-.19-.24ZM274.94,310.99l-8.67-5.01,2.47-1.42c.1-.06.15-.13.13-.22-.01-.09-.07-.17-.19-.24l-1.12-.65c-.12-.07-.25-.1-.41-.11-.16,0-.29.02-.39.08l-6.79,3.92c-.1.06-.15.13-.13.22.01.09.08.17.19.24l1.12.65c.12.07.25.1.41.11.16,0,.29-.02.39-.08l2.47-1.42,8.67,5.01c.12.07.25.1.41.11.16,0,.29-.02.39-.08l1.11-.64c.1-.06.15-.13.13-.22-.01-.09-.08-.17-.19-.24Z"/>
  </g>
  <g id="Pen">
    <g id="Pen-2" data-name="Pen">
      <path id="Shadow-6" data-name="Shadow" class="cls-11" d="M273.53,417.02l-7.82-8.88h0s0,0,0,0h0l-58.88-34.11s0,0,0,0l-1.66-.96-2.7-1.56-.19-.11s.04.01.06.03l-2.6-1.49s0,0,0-.01l-10.62-6.12c-2.05-1.4-5.13,1.44-6.32,4.31,0,0,0,0,0,0-.19.45-.33.9-.42,1.34-.23,1.19-.03,2.26.85,2.87l8.66,4.99,2.35,1.36s0,.02.02.02l1.94,1.12.18.1,2.25,1.3h0s.06.05.09.07l1.89,1.07,59.89,34.69s0,0,0,0c0,0,0,0,0,0l11.4,2.26,3.1.61c.16.03.3-.02.39-.11.16-.15.21-.42.03-.62l-1.9-2.15Z"/>
      <g id="Pencil">
        <path class="cls-22" d="M192.77,373.53l1.07.61,1.28.74,66.85,38.7c-.4-.89-.09-2.68.83-4.4,1.06-2,2.69-3.58,3.87-3.64l-66.51-38.51-2.46-1.41c1.54,1-3.37,8.88-4.93,7.89Z"/>
        <g>
          <path class="cls-20" d="M200.04,366.98l-2.38-1.36c-.68-.42-1.96.8-3.08,2.41-1.5,2.13-2.71,4.96-1.82,5.51l1.75,1.01.63.35c-.9-.55.32-3.38,1.82-5.51,1.08-1.54,2.31-2.72,3-2.44h0s.05.02.07.04Z"/>
          <path class="cls-28" d="M199.44,366.65c-1.57-.97-6.47,6.94-4.9,7.91l2.38,1.37c-1.57-.97,3.33-8.89,4.9-7.91l-2.38-1.37Z"/>
          <path class="cls-20" d="M204.09,369.32l-2.35-1.35c-1.53-.97-6.34,6.63-5.04,7.84.02.02.05.04.08.07l2.38,1.34c-1.54-1,3.37-8.88,4.93-7.89Z"/>
        </g>
        <path class="cls-16" d="M197.69,365.63v.02s-.03-.02-.03-.02c-.67-.43-1.95.79-3.08,2.41-1.48,2.09-2.69,4.86-1.86,5.47l-9.92-5.7c-.8-.55-.98-1.52-.77-2.59.55-2.89,3.94-6.56,6.08-5.1l9.59,5.51Z"/>
        <g>
          <path class="cls-16" d="M272.99,413.96c-.82,1.11-.74,1.66-.74,1.66l-10.29-2.03c-1.02-1.56-.35-4.09,1.06-5.9l.45.25,9.51,6.01Z"/>
          <path class="cls-8" d="M275.06,416.16l-2.8-.55s-.13-.54.74-1.66l2.44,1.54h0c.16.18.12.42-.03.56-.09.08-.21.13-.35.1Z"/>
          <path class="cls-12" d="M266.66,405.55h0s0,0,0,0l7.06,8.01c-.28.05-.54.19-.73.4l-9.51-6.01-.45-.25c.96-1.23,2.27-2.12,3.63-2.14Z"/>
          <path class="cls-22" d="M272.99,413.96c.19-.28.59-.42.73-.4l1.71,1.94-2.44-1.54Z"/>
        </g>
        <path class="cls-11" d="M263.03,407.69l-80-44.89c-.49.78-.85,1.62-1,2.41-.21,1.08-.02,2.04.77,2.59l9.96,5.73,1.07.61,1.28.74,66.85,38.7c-1.25-1.94.12-4.8,1.06-5.9Z"/>
      </g>
    </g>
  </g>
  <g id="Speech_Bubble" data-name="Speech Bubble">
    <g id="Speech_Bubble-2" data-name="Speech Bubble">
      <g id="Speech_Bubble-3" data-name="Speech Bubble">
        <g>
          <path class="cls-28" d="M58.24,113.16l1-3.11c.54-2.51-9.72,3.41-10.25,5.92l3.3,8.89c.13.29.32.51.55.65.73.45,3.4,1.95,3.63,2.1.73.45,1.81.17,2.11-.78l4.28-14.68c.26-1.24-2.1-.43-4.62,1.02Z"/>
          <path class="cls-24" d="M58.24,113.16l1-3.11c.54-2.51-9.72,3.41-10.25,5.92l3.3,8.89c.13.29.32.51.55.65.73.45,3.4,1.95,3.63,2.1.73.45,1.81.17,2.11-.78l4.28-14.68c.26-1.24-2.1-.43-4.62,1.02Z"/>
        </g>
        <g>
          <path class="cls-28" d="M72.18,53.39l-38.98,22.48c-.73.42-1.32,1.44-1.32,2.28v46.18c0,.84.59,1.86,1.32,2.27l2.41,1.36c.73.41,1.92.41,2.64-.01l38.98-22.48c.73-.42,1.32-1.44,1.32-2.28v-46.18c0-.84-.59-1.86-1.32-2.27l-2.41-1.36c-.73-.41-1.91-.41-2.64.01Z"/>
          <path class="cls-24" d="M72.18,53.39l-38.98,22.48c-.73.42-1.32,1.44-1.32,2.28v46.18c0,.84.59,1.86,1.32,2.27l2.41,1.36c.73.41,1.92.41,2.64-.01l38.98-22.48c.73-.42,1.32-1.44,1.32-2.28v-46.18c0-.84-.59-1.86-1.32-2.27l-2.41-1.36c-.73-.41-1.91-.41-2.64.01Z"/>
          <path class="cls-28" d="M77.24,56.25l-38.98,22.48c-.73.42-1.32,1.44-1.32,2.28v46.18c0,.84.59,1.18,1.32.76l14.92-8.6,2.74,7.6c.53,1.21,2.27,1.12,2.67-.14l3.64-12.69,15.01-8.66c.73-.42,1.32-1.44,1.32-2.28v-46.18c0-.84-.59-1.18-1.32-.76Z"/>
          <path class="cls-3" d="M77.24,56.25l-38.98,22.48c-.73.42-1.32,1.44-1.32,2.28v46.18c0,.84.59,1.18,1.32.76l14.92-8.6,2.74,7.6c.53,1.21,2.27,1.12,2.67-.14l3.64-12.69,15.01-8.66c.73-.42,1.32-1.44,1.32-2.28v-46.18c0-.84-.59-1.18-1.32-.76Z"/>
          <path class="cls-13" d="M55.69,79.43v3.56l-2.36,1.97v15.36c0,1.94.39,3.17,1.17,3.68s1.86.37,3.22-.41c1.38-.8,2.47-1.9,3.26-3.32.79-1.41,1.18-3.09,1.18-5.05v-15.36l-2.35.75v-3.56l9.14-5.28v3.56l-2.36,1.97v15.36c0,3.3-.82,6.32-2.45,9.05-1.63,2.73-3.77,4.86-6.42,6.39-2.64,1.52-4.77,1.86-6.39,1-1.62-.86-2.43-2.93-2.43-6.23v-15.36l-2.35.75v-3.56l2.35-1.36,4.42-2.55,2.36-1.36Z"/>
          <path class="cls-2" d="M78.54,56.77c-.1-.66-.65-.9-1.3-.52l-38.97,22.49c-.36.21-.69.57-.93.99l-5.04-2.91c.24-.4.55-.74.91-.94l38.98-22.49c.72-.42,1.9-.43,2.64-.01l2.41,1.36c.66.38,1.22,1.25,1.31,2.03Z"/>
        </g>
      </g>
    </g>
  </g>
</svg>