<?xml version="1.0" encoding="UTF-8"?>
<svg xmlns="http://www.w3.org/2000/svg" xmlns:xlink="http://www.w3.org/1999/xlink" viewBox="0 0 3710 3710">
  <defs>
    <style>
      .cls-1 {
        opacity: .6;
      }

      .cls-1, .cls-2, .cls-3, .cls-4, .cls-5, .cls-6, .cls-7, .cls-8, .cls-9, .cls-10, .cls-11, .cls-12, .cls-13, .cls-14, .cls-15, .cls-16, .cls-17, .cls-18, .cls-19, .cls-20, .cls-21, .cls-22, .cls-23, .cls-24, .cls-25, .cls-26, .cls-27, .cls-28, .cls-29, .cls-30, .cls-31, .cls-32, .cls-33 {
        stroke-width: 0px;
      }

      .cls-1, .cls-17, .cls-30 {
        fill: #fff;
      }

      .cls-1, .cls-34, .cls-30 {
        mix-blend-mode: soft-light;
      }

      .cls-35, .cls-20 {
        fill: url(#linear-gradient-2);
      }

      .cls-2 {
        fill: url(#linear-gradient-12);
      }

      .cls-3 {
        fill: url(#linear-gradient-17);
      }

      .cls-4 {
        fill: url(#linear-gradient-19);
      }

      .cls-5, .cls-36 {
        fill: url(#linear-gradient);
      }

      .cls-6 {
        fill: url(#linear-gradient-6);
      }

      .cls-7 {
        fill: #d8dee8;
      }

      .cls-8, .cls-27 {
        fill: #f4f7fa;
      }

      .cls-9 {
        fill: #e6ebf4;
      }

      .cls-37 {
        isolation: isolate;
      }

      .cls-10 {
        fill: url(#linear-gradient-15);
      }

      .cls-11 {
        fill: #bfc8d6;
      }

      .cls-12 {
        fill: url(#linear-gradient-11);
      }

      .cls-13 {
        fill: url(#linear-gradient-5);
      }

      .cls-14 {
        fill: #444b8c;
      }

      .cls-38 {
        clip-path: url(#clippath-1);
      }

      .cls-15 {
        fill: url(#linear-gradient-13);
      }

      .cls-16 {
        fill: url(#linear-gradient-16);
      }

      .cls-18 {
        fill: url(#linear-gradient-20);
      }

      .cls-19 {
        fill: url(#linear-gradient-14);
      }

      .cls-21 {
        fill: #eaedf3;
      }

      .cls-34 {
        opacity: .8;
      }

      .cls-22 {
        fill: url(#linear-gradient-21);
        opacity: .2;
      }

      .cls-22, .cls-27 {
        mix-blend-mode: multiply;
      }

      .cls-23 {
        fill: url(#linear-gradient-7);
      }

      .cls-24 {
        fill: url(#linear-gradient-3);
      }

      .cls-39 {
        clip-path: url(#clippath);
      }

      .cls-25 {
        fill: url(#linear-gradient-9);
      }

      .cls-26 {
        fill: #abc;
      }

      .cls-28 {
        fill: url(#linear-gradient-8);
      }

      .cls-29 {
        fill: url(#linear-gradient-18);
      }

      .cls-30 {
        opacity: .5;
      }

      .cls-31 {
        fill: url(#linear-gradient-10);
      }

      .cls-32 {
        fill: url(#linear-gradient-4);
      }

      .cls-33 {
        fill: #97a6b7;
      }
    </style>
    <linearGradient id="linear-gradient" x1="2478.35" y1="-418.66" x2="1535.87" y2="6877.95" gradientUnits="userSpaceOnUse">
      <stop offset="0" stop-color="#ff9085"/>
      <stop offset="1" stop-color="#fb6fbb"/>
    </linearGradient>
    <clipPath id="clippath">
      <path class="cls-5" d="M2682.43,1070.87c-11.42,1.01-22.33,2.19-32.3,3.16-30.92,3.01-98.7,21.77-122.07-9.02-38.53-50.8,59.36-136.96,84-175.66,30.48-47.88,68.25-101.18,74.38-159.33,9.32-88.43-51.26-208.06-126.02-254.24-103.12-63.7-247.18-20.35-339.83,42.19-134.22,90.6-228.53,240.04-266.81,396.13-41.26,168.24,15.64,342.39-.67,512.91-25.63,268.02-405.5-73.44-331.26,631.35,16.39,155.59,43.12,325.79,130.53,459.15,36.25,55.3,108.72,132.15,180.95,127.71,102.42-6.29,97.84-151.18,129.62-218.07,37.14-78.19,101.94-139.96,173.95-186.16,91.59-58.77,197.77-111.33,234.18-222.3,23.64-72.06-11.94-146.26-57.46-202.32-25.09-30.89-78.57-66.21-70.55-111.73,6.65-37.76,59.7-65.49,87.36-85.4,85.08-61.22,167.79-127.18,243.45-199.79,67.9-65.16,182.73-164.01,173.43-269.91-7.48-85.23-95.53-84.84-164.88-78.68Z"/>
    </clipPath>
    <linearGradient id="linear-gradient-2" x1="2738.31" y1="145.31" x2="2037.26" y2="5572.81" gradientUnits="userSpaceOnUse">
      <stop offset="0" stop-color="#ffc444"/>
      <stop offset="1" stop-color="#f36f56"/>
    </linearGradient>
    <clipPath id="clippath-1">
      <path class="cls-20" d="M3229.58,1082.22c-35.83-129.14-149.29-226.95-279.09-260.71-79.03-20.56-175.51-27.51-256.11-13.48-113.37,19.73-206.95,93.69-279.9,179.41-85.71,100.72-93.73,225.53-124.37,349.51-6.01,24.31-45.63,158.15-75.63,79.71-41.84-109.38-135.14-90.09-135.16-90.09-73,15.1-129.11,68.7-156.1,136.16-72.1,180.19-49.81,414.26-34.56,603.13,7.17,88.84,18.22,177.21,31.4,265.29,3.26,21.77,18.89,39.65,40.05,45.74,21.16,6.09,43.92-.74,58.25-17.47,14.89-17.39,30.49-33.36,44.94-47.42,138.9-135.17,356.38-155.18,539.88-163.26,107.14-4.72,195.42-11.53,288.77-69.06,38.79-23.91,80.95-53.26,98.93-96.95,16.27-39.52,19.43-107.2-5.07-143.95-30.51-45.77-98.28-42.89-138.62-76.61-65.18-54.48,105.3-92.39,139.64-103.43,54.75-17.6,91.05-61.26,132.06-99.12,31.33-28.92,60.79-60.39,83.52-96.62,69.44-110.65,60.92-259.19,27.18-380.77Z"/>
    </clipPath>
    <linearGradient id="linear-gradient-3" x1="1645.25" y1="1867.4" x2="1673.37" y2="1580.58" gradientUnits="userSpaceOnUse">
      <stop offset="0" stop-color="#aa80f9"/>
      <stop offset="1" stop-color="#6165d7"/>
    </linearGradient>
    <linearGradient id="linear-gradient-4" x1="567.33" y1="1207.77" x2="861.24" y2="1207.77" xlink:href="#linear-gradient-3"/>
    <linearGradient id="linear-gradient-5" x1="838.05" y1="1207.77" x2="3088.17" y2="1207.77" xlink:href="#linear-gradient-3"/>
    <linearGradient id="linear-gradient-6" x1="1892.4" y1="2058.56" x2="1921.44" y2="1762.38" xlink:href="#linear-gradient-3"/>
    <linearGradient id="linear-gradient-7" x1="889.43" y1="1536.22" x2="453.24" y2="1199" xlink:href="#linear-gradient-3"/>
    <linearGradient id="linear-gradient-8" x1="695.46" y1="1275.65" x2="526.26" y2="1593.79" xlink:href="#linear-gradient-3"/>
    <linearGradient id="linear-gradient-9" x1="480.85" y1="915.37" x2="1293.27" y2="915.37" gradientTransform="translate(907.08 -359.14) rotate(45)" gradientUnits="userSpaceOnUse">
      <stop offset="0" stop-color="#444b8c"/>
      <stop offset="1" stop-color="#26264f"/>
    </linearGradient>
    <linearGradient id="linear-gradient-10" x1="978.57" y1="676.15" x2="811.68" y2="1248.01" xlink:href="#linear-gradient-3"/>
    <linearGradient id="linear-gradient-11" x1="578.05" y1="814.47" x2="1257.35" y2="814.47" xlink:href="#linear-gradient-3"/>
    <linearGradient id="linear-gradient-12" x1="703.93" y1="980.36" x2="1115.72" y2="980.36" xlink:href="#linear-gradient-3"/>
    <linearGradient id="linear-gradient-13" x1="602.61" y1="938.48" x2="663.28" y2="938.48" xlink:href="#linear-gradient-3"/>
    <linearGradient id="linear-gradient-14" x1="628.66" y1="839.56" x2="917.7" y2="839.56" xlink:href="#linear-gradient-3"/>
    <linearGradient id="linear-gradient-15" x1="1303.72" y1="-832.57" x2="2203.09" y2="2694.67" gradientUnits="userSpaceOnUse">
      <stop offset="0" stop-color="#40447e"/>
      <stop offset="1" stop-color="#3c3b6b"/>
    </linearGradient>
    <linearGradient id="linear-gradient-16" x1="1441.17" y1="1880.16" x2="2622.7" y2="1880.16" xlink:href="#linear-gradient-3"/>
    <linearGradient id="linear-gradient-17" x1="1457.23" y1="1020.61" x2="1802.57" y2="2374.97" xlink:href="#linear-gradient-3"/>
    <linearGradient id="linear-gradient-18" x1="1706.27" y1="970.06" x2="2045.46" y2="2300.31" xlink:href="#linear-gradient-3"/>
    <linearGradient id="linear-gradient-19" x1="1916.95" y1="922.26" x2="2252.34" y2="2237.64" xlink:href="#linear-gradient-3"/>
    <linearGradient id="linear-gradient-20" x1="2147.68" y1="875.89" x2="2477.55" y2="2169.57" xlink:href="#linear-gradient-3"/>
    <linearGradient id="linear-gradient-21" x1="1441.17" y1="1889.31" x2="2577.72" y2="1889.31" xlink:href="#linear-gradient-3"/>
  </defs>
  <g class="cls-37">
    <g id="Layer_2" data-name="Layer 2">
      <g id="Background">
        <rect class="cls-17" y="0" width="3710" height="3710" rx="78.24" ry="78.24"/>
      </g>
      <g id="Illustration">
        <path class="cls-8" d="M3195.32,2408.31c-80.94,311.22-308.86,599.46-860.96,748.59-199.51,53.91-431.69,80.38-638.68,64.03-304.64-24.08-623.93-161.6-877.66-317.52-175.6-107.9-245.49-253.49-270.23-418.07-15.31-101.76-13.37-210.77-8.49-322.62,7.35-168.26-19.4-337.69-59.01-501.41-60.95-252.07-10.74-516.48,139.63-733.31,150.38-216.83,388-367.7,659.02-418.39,456.6-85.38,919.83-29.04,919.83-29.04,610.1,63.37,918.93,669.07,994.25,1162.09,34.44,225.32,70.44,503.62,2.29,765.64Z"/>
        <g>
          <g>
            <path class="cls-36" d="M2682.43,1070.87c-11.42,1.01-22.33,2.19-32.3,3.16-30.92,3.01-98.7,21.77-122.07-9.02-38.53-50.8,59.36-136.96,84-175.66,30.48-47.88,68.25-101.18,74.38-159.33,9.32-88.43-51.26-208.06-126.02-254.24-103.12-63.7-247.18-20.35-339.83,42.19-134.22,90.6-228.53,240.04-266.81,396.13-41.26,168.24,15.64,342.39-.67,512.91-25.63,268.02-405.5-73.44-331.26,631.35,16.39,155.59,43.12,325.79,130.53,459.15,36.25,55.3,108.72,132.15,180.95,127.71,102.42-6.29,97.84-151.18,129.62-218.07,37.14-78.19,101.94-139.96,173.95-186.16,91.59-58.77,197.77-111.33,234.18-222.3,23.64-72.06-11.94-146.26-57.46-202.32-25.09-30.89-78.57-66.21-70.55-111.73,6.65-37.76,59.7-65.49,87.36-85.4,85.08-61.22,167.79-127.18,243.45-199.79,67.9-65.16,182.73-164.01,173.43-269.91-7.48-85.23-95.53-84.84-164.88-78.68Z"/>
            <g class="cls-39">
              <g class="cls-34">
                <path class="cls-17" d="M2136.6,2829.32c-1.05,0-2.1-.31-3.02-.97-174.81-124.87-257.09-315.52-251.52-582.85,4.86-233.06,73.17-485.94,139.24-730.49,52.03-192.58,101.17-374.48,110.11-520.59,7.17-117.06,40.59-223.24,99.35-315.6,46.99-73.86,110.17-139.04,187.79-193.75,132.03-93.06,262.09-123.94,263.39-124.25,2.8-.65,5.59,1.09,6.24,3.89.65,2.8-1.09,5.59-3.89,6.24-1.28.3-129.65,30.83-260.05,122.83-120.04,84.69-266.49,240.4-282.46,501.27-9.01,147.16-58.28,329.56-110.45,522.66-130.01,481.25-277.36,1026.7,108.29,1302.16,2.33,1.67,2.88,4.91,1.21,7.25-1.02,1.42-2.61,2.18-4.23,2.18Z"/>
                <path class="cls-17" d="M2140.73,954.92c-.53,0-1.07-.08-1.6-.25-1.4-.45-34.67-11.54-71.07-54.82-33.2-39.47-75.42-114.6-88.08-248.38-.27-2.86,1.83-5.39,4.68-5.66,2.84-.28,5.39,1.83,5.66,4.68,12.35,130.55,53.1,203.65,85.11,241.98,34.54,41.36,66.57,52.21,66.89,52.31,2.72.89,4.22,3.82,3.33,6.55-.71,2.19-2.75,3.59-4.94,3.59Z"/>
                <path class="cls-17" d="M2088.75,1281.56c-2.63,0-4.89-1.99-5.16-4.67-.29-2.85,1.79-5.41,4.64-5.7.89-.09,90.06-9.68,206.91-61.25,107.75-47.55,261.77-141.55,383.69-319.37,1.62-2.37,4.85-2.97,7.23-1.35,2.37,1.62,2.97,4.86,1.35,7.23-123.41,179.99-279.36,275.09-388.46,323.18-118.28,52.13-208.77,61.81-209.67,61.91-.18.02-.36.03-.53.03Z"/>
                <path class="cls-17" d="M1901.14,2078.57c-.57,0-1.16-.1-1.73-.3-3.62-1.28-89.46-32.25-160.39-119.02-41.67-50.98-69.25-110.63-81.99-177.31-15.87-83.09-8.58-177.32,21.69-280.08.81-2.75,3.69-4.33,6.45-3.52,2.75.81,4.33,3.7,3.52,6.45-67.29,228.45-5.57,369.44,58.07,447.5,69.04,84.69,155.24,115.87,156.1,116.17,2.71.96,4.12,3.93,3.17,6.63-.75,2.14-2.76,3.47-4.9,3.47Z"/>
                <path class="cls-17" d="M1931.37,1903.16c-2.57,0-4.8-1.9-5.15-4.52-.37-2.85,1.63-5.46,4.47-5.83,4.16-.55,416.75-56.6,517.86-212.72,1.57-2.41,4.78-3.1,7.19-1.54,2.41,1.56,3.1,4.78,1.54,7.19-43.67,67.43-145.46,124.52-302.55,169.69-116.46,33.49-221.63,47.55-222.68,47.69-.23.03-.46.04-.69.04Z"/>
              </g>
            </g>
          </g>
          <g>
            <path class="cls-35" d="M3229.58,1082.22c-35.83-129.14-149.29-226.95-279.09-260.71-79.03-20.56-175.51-27.51-256.11-13.48-113.37,19.73-206.95,93.69-279.9,179.41-85.71,100.72-93.73,225.53-124.37,349.51-6.01,24.31-45.63,158.15-75.63,79.71-41.84-109.38-135.14-90.09-135.16-90.09-73,15.1-129.11,68.7-156.1,136.16-72.1,180.19-49.81,414.26-34.56,603.13,7.17,88.84,18.22,177.21,31.4,265.29,3.26,21.77,18.89,39.65,40.05,45.74,21.16,6.09,43.92-.74,58.25-17.47,14.89-17.39,30.49-33.36,44.94-47.42,138.9-135.17,356.38-155.18,539.88-163.26,107.14-4.72,195.42-11.53,288.77-69.06,38.79-23.91,80.95-53.26,98.93-96.95,16.27-39.52,19.43-107.2-5.07-143.95-30.51-45.77-98.28-42.89-138.62-76.61-65.18-54.48,105.3-92.39,139.64-103.43,54.75-17.6,91.05-61.26,132.06-99.12,31.33-28.92,60.79-60.39,83.52-96.62,69.44-110.65,60.92-259.19,27.18-380.77Z"/>
            <g class="cls-38">
              <g class="cls-34">
                <path class="cls-17" d="M1898.53,2423.27c-.74,0-1.5-.16-2.21-.5-2.6-1.22-3.71-4.32-2.49-6.92,1.71-3.63,173.7-367.03,411.06-739.49,139.48-218.86,273.93-398.02,399.62-532.5,157.59-168.61,302-267.24,429.21-293.13,2.82-.57,5.56,1.24,6.13,4.06.57,2.81-1.24,5.56-4.06,6.13-125.05,25.45-267.6,123.04-423.69,290.04-125.25,134.01-259.31,312.66-398.44,530.99-237.01,371.91-408.72,734.72-410.42,738.34-.89,1.88-2.76,2.98-4.7,2.98Z"/>
                <path class="cls-17" d="M2516.65,1383.31c-.27,0-.55-.02-.83-.06-2.84-.45-4.77-3.12-4.31-5.95.78-4.9,77.37-491.04,1.32-573.08-1.95-2.1-1.83-5.39.28-7.34,2.1-1.95,5.4-1.82,7.34.28,79.46,85.71,4.55,561.56,1.32,581.78-.41,2.56-2.62,4.38-5.13,4.38Z"/>
                <path class="cls-17" d="M3425.44,1131.61c-.94,0-1.89-.25-2.75-.79-203.87-127.42-627.99-60.88-632.26-60.19-2.84.45-5.5-1.47-5.96-4.3-.46-2.83,1.47-5.5,4.3-5.96,1.07-.17,108.9-17.33,240.75-18.33,121.99-.96,290.22,12.19,398.67,79.97,2.43,1.52,3.17,4.73,1.65,7.16-.99,1.58-2.68,2.44-4.41,2.44Z"/>
                <path class="cls-17" d="M2069.64,2091.36c-.39,0-.78-.04-1.18-.14-2.8-.65-4.54-3.44-3.89-6.24,55.64-240.45-153-591.03-155.11-594.54-1.48-2.46-.69-5.65,1.77-7.13,2.47-1.48,5.66-.69,7.13,1.77.53.89,53.88,90.03,99.54,208.02,42.26,109.2,86.41,266.23,56.79,394.23-.56,2.4-2.7,4.03-5.06,4.03Z"/>
                <path class="cls-17" d="M2242.13,1792.16c-2.18,0-4.21-1.39-4.93-3.57-.9-2.73.58-5.66,3.31-6.56,1.86-.62,189.02-62,415.69-106.46,209.59-41.12,496.85-75.76,675.2-7.3,2.68,1.03,4.02,4.03,2.99,6.71-1.03,2.68-4.03,4.02-6.71,2.99-176.04-67.57-461.23-33.06-669.47,7.8-226.04,44.34-412.58,105.52-414.44,106.13-.54.18-1.09.26-1.63.26Z"/>
              </g>
            </g>
          </g>
        </g>
        <g>
          <polygon class="cls-8" points="3097.39 1390.28 3097.39 2568.19 2632.39 2593.36 2460.75 2602.67 820.95 2691.54 820.95 1426.88 3095.34 1390.32 3097.39 1390.28"/>
          <g>
            <g>
              <g>
                <g>
                  <polygon class="cls-11" points="2727.42 1880.14 2566.42 1886.06 2566.42 1604.16 2727.42 1600.14 2727.42 1880.14"/>
                  <g>
                    <g>
                      <polygon class="cls-17" points="2629.97 1694.92 2587.6 1696.2 2587.6 1627.8 2629.97 1626.64 2629.97 1694.92"/>
                      <polygon class="cls-17" points="2710.47 1692.72 2663.87 1694.1 2663.87 1625.91 2710.47 1624.66 2710.47 1692.72"/>
                    </g>
                    <g>
                      <polygon class="cls-17" points="2629.97 1775.24 2587.6 1776.67 2587.6 1712.29 2629.97 1710.98 2629.97 1775.24"/>
                      <polygon class="cls-17" points="2710.47 1772.78 2663.87 1774.33 2663.87 1710.15 2710.47 1708.73 2710.47 1772.78"/>
                    </g>
                    <g>
                      <polygon class="cls-17" points="2629.97 1859.58 2587.6 1861.17 2587.6 1796.79 2629.97 1795.32 2629.97 1859.58"/>
                      <polygon class="cls-17" points="2710.47 1856.85 2663.87 1858.57 2663.87 1794.39 2710.47 1792.8 2710.47 1856.85"/>
                    </g>
                  </g>
                </g>
                <g>
                  <polygon class="cls-11" points="2951.98 1872.12 2790.97 1877.94 2790.97 1598.64 2951.98 1594.7 2951.98 1872.12"/>
                  <g>
                    <g>
                      <polygon class="cls-17" points="2854.53 1688.58 2812.16 1689.84 2812.16 1622.07 2854.53 1620.93 2854.53 1688.58"/>
                      <polygon class="cls-17" points="2935.03 1686.42 2884.19 1687.78 2884.19 1620.22 2935.03 1618.99 2935.03 1686.42"/>
                    </g>
                    <g>
                      <polygon class="cls-17" points="2854.53 1768.16 2812.16 1769.57 2812.16 1705.78 2854.53 1704.5 2854.53 1768.16"/>
                      <polygon class="cls-17" points="2935.03 1765.75 2884.19 1767.27 2884.19 1703.68 2935.03 1702.28 2935.03 1765.75"/>
                    </g>
                    <g>
                      <polygon class="cls-17" points="2854.53 1851.73 2812.16 1853.28 2812.16 1789.5 2854.53 1788.06 2854.53 1851.73"/>
                      <polygon class="cls-17" points="2935.03 1849.04 2884.19 1850.74 2884.19 1787.14 2935.03 1785.58 2935.03 1849.04"/>
                    </g>
                  </g>
                </g>
              </g>
              <g>
                <g>
                  <polygon class="cls-11" points="2727.42 2240.13 2566.42 2248.5 2566.42 1966.6 2727.42 1960.14 2727.42 2240.13"/>
                  <g>
                    <g>
                      <polygon class="cls-17" points="2629.97 2052.36 2587.6 2054.31 2587.6 1985.91 2629.97 1984.09 2629.97 2052.36"/>
                      <polygon class="cls-17" points="2710.47 2049.01 2663.87 2051.12 2663.87 1982.93 2710.47 1980.96 2710.47 2049.01"/>
                    </g>
                    <g>
                      <polygon class="cls-17" points="2629.97 2136.7 2587.6 2138.81 2587.6 2070.41 2629.97 2068.43 2629.97 2136.7"/>
                      <polygon class="cls-17" points="2710.47 2133.08 2663.87 2135.37 2663.87 2067.17 2710.47 2065.03 2710.47 2133.08"/>
                    </g>
                    <g>
                      <polygon class="cls-17" points="2629.97 2221.04 2587.6 2223.31 2587.6 2154.9 2629.97 2152.77 2629.97 2221.04"/>
                      <polygon class="cls-17" points="2710.47 2217.15 2663.87 2219.61 2663.87 2151.41 2710.47 2149.1 2710.47 2217.15"/>
                    </g>
                  </g>
                </g>
                <g>
                  <polygon class="cls-11" points="2951.98 2228.81 2790.97 2237.02 2790.97 1957.73 2951.98 1951.38 2951.98 2228.81"/>
                  <g>
                    <g>
                      <polygon class="cls-17" points="2854.53 2042.72 2812.16 2044.64 2812.16 1976.87 2854.53 1975.08 2854.53 2042.72"/>
                      <polygon class="cls-17" points="2935.03 2039.44 2884.19 2041.51 2884.19 1973.94 2935.03 1972.01 2935.03 2039.44"/>
                    </g>
                    <g>
                      <polygon class="cls-17" points="2854.53 2126.29 2812.16 2128.35 2812.16 2060.58 2854.53 2058.64 2854.53 2126.29"/>
                      <polygon class="cls-17" points="2935.03 2122.73 2884.19 2124.97 2884.19 2057.41 2935.03 2055.3 2935.03 2122.73"/>
                    </g>
                    <g>
                      <polygon class="cls-17" points="2854.53 2209.85 2812.16 2212.07 2812.16 2144.3 2854.53 2142.2 2854.53 2209.85"/>
                      <polygon class="cls-17" points="2935.03 2206.03 2884.19 2208.44 2884.19 2140.87 2935.03 2138.6 2935.03 2206.03"/>
                    </g>
                  </g>
                </g>
              </g>
            </g>
            <g>
              <g>
                <g>
                  <polygon class="cls-11" points="1180.95 1936.18 994.52 1942.89 994.52 1642.74 1180.95 1638.18 1180.95 1936.18"/>
                  <g>
                    <g>
                      <polygon class="cls-17" points="1066.55 1739.25 1019.94 1740.7 1019.94 1667.87 1066.55 1666.56 1066.55 1739.25"/>
                      <polygon class="cls-17" points="1155.52 1736.75 1104.68 1738.32 1104.68 1665.73 1155.52 1664.32 1155.52 1736.75"/>
                    </g>
                    <g>
                      <polygon class="cls-17" points="1066.55 1824.75 1019.94 1826.38 1019.94 1757.83 1066.55 1756.35 1066.55 1824.75"/>
                      <polygon class="cls-17" points="1155.52 1821.97 1104.68 1823.72 1104.68 1755.4 1155.52 1753.79 1155.52 1821.97"/>
                    </g>
                    <g>
                      <polygon class="cls-17" points="1066.55 1914.54 1019.94 1916.34 1019.94 1847.8 1066.55 1846.13 1066.55 1914.54"/>
                      <polygon class="cls-17" points="1155.52 1911.44 1104.68 1913.4 1104.68 1845.08 1155.52 1843.27 1155.52 1911.44"/>
                    </g>
                  </g>
                </g>
                <g>
                  <polygon class="cls-11" points="1430.92 1927.1 1248.74 1933.68 1248.74 1636.49 1430.92 1632.02 1430.92 1927.1"/>
                  <g>
                    <g>
                      <polygon class="cls-17" points="1320.76 1732.07 1274.16 1733.49 1274.16 1661.38 1320.76 1660.1 1320.76 1732.07"/>
                      <polygon class="cls-17" points="1405.5 1729.75 1346.19 1731.29 1346.19 1659.4 1405.5 1658.01 1405.5 1729.75"/>
                    </g>
                    <g>
                      <polygon class="cls-17" points="1320.76 1816.74 1274.16 1818.33 1274.16 1750.46 1320.76 1749 1320.76 1816.74"/>
                      <polygon class="cls-17" points="1405.5 1814.15 1346.19 1815.87 1346.19 1748.21 1405.5 1746.63 1405.5 1814.15"/>
                    </g>
                    <g>
                      <polygon class="cls-17" points="1320.76 1905.64 1274.16 1907.4 1274.16 1839.54 1320.76 1837.9 1320.76 1905.64"/>
                      <polygon class="cls-17" points="1405.5 1902.76 1346.19 1904.68 1346.19 1837.02 1405.5 1835.25 1405.5 1902.76"/>
                    </g>
                  </g>
                </g>
              </g>
              <g>
                <g>
                  <polygon class="cls-11" points="1180.95 2319.31 994.52 2328.79 994.52 2028.64 1180.95 2021.32 1180.95 2319.31"/>
                  <g>
                    <g>
                      <polygon class="cls-17" points="1066.55 2119.76 1019.94 2121.97 1019.94 2049.14 1066.55 2047.08 1066.55 2119.76"/>
                      <polygon class="cls-17" points="1155.52 2115.96 1104.68 2118.36 1104.68 2045.77 1155.52 2043.53 1155.52 2115.96"/>
                    </g>
                    <g>
                      <polygon class="cls-17" points="1066.55 2209.54 1019.94 2211.93 1019.94 2139.1 1066.55 2136.86 1066.55 2209.54"/>
                      <polygon class="cls-17" points="1155.52 2205.44 1104.68 2208.03 1104.68 2135.44 1155.52 2133.01 1155.52 2205.44"/>
                    </g>
                    <g>
                      <polygon class="cls-17" points="1066.55 2299.33 1019.94 2301.89 1019.94 2229.07 1066.55 2226.65 1066.55 2299.33"/>
                      <polygon class="cls-17" points="1155.52 2294.92 1104.68 2297.7 1104.68 2225.11 1155.52 2222.49 1155.52 2294.92"/>
                    </g>
                  </g>
                </g>
                <g>
                  <polygon class="cls-11" points="1430.92 2306.49 1248.74 2315.79 1248.74 2018.6 1430.92 2011.41 1430.92 2306.49"/>
                  <g>
                    <g>
                      <polygon class="cls-17" points="1320.76 2108.85 1274.16 2111.01 1274.16 2038.9 1320.76 2036.88 1320.76 2108.85"/>
                      <polygon class="cls-17" points="1405.5 2105.32 1346.19 2107.67 1346.19 2035.78 1405.5 2033.58 1405.5 2105.32"/>
                    </g>
                    <g>
                      <polygon class="cls-17" points="1320.76 2197.75 1274.16 2200.09 1274.16 2127.98 1320.76 2125.78 1320.76 2197.75"/>
                      <polygon class="cls-17" points="1405.5 2193.94 1346.19 2196.48 1346.19 2124.58 1405.5 2122.2 1405.5 2193.94"/>
                    </g>
                    <g>
                      <polygon class="cls-17" points="1320.76 2286.65 1274.16 2289.17 1274.16 2217.06 1320.76 2214.68 1320.76 2286.65"/>
                      <polygon class="cls-17" points="1405.5 2282.56 1346.19 2285.28 1346.19 2213.39 1405.5 2210.82 1405.5 2282.56"/>
                    </g>
                  </g>
                </g>
              </g>
            </g>
          </g>
          <path class="cls-11" d="M2019.33,1992.31l-14.58.61c-87.71,3.48-158.61,74.69-158.61,158.66v469.69l330.48-21.43v-463.45c0-82.86-70.31-147.53-157.29-144.08Z"/>
          <g>
            <g>
              <polygon class="cls-11" points="1981.72 1907.28 1808.01 1913.58 1808.01 1622.85 1981.72 1618.57 1981.72 1907.28"/>
              <g>
                <g>
                  <polygon class="cls-17" points="1875.8 1716.39 1829.19 1717.75 1829.19 1647.21 1875.8 1645.98 1875.8 1716.39"/>
                  <polygon class="cls-17" points="1956.3 1714.17 1901.22 1715.65 1901.22 1645.31 1956.3 1643.98 1956.3 1714.17"/>
                </g>
                <g>
                  <polygon class="cls-17" points="1875.8 1799.22 1829.19 1800.75 1829.19 1734.35 1875.8 1732.96 1875.8 1799.22"/>
                  <polygon class="cls-17" points="1956.3 1796.75 1901.22 1798.4 1901.22 1732.2 1956.3 1730.68 1956.3 1796.75"/>
                </g>
                <g>
                  <polygon class="cls-17" points="1875.8 1886.2 1829.19 1887.89 1829.19 1821.5 1875.8 1819.93 1875.8 1886.2"/>
                  <polygon class="cls-17" points="1956.3 1883.45 1901.22 1885.28 1901.22 1819.08 1956.3 1817.39 1956.3 1883.45"/>
                </g>
              </g>
            </g>
            <g>
              <polygon class="cls-11" points="2218.99 1898.76 2041.04 1904.94 2041.04 1616.98 2218.99 1612.79 2218.99 1898.76"/>
              <g>
                <g>
                  <polygon class="cls-17" points="2119.42 1709.65 2064.34 1711.11 2064.34 1641.22 2119.42 1639.91 2119.42 1709.65"/>
                  <polygon class="cls-17" points="2195.69 1707.47 2144.84 1708.92 2144.84 1639.25 2195.69 1637.95 2195.69 1707.47"/>
                </g>
                <g>
                  <polygon class="cls-17" points="2119.42 1791.7 2064.34 1793.33 2064.34 1727.55 2119.42 1726.06 2119.42 1791.7"/>
                  <polygon class="cls-17" points="2195.69 1789.27 2144.84 1790.89 2144.84 1725.32 2195.69 1723.83 2195.69 1789.27"/>
                </g>
                <g>
                  <polygon class="cls-17" points="2119.42 1877.85 2064.34 1879.66 2064.34 1813.88 2119.42 1812.21 2119.42 1877.85"/>
                  <polygon class="cls-17" points="2195.69 1875.15 2144.84 1876.95 2144.84 1811.38 2195.69 1809.71 2195.69 1875.15"/>
                </g>
              </g>
            </g>
          </g>
          <path class="cls-27" d="M3097.39,1390.28v1129.33c-131.67,20.23-323.64,51.21-465,73.75-102.97,16.4-177.93,28.31-177.93,28.31,0,0,1.08-4.93,6.04-18.99,7.85-22.24,25.01-67.43,61.57-152.32,38.61-89.64,182.56-138.76,268.94-223.8,7.56-7.38,14.63-15.09,21.16-23.09,15.05-18.37,27.2-38.46,35.2-60.89,1.86-5.26,3.5-10.63,4.89-16.18.84-3.32,1.61-6.68,2.26-10.12,4.27-22.21,4.6-46.57,0-73.56-4.02-23.45-7.2-45.84-9.53-67.25-.73-6.68-1.39-13.3-1.94-19.8-2.45-28.13-3.32-54.57-2.59-79.52.22-8.15.62-16.11,1.21-23.96,1.68-22.5,4.75-43.8,9.32-64.03,8.18-36.49,21.15-69.62,39.08-100.52,12.53-21.62,27.5-42.19,44.96-62.06,5.41-6.14,11.03-12.2,16.95-18.23,11.14-11.43,23.16-22.65,36.09-33.79,97.34-83.83,106.64-151.15,107.18-183.25l2.13-.04Z"/>
          <polygon class="cls-11" points="3129.93 2565.85 808.27 2717.55 808.24 2644.95 3129.93 2498.98 3129.93 2565.85"/>
          <polygon class="cls-11" points="820.81 1435.35 820.81 2642.35 549.52 2477.35 548.66 1302.86 820.81 1435.35"/>
          <polygon class="cls-33" points="507.28 2479.61 808.24 2644.95 808.27 2717.55 507.28 2555.14 507.28 2479.61"/>
          <polygon class="cls-26" points="820.01 2623.79 549.52 2477.35 508.9 2480.29 808.24 2644.95 820.01 2623.79"/>
          <polygon class="cls-26" points="3129.93 2498.98 3096.03 2490.13 820.01 2623.79 808.24 2644.95 3129.93 2498.98"/>
          <polygon class="cls-24" points="2905.37 1262.26 507.28 1287.72 507.28 1226.56 2905.37 1206.67 2905.37 1262.26"/>
          <polygon class="cls-17" points="2189.33 2521.31 1833.43 2543.28 1833.43 2526.69 2189.33 2504.95 2189.33 2521.31"/>
          <polygon class="cls-32" points="838.05 1407.39 861.24 1008.14 567.33 1226.43 838.05 1407.39"/>
          <polygon class="cls-13" points="838.05 1407.39 861.24 1008.14 2791.21 1010.52 3088.17 1374.63 838.05 1407.39"/>
          <g>
            <polygon class="cls-7" points="744.54 2339.97 596.25 2272.52 596.25 1954.11 744.54 2037.99 744.54 2339.97"/>
            <g>
              <g>
                <polygon class="cls-17" points="655.57 2088.33 608.96 2063.71 608.96 1987.81 655.57 2013.76 655.57 2088.33"/>
                <polygon class="cls-17" points="727.6 2123.2 685.23 2100.66 685.23 2026.83 727.6 2050.31 727.6 2123.2"/>
              </g>
              <g>
                <polygon class="cls-17" points="655.57 2181.56 608.96 2158.57 608.96 2082.68 655.57 2106.98 655.57 2181.56"/>
                <polygon class="cls-17" points="727.6 2214.32 685.23 2192.94 685.23 2119.12 727.6 2141.43 727.6 2214.32"/>
              </g>
              <g>
                <polygon class="cls-17" points="655.57 2274.78 608.96 2253.44 608.96 2177.55 655.57 2200.2 655.57 2274.78"/>
                <polygon class="cls-17" points="727.6 2305.43 685.23 2285.23 685.23 2211.4 727.6 2232.54 727.6 2305.43"/>
              </g>
            </g>
          </g>
          <g>
            <polygon class="cls-7" points="744.54 1932.17 596.25 1841.81 596.25 1523.4 744.54 1630.18 744.54 1932.17"/>
            <g>
              <g>
                <polygon class="cls-17" points="655.57 1667.09 608.96 1634.82 608.96 1558.93 655.57 1592.51 655.57 1667.09"/>
                <polygon class="cls-17" points="727.6 1711.8 685.23 1683.75 685.23 1609.93 727.6 1638.91 727.6 1711.8"/>
              </g>
              <g>
                <polygon class="cls-17" points="655.57 1760.31 608.96 1729.69 608.96 1653.8 655.57 1685.73 655.57 1760.31"/>
                <polygon class="cls-17" points="727.6 1802.92 685.23 1776.04 685.23 1702.21 727.6 1730.02 727.6 1802.92"/>
              </g>
              <g>
                <polygon class="cls-17" points="655.57 1853.53 608.96 1824.56 608.96 1748.66 655.57 1778.95 655.57 1853.53"/>
                <polygon class="cls-17" points="727.6 1894.03 685.23 1868.32 685.23 1794.49 727.6 1821.14 727.6 1894.03"/>
              </g>
            </g>
          </g>
          <polygon class="cls-6" points="3129.93 1425.11 782.68 1466.38 780.82 1407.39 3129.93 1370.04 3129.93 1425.11"/>
          <polygon class="cls-23" points="782.68 1405.05 507.28 1226.91 507.28 1289.42 782.68 1466.9 782.68 1405.05"/>
          <polygon class="cls-28" points="567.33 1226.08 838.05 1407.39 780.82 1407.39 508.9 1226.56 567.33 1226.08"/>
          <polygon class="cls-26" points="1345.39 2792.75 1248.74 2686.3 1248.74 2612.9 1345.39 2716.68 1345.39 2792.75"/>
          <g>
            <polygon class="cls-7" points="2697.76 2558.22 1490.24 2635.74 1490.24 2564.25 2697.76 2490.13 2697.76 2558.22"/>
            <polygon class="cls-8" points="2765.55 2621.68 1422.45 2711.77 1422.45 2640.09 2765.55 2553.78 2765.55 2621.68"/>
            <polygon class="cls-7" points="2829.11 2689.32 1345.39 2792.75 1345.39 2716.68 2829.11 2617.61 2829.11 2689.32"/>
          </g>
          <polygon class="cls-26" points="1492.64 2635.32 1386.78 2531.5 1386.78 2456.55 1491.75 2564.12 1492.64 2635.32"/>
          <polygon class="cls-26" points="1422.45 2639.77 1316.53 2538.76 1316.53 2608.6 1422.45 2712.67 1422.45 2639.77"/>
          <polygon class="cls-7" points="1316.53 2538.76 1386.78 2531.5 1491.75 2635.61 1421.87 2640.1 1316.53 2538.76"/>
          <polygon class="cls-9" points="1248.74 2612.9 1316.53 2607.38 1421.87 2711.79 1345.39 2716.68 1248.74 2612.9"/>
          <polygon class="cls-21" points="1491.75 2564.12 1386.78 2456.55 2485.8 2394.02 2699.18 2490.02 1491.75 2564.12"/>
          <polygon class="cls-26" points="2765.05 2553.9 2697.76 2532.25 2697.76 2558.22 2765.05 2553.9"/>
          <polygon class="cls-26" points="2826.11 2617.62 2765.55 2596.94 2765.55 2621.68 2826.11 2617.62"/>
          <g>
            <g>
              <path class="cls-7" d="M1490.24,2484.34v37c0,18.69,57.44,30.36,125.61,26.21,67.8-4.14,124.37-22.57,124.37-41.09v-36.64l-249.98,14.52Z"/>
              <path class="cls-11" d="M1737.94,2471.77c0,18.51-54.7,36.78-122.49,40.82-68.17,4.06-123.7-7.78-123.7-26.47s55.53-37.01,123.7-40.89c67.8-3.86,122.49,8.03,122.49,26.54Z"/>
            </g>
            <g>
              <polygon class="cls-7" points="1689.38 2472.65 1545.32 2481.2 1545.32 1570.51 1689.38 1567.24 1689.38 2472.65"/>
              <path class="cls-7" d="M1688.56,2469.25c0,9.16-32.53,18.5-72.78,20.86-40.38,2.37-73.2-3.17-73.2-12.38s32.83-18.57,73.2-20.88c40.25-2.31,72.78,3.25,72.78,12.41Z"/>
            </g>
            <g>
              <path class="cls-11" d="M1490.24,1550.68v37.92c0,18.7,57.44,18.29,125.61,16.68,67.8-1.6,124.37-3.87,124.37-22.38v-37.55l-249.98,5.34Z"/>
              <path class="cls-11" d="M1737.94,1548.16c0,18.51-54.37,19.83-122.16,21.34-68.16,1.52-124.03,2.65-124.03-16.04s55.53-34.97,123.7-36.34c67.8-1.37,122.49,12.54,122.49,31.05Z"/>
            </g>
          </g>
          <polygon class="cls-26" points="1442.3 1573.57 1338.31 1505.09 1338.31 1450.34 1447.39 1522.91 1442.3 1573.57"/>
          <polygon class="cls-11" points="1338.31 1450.3 1963.9 1095 2055.49 1132.17 1441.3 1519.6 1338.31 1450.3"/>
          <g>
            <path class="cls-8" d="M1596.16,2438.75c0,3.22-2.27,5.98-5.7,6.18l-.89.06c-3.43.19-6.12-2.26-6.12-5.48v-792.84c0-3.22,2.95-5.9,6.37-5.98l.55-.02c3.43-.09,5.78,2.45,5.78,5.67v792.42Z"/>
            <path class="cls-8" d="M1655.48,2435.48c0,3.21-3.01,5.97-6.42,6.16l-2.66.06c-3.41.19-7.87-2.25-7.87-5.46v-791.02c0-3.21,4.34-5.88,7.75-5.97l1.99-.02c3.41-.09,7.2,2.45,7.2,5.66v790.6Z"/>
          </g>
          <g>
            <g>
              <path class="cls-7" d="M2307.97,2428.57v34.24c0,18.09,53.22,29.51,117.07,25.64,63.52-3.85,115.96-21.57,115.96-39.49v-33.91l-233.03,13.52Z"/>
              <path class="cls-11" d="M2539.5,2415.42c0,17.92-51.25,35.48-114.78,39.25-63.86,3.78-115.87-7.8-115.87-25.89s52.01-35.7,115.87-39.31c63.52-3.59,114.78,8.03,114.78,25.96Z"/>
            </g>
            <g>
              <polygon class="cls-7" points="2490.15 2413.88 2358.81 2421.59 2358.81 1544.28 2490.15 1541.36 2490.15 2413.88"/>
              <path class="cls-7" d="M2493.22,2412.88c0,8.87-30.48,17.83-68.19,20.03-37.83,2.21-68.58-3.23-68.58-12.14s30.75-17.9,68.58-20.06c37.71-2.15,68.19,3.3,68.19,12.17Z"/>
            </g>
            <g>
              <path class="cls-11" d="M2307.97,1533.17v34.27c0,18.09,53.22,17.75,117.07,16.24,63.52-1.5,115.96-3.65,115.96-21.57v-33.95l-233.03,5Z"/>
              <path class="cls-11" d="M2539.5,1528.51c0,17.92-50.95,19.16-114.47,20.56-63.86,1.41-116.18,2.47-116.18-15.62s52.01-33.8,115.87-35.08c63.52-1.28,114.78,12.22,114.78,30.14Z"/>
            </g>
          </g>
          <g>
            <path class="cls-8" d="M2409.65,2380.62c0,3.11-3.21,5.79-6.42,5.97l-.69.05c-3.21.18-5.6-2.2-5.6-5.31v-767.35c0-3.12,2.09-5.71,5.3-5.78l1.26-.02c3.21-.08,6.16,2.38,6.16,5.5v766.95Z"/>
            <path class="cls-8" d="M2460.49,2377.58c0,3.11-1.53,5.77-4.72,5.95l-1.55.05c-3.2.18-6.43-2.19-6.43-5.3v-765.65c0-3.11,3.77-5.69,6.97-5.77l.43-.02c3.2-.08,5.31,2.38,5.31,5.48v765.25Z"/>
          </g>
          <g>
            <path class="cls-26" d="M2633.81,1485.42l-578.32-353.25c-2.55-1.56-5.82-1.54-8.37.05l-605.33,376.87c-3.01,1.87-4.38,5.76-3.37,8.94,1.01,3.19,4.16,5.74,7.75,5.66l1183.64-24.15c3.27-.07,6.15-2.62,7.07-5.71.93-3.08-.33-6.74-3.07-8.42Z"/>
            <path class="cls-21" d="M2610.66,1487.13l-235.42,4.71-908.15,18.07,521.13-324.95,58.89-36.73c2.56-1.57,5.83-1.8,8.39-.23l555.17,339.12Z"/>
            <path class="cls-26" d="M2119.18,1352.29c0,35.8-30.35,65.33-67.88,65.97-37.64.63-68.23-28.02-68.23-64.01s30.59-65.52,68.23-65.97c37.53-.45,67.88,28.21,67.88,64.01Z"/>
            <path class="cls-30" d="M2375.23,1491.84l-908.15,18.07,521.13-324.95c13.37,34.04,15.92,75.71-16.37,116.7-74.72,94.95-71.76,173.3,128.59,145.32,110.07-15.34,207.21,7.98,274.8,44.85Z"/>
          </g>
          <polygon class="cls-26" points="2629.67 1546.46 1441.12 1572.87 1441.12 1523.79 2629.67 1499.55 2629.67 1546.46"/>
        </g>
        <g>
          <circle class="cls-25" cx="887.06" cy="915.37" r="406.21" transform="translate(-387.45 895.35) rotate(-45)"/>
          <g>
            <circle class="cls-31" cx="917.7" cy="884.73" r="406.21"/>
            <path class="cls-17" d="M1295.9,884.73c0,208.89-169.31,378.2-378.2,378.2-74.48,0-143.95-21.54-202.48-58.76-105.62-67.04-175.72-185.03-175.72-319.44,0-208.89,169.31-378.2,378.2-378.2,3.5,0,6.96.04,10.42.15,204.06,5.52,367.78,172.66,367.78,378.05Z"/>
            <g>
              <polygon class="cls-12" points="917.7 710.94 578.05 814.47 917.7 918 1257.35 814.47 917.7 710.94"/>
              <path class="cls-2" d="M917.7,936.46l-213.77-65.16v148.85c0,24.43,17.09,45.56,40.99,50.63,114.8,24.34,225.19,25.1,330.88.8,23.41-5.38,39.92-26.36,39.92-50.38v-145.09l-198.02,60.36Z"/>
              <path class="cls-15" d="M656.72,1016.04c-18.57,8.25-34.81,8.42-48.72.52-4.07-2.31-6.09-7.06-5.17-11.65l30.23-150.31,30,149.17c1.02,5.07-1.62,10.17-6.35,12.27Z"/>
              <polygon class="cls-19" points="917.7 799.13 628.66 829.85 628.66 879.99 637.23 879.99 638.11 836.05 917.7 799.13"/>
            </g>
            <path class="cls-1" d="M1295.9,884.73c0,208.89-169.31,378.2-378.2,378.2-74.48,0-143.95-21.54-202.48-58.76,35.56-96.75,138.39-200.6,244.82-265.69,197.03-120.46,47.31-338.11-31.92-431.8,204.06,5.52,367.78,172.66,367.78,378.05Z"/>
          </g>
        </g>
        <g>
          <path class="cls-14" d="M1596.16,1685.29c-.69,0-1.39-.13-2.07-.41-2.8-1.14-4.15-4.34-3.01-7.14l201.59-494.84c1.14-2.8,4.33-4.15,7.14-3.01,2.8,1.14,4.15,4.34,3.01,7.14l-201.59,494.84c-.87,2.13-2.91,3.41-5.08,3.41Z"/>
          <path class="cls-14" d="M2447.79,1643.43c-1.94,0-3.81-1.03-4.81-2.84l-216.68-394.55c-3.13-5.7-7.84-10.3-13.62-13.28l-19.5-10.08c-2.69-1.39-3.74-4.69-2.35-7.38,1.39-2.69,4.69-3.74,7.38-2.35l19.5,10.08c7.72,3.99,14.01,10.12,18.2,17.74l216.68,394.55c1.46,2.65.49,5.98-2.17,7.44-.84.46-1.74.68-2.63.68Z"/>
        </g>
        <g>
          <path class="cls-10" d="M2513.02,1602.6l-1031.14,21.62c-43.66.92-78.81,35.97-78.81,78.13v384c0,42.17,35,75.13,78.66,73.5l1032-38.72c40.81-1.53,74.34-35.83,74.34-76.45v-369.97c0-40.63-34.23-72.97-75.04-72.11Z"/>
          <g>
            <path class="cls-16" d="M2622.7,1673.92v369.51c0,30.09-18.59,56.67-44.55,69.03-9.06,4.35-19.34,6.95-29.89,7.34l-1028.59,38.63c-43.58,1.64-78.5-31.29-78.5-73.43v-383.53c0-42.14,34.56-77.13,78.14-78.05l1029.4-21.57c40.74-.85,73.99,31.46,73.99,72.06Z"/>
            <path class="cls-17" d="M2548.63,1619.49l-1031.31,22.15c-33.2.71-62.29,27.31-62.29,59.4v383.31c0,32.09,28.78,57.11,61.98,55.88l1030.69-38.05c31.05-1.15,57.68-27.17,57.68-58.12v-369.72c0-30.95-25.7-55.52-56.75-54.85Z"/>
            <g>
              <path class="cls-3" d="M1767.8,1795.96c-20.01-20.14-49.42-29.69-88.33-28.69-38.92.99-68.61,12.17-89.08,33.61-20.5,21.47-30.75,52.07-30.75,91.76s10.29,70.37,30.9,90.71c20.58,20.28,50.12,29.79,88.59,28.51,38.9-1.29,68.39-12.64,88.48-34.06,20.1-21.36,30.14-51.99,30.14-91.82s-10-69.94-29.95-90.02ZM1716.33,1940.5c-8.08,11.39-20.45,17.35-37.19,17.88-32.98,1.04-49.47-21.44-49.47-67.46s16.61-70.09,49.81-70.99c16.29-.44,28.52,4.87,36.71,15.97,8.19,11.06,12.28,28.44,12.28,52.13s-4.06,41.09-12.13,52.48Z"/>
              <path class="cls-29" d="M2010.46,1782.54c-15.21-12.58-36.95-17.92-67.34-17.14l-82.69,2.14v234.09l62.37-2.18v-75.47l18.37-.53c29.19-.89,52.13-9.58,67.92-24.4,2.01-1.85,4.1-4.24,5.86-6.3,12.05-14.19,18.19-32.66,18.19-55.58s-7.48-42.06-22.67-54.63ZM1922.79,1870.07v-53.91l16.9-.43c17.97-.49,27.45,7.21,27.45,23.11,0,9.44-2.66,16.78-8.42,22.33-5.76,5.55-14.34,8.3-24.11,8.58l-11.83.32Z"/>
              <path class="cls-4" d="M2231.17,1807.84v-49.83l-142.06,3.62v232.39l142.06-4.66v-49.83l-79.69,2.49v-46.39l72.76-2.15v-49.84l-72.76,2.03v-35.68l79.69-2.15Z"/>
              <path class="cls-18" d="M2449.46,1752.33v103.69c0,14.17,3.6,34.06,5.09,55.22l-.28.03-83.59-156.85-80.61,2.1v230.94l51.97-1.77v-103.85c0-13.58.4-34.49-1.6-59.26l1.33-.04,53.22,99.98,33.67,60.35,83.17-2.69v-229.3l-62.37,1.46Z"/>
            </g>
          </g>
          <path class="cls-22" d="M2577.72,2112.45c-9.06,4.35-19.12,6.95-29.67,7.34l-1028.48,38.63c-43.58,1.64-78.39-31.29-78.39-73.43v-383.53c0-42.14,34.56-77.13,78.14-78.05l156.51-3.29c14.96,4.43,29.63,10.09,43.97,17.16,47.68,23.46,90.57,62.64,119.99,125.87,6.02,12.92,12.27,24.65,18.76,35.21,19.73,32.15,41.62,53.95,65.26,68.45,1.91,1.17,3.81,2.3,5.76,3.36,26.61,14.81,55.29,20.82,85.6,22.14,23.44.99,47.82-.81,72.9-3.56,43.51-4.76,89.06-12.31,135.35-12.74,21.08-.23,42.27,1.03,63.55,4.67,14.5,2.52,29.06,6.13,43.57,11.16,4.37,1.5,8.59,3.08,12.74,4.8,19.24,7.57,36.31,16.55,51.66,26.48,27.15,17.52,49,38.11,68.22,59.57,36.36,40.62,63.36,84.46,99.32,117.09,4.9,4.43,9.95,8.68,15.24,12.67Z"/>
        </g>
      </g>
    </g>
  </g>
</svg>