<?xml version="1.0" encoding="UTF-8"?>
<svg id="Layer_2" data-name="Layer 2" xmlns="http://www.w3.org/2000/svg" viewBox="0 0 491.04 491.04">
  <defs>
    <style>
      .cls-1, .cls-2 {
        opacity: .7;
      }

      .cls-3, .cls-4 {
        opacity: .4;
      }

      .cls-3, .cls-4, .cls-5, .cls-6, .cls-7, .cls-8, .cls-9, .cls-10, .cls-11, .cls-12, .cls-13, .cls-14, .cls-15, .cls-16, .cls-17, .cls-18, .cls-19, .cls-2, .cls-20, .cls-21, .cls-22, .cls-23, .cls-24, .cls-25, .cls-26, .cls-27, .cls-28 {
        stroke-width: 0px;
      }

      .cls-3, .cls-5, .cls-13, .cls-14, .cls-18, .cls-19, .cls-2, .cls-24, .cls-26 {
        fill: #fff;
      }

      .cls-5, .cls-21 {
        opacity: .15;
      }

      .cls-7, .cls-26 {
        opacity: .3;
      }

      .cls-8 {
        fill: #37474f;
      }

      .cls-9 {
        fill: #e0e0e0;
      }

      .cls-10 {
        fill: #f5f5f5;
      }

      .cls-11, .cls-24 {
        opacity: .2;
      }

      .cls-12 {
        fill: #ffa8a7;
      }

      .cls-14 {
        opacity: .6;
      }

      .cls-15 {
        fill: #fafafa;
      }

      .cls-16 {
        fill: #f28f8f;
      }

      .cls-17 {
        fill: #263238;
      }

      .cls-18 {
        opacity: .65;
      }

      .cls-19 {
        opacity: .25;
      }

      .cls-20 {
        fill: #ebebeb;
      }

      .cls-22 {
        fill: #455a64;
      }

      .cls-23 {
        opacity: .5;
      }

      .cls-23, .cls-28 {
        fill: #ba68c8;
      }

      .cls-25 {
        opacity: .1;
      }

      .cls-27 {
        fill: #e8e8ea;
      }
    </style>
  </defs>
  <g id="Floor">
    <rect class="cls-15" width="491.04" height="491.04" rx="10.09" ry="10.09"/>
    <path id="Floor-2" data-name="Floor" class="cls-27" d="M74.12,241.16c-94.86,54.77-94.85,143.56,0,198.32,94.86,54.77,248.66,54.77,343.51,0,94.86-54.77,94.85-143.56,0-198.32-94.86-54.77-248.66-54.77-343.51,0Z"/>
  </g>
  <g id="Shadows">
    <path id="Shadow" class="cls-9" d="M249.55,387.56c-.03.39-.24.78-.68,1.09l-.08.05-109.33,63.1h-.03c-.58.34-1.34.52-2.1.52-.82,0-1.65-.16-2.27-.52l-72.44-41.82s0,0,0,0c-.99-.57-1.46-1.58-1.43-2.59v-.08c.04-.79.41-1.57,1.09-2.1,0,0,.03-.02.03-.03l105.58-60.92s0,0,.02,0c1.11-.64,2.33-1,3.57-1.06h.07c1.44-.07,2.92.26,4.23.99.05.03.09.05.14.08l72.73,42s.03.02.03.03c.03.02.07.04.09.06.03.02.05.03.08.05,0,0,.02,0,.03.03.25.18.44.38.54.6.03.05.05.11.07.16.03.05.03.1.03.14.02.04.02.08.02.1,0,.02,0,.03,0,.03,0,.03,0,.07,0,.11Z"/>
    <ellipse id="Shadow-2" data-name="Shadow" class="cls-9" cx="90.23" cy="330.62" rx="52.2" ry="30.14"/>
    <ellipse id="Shadow-3" data-name="Shadow" class="cls-9" cx="401.41" cy="339.01" rx="52.2" ry="30.14"/>
    <polygon id="Shadow-4" data-name="Shadow" class="cls-9" points="310.67 284.84 216.26 339.37 90.75 266.91 185.16 212.38 310.67 284.84"/>
  </g>
  <g id="Books">
    <g id="Book">
      <path class="cls-6" d="M289.68,90.23v4.2s-1.61-1.48-1.7-2.54c-.09-1.06,1.7-1.66,1.7-1.66Z"/>
      <path class="cls-17" d="M286.45,89.21s-1.34,4.18,3.24,5.61c4.58,1.44,7.46-.01,8.14,1.28.69,1.29-21.74,14.21-21.74,14.21l4.26-18.56,6.09-2.56Z"/>
      <path class="cls-8" d="M284.18,286.71v.26s-2.24-1.29-2.24-1.29l-94.03-54.37.13-191.86c0-2.68,1.47-4,3.27-2.95l3.27,1.9,89.94,51.9-.08.79-.25,195.62Z"/>
      <path class="cls-28" d="M264.92,115.47l-4.73-5.31,24.15-13.94c3.64,2.75,6.44,4.22,9.7,2.84l-29.13,16.41Z"/>
      <path class="cls-10" d="M283.13,93.37l-89.07-51.43c-1.55-.89-4.05-.89-5.6,0l-23.81,13.74,90.33,51.7s3.9-1.02,6.56,1.13c2.66,2.15,2.51-.57,2.51-.57l20.3-11.72c-1.66-2.22-1.22-2.85-1.22-2.85Z"/>
      <path class="cls-17" d="M263.18,114.37c-.92-.53-1.31-1.14-.88-1.4l.75-.44c.84-.48.06-1.73-1.76-2.79-1.81-1.04-3.97-1.52-4.81-1.03l-.76.44c-.43.25-2.02-.27-3.55-1.15l.55,187.28c.89.51,2.25,1.29,2.25,1.29.5.14,1.13-.02,1.32-.12l.76-.44c.84-.49,2.99-.03,4.8,1.01,1.82,1.06,2.6,2.3,1.76,2.79l-.76.44c-.43.25-.04.86.88,1.39l-.55-187.27Z"/>
      <path class="cls-8" d="M254.98,296.3v.26l-2.24-1.29-96.19-55.54V57.63c.01-2.68,1.48-4,3.29-2.95l3.27,1.9,91.87,50.8v188.92Z"/>
      <path class="cls-8" d="M262.13,300.7V113.23l5.97,2.41v186.92c-1.6.2-2.6.03-3.3-.33l-2.67-1.54Z"/>
      <path class="cls-22" d="M300.24,283.35c0,.1-.01.21-.03.32,0,.07-.01.14-.04.21-.04.15-.1.3-.19.45-.02.09-.06.15-.11.23-.14.25-.31.5-.51.73-.19.24-.43.49-.67.72-.27.25-.54.48-.85.73-.16.15-.34.27-.53.4-.15.1-.28.2-.44.31-.33.23-.69.45-1.07.67l-20.72,11.96c-2.32,1.34-4.9,2.22-6.99,2.48V115.64s32.16-19.27,32.16-19.27v186.92s-.01.05-.01.05Z"/>
      <g>
        <path class="cls-28" d="M268.1,138.78v20.09c12.85-4.36,23.88-10.29,32.16-18.57v-20.09c-8.28,8.28-19.3,14.2-32.16,18.57Z"/>
        <path class="cls-3" d="M268.1,138.78v20.09c12.85-4.36,23.88-10.29,32.16-18.57v-20.09c-8.28,8.28-19.3,14.2-32.16,18.57Z"/>
        <path class="cls-28" d="M268.1,166.32v7.49c12.85-4.36,23.88-10.29,32.16-18.57v-7.49c-8.28,8.28-19.3,14.2-32.16,18.57Z"/>
        <path class="cls-3" d="M268.1,166.32v7.49c12.85-4.36,23.88-10.29,32.16-18.57v-7.49c-8.28,8.28-19.3,14.2-32.16,18.57Z"/>
      </g>
      <path class="cls-22" d="M299.53,95.26c-.45-.26-.89-.51-1.28-.73-.39-.22-.75-.43-1.03-.6-.17-.11-.35-.21-.48-.28-.26-.16-.84-.07-1.31.19l-.9.52c-.9.48-2.38.44-4.15-.59-1.81-1.04-2.55-2.32-1.64-2.84l.73-.42s.08-.05.13-.09c.35-.3-.52-1.19-2.02-2.04l-20.92-12.08-65.52-37.85s-.47-.27-1.22-.69c-.2-.13-.44-.25-.7-.4-.29-.19-.62-.37-.98-.57-.5-.29-1.05-.59-1.59-.91-.31-.18-.62-.35-.92-.53-.52-.28-1-.58-1.48-.84-.02,0-.03-.02-.04-.01-.62-.27-1.21-.25-1.67.01l-2.38,1.37-.9.52c.56-.32,1.16-.28,1.79,0,1.2.69,2.6,1.5,4,2.3.46.25.92.53,1.36.78,2.57,1.48,4.73,2.73,4.73,2.73l82.51,47.63c.19.11.38.21.58.32l.29.17c-.2.97-.04,2.06.52,3.04.76,1.31,2.07,2.26,3.03,2.8,2.12,1.24,5.33,2.22,7.7,1.19-.02.03-.03.04-.06.06l-.66.47c-.27.18-.56.36-.85.53l-20.72,11.96c-2.99,1.73-5.98,2.28-6.9,2.17.12-.89-.05-1.83-.57-2.73-.76-1.31-2.1-2.28-3.1-2.85-1.31-.75-3.05-1.43-4.71-1.59-.12,0-.24-.03-.35-.02-1.03-.08-2.04.09-2.88.54l-85.31-49.26-2.9-1.66-3.7-2.14c-.76-.44-1.46-.46-2.01-.15l-3.27,1.89c.64-.37,1.34-.27,2.05.12l.05.03,9.78,5.66,82.51,47.63c1.54.88,3.13,1.42,3.57,1.17l.76-.44c.36-.21.98-.25,1.71-.11.94.13,2.07.54,3.09,1.12,1.82,1.06,2.6,2.31,1.76,2.79l-.75.44c-.43.25-.04.86.88,1.39l1.64.94c1.8,1.05,6.41.08,10.27-2.14l20.72-11.96c.38-.22.73-.44,1.07-.67.16-.11.29-.21.44-.31.19-.13.37-.25.53-.4.3-.25.58-.48.85-.73.24-.23.47-.48.67-.72.2-.23.38-.48.51-.73.05-.08.07-.13.09-.22h.01c.09-.15.15-.3.19-.45.03-.07.05-.14.04-.21.12-.63-.1-1.14-.69-1.49Z"/>
      <path class="cls-24" d="M299.53,95.26c-.45-.26-.89-.51-1.28-.73-.39-.22-.75-.43-1.03-.6-.17-.11-.35-.21-.48-.28-.26-.16-.84-.07-1.31.19l-.9.52c-.9.48-2.38.44-4.15-.59-1.81-1.04-2.55-2.32-1.64-2.84l.73-.42s.08-.05.13-.09c.35-.3-.52-1.19-2.02-2.04l-20.92-12.08-65.52-37.85s-.47-.27-1.22-.69c-.2-.13-.44-.25-.7-.4-.29-.19-.62-.37-.98-.57-.5-.29-1.05-.59-1.59-.91-.31-.18-.62-.35-.92-.53-.52-.28-1-.58-1.48-.84-.02,0-.03-.02-.04-.01-.62-.27-1.21-.25-1.67.01l-2.38,1.37-.9.52c.56-.32,1.16-.28,1.79,0,1.2.69,2.6,1.5,4,2.3.46.25.92.53,1.36.78,2.57,1.48,4.73,2.73,4.73,2.73l82.51,47.63c.19.11.38.21.58.32l.29.17c-.2.97-.04,2.06.52,3.04.76,1.31,2.07,2.26,3.03,2.8,2.12,1.24,5.33,2.22,7.7,1.19-.02.03-.03.04-.06.06l-.66.47c-.27.18-.56.36-.85.53l-20.72,11.96c-2.99,1.73-5.98,2.28-6.9,2.17.12-.89-.05-1.83-.57-2.73-.76-1.31-2.1-2.28-3.1-2.85-1.31-.75-3.05-1.43-4.71-1.59-.12,0-.24-.03-.35-.02-1.03-.08-2.04.09-2.88.54l-85.31-49.26-2.9-1.66-3.7-2.14c-.76-.44-1.46-.46-2.01-.15l-3.27,1.89c.64-.37,1.34-.27,2.05.12l.05.03,9.78,5.66,82.51,47.63c1.54.88,3.13,1.42,3.57,1.17l.76-.44c.36-.21.98-.25,1.71-.11.94.13,2.07.54,3.09,1.12,1.82,1.06,2.6,2.31,1.76,2.79l-.75.44c-.43.25-.04.86.88,1.39l1.64.94c1.8,1.05,6.41.08,10.27-2.14l20.72-11.96c.38-.22.73-.44,1.07-.67.16-.11.29-.21.44-.31.19-.13.37-.25.53-.4.3-.25.58-.48.85-.73.24-.23.47-.48.67-.72.2-.23.38-.48.51-.73.05-.08.07-.13.09-.22h.01c.09-.15.15-.3.19-.45.03-.07.05-.14.04-.21.12-.63-.1-1.14-.69-1.49Z"/>
    </g>
    <g id="Book-2" data-name="Book">
      <path class="cls-6" d="M241.99,118.96v4.2s-1.61-1.48-1.7-2.54c-.09-1.06,1.7-1.66,1.7-1.66Z"/>
      <path class="cls-28" d="M238.76,117.95s-1.34,4.18,3.24,5.61c4.58,1.44,7.46-.01,8.14,1.28.69,1.29-21.74,14.21-21.74,14.21l4.26-18.56,6.09-2.56Z"/>
      <path class="cls-7" d="M238.76,117.95s-1.34,4.18,3.24,5.61c4.58,1.44,7.46-.01,8.14,1.28.69,1.29-21.74,14.21-21.74,14.21l4.26-18.56,6.09-2.56Z"/>
      <path class="cls-28" d="M236.49,315.45v.26s-2.24-1.29-2.24-1.29l-94.03-54.37.13-191.86c0-2.68,1.47-4,3.27-2.95l3.27,1.9,89.94,51.9-.08.78-.25,195.62Z"/>
      <path class="cls-11" d="M236.49,315.45v.26s-2.24-1.29-2.24-1.29l-94.03-54.37.13-191.86c0-2.68,1.47-4,3.27-2.95l3.27,1.9,89.94,51.9-.08.78-.25,195.62Z"/>
      <path class="cls-22" d="M217.23,144.21l-4.72-5.31,24.15-13.94c3.64,2.75,6.44,4.22,9.7,2.84l-29.13,16.41Z"/>
      <path class="cls-10" d="M235.44,122.1l-89.07-51.43c-1.55-.89-4.05-.89-5.6,0l-23.81,13.75,90.33,51.7s3.91-1.02,6.56,1.13c2.66,2.15,2.51-.57,2.51-.57l20.3-11.72c-1.66-2.22-1.22-2.85-1.22-2.85Z"/>
      <path class="cls-28" d="M215.49,143.1c-.92-.53-1.31-1.14-.88-1.4l.76-.44c.84-.48.06-1.73-1.76-2.79-1.81-1.04-3.97-1.52-4.81-1.03l-.76.44c-.43.25-2.02-.27-3.55-1.15l.55,187.28c.89.51,2.25,1.29,2.25,1.29.5.14,1.13-.02,1.31-.12l.76-.44c.84-.48,2.99-.03,4.8,1.01,1.82,1.06,2.6,2.3,1.76,2.79l-.76.44c-.43.25-.04.86.88,1.39l-.55-187.28Z"/>
      <path class="cls-19" d="M215.49,143.1c-.92-.53-1.31-1.14-.88-1.4l.76-.44c.84-.48.06-1.73-1.76-2.79-1.81-1.04-3.97-1.52-4.81-1.03l-.76.44c-.43.25-2.02-.27-3.55-1.15l.55,187.28c.89.51,2.25,1.29,2.25,1.29.5.14,1.13-.02,1.31-.12l.76-.44c.84-.48,2.99-.03,4.8,1.01,1.82,1.06,2.6,2.3,1.76,2.79l-.76.44c-.43.25-.04.86.88,1.39l-.55-187.28Z"/>
      <path class="cls-28" d="M207.29,325.04v.26s-2.24-1.29-2.24-1.29l-96.19-55.54V86.36c.01-2.68,1.48-4,3.29-2.95l3.27,1.9,91.87,50.8v188.92Z"/>
      <path class="cls-3" d="M207.29,325.04v.26s-2.24-1.29-2.24-1.29l-96.19-55.54V86.36c.01-2.68,1.48-4,3.29-2.95l3.27,1.9,91.87,50.8v188.92Z"/>
      <path class="cls-28" d="M214.44,329.43v-187.46l5.97,2.41v186.92c-1.6.2-2.6.03-3.3-.33l-2.67-1.54Z"/>
      <path class="cls-3" d="M214.44,329.43v-187.46l5.97,2.41v186.92c-1.6.2-2.6.03-3.3-.33l-2.67-1.54Z"/>
      <path class="cls-28" d="M252.55,312.09c0,.1-.01.21-.03.32,0,.07-.01.14-.04.21-.04.15-.1.3-.19.45-.02.09-.06.15-.11.23-.14.25-.31.5-.51.73-.19.24-.43.49-.67.72-.27.25-.54.48-.85.73-.16.15-.35.27-.53.4-.15.1-.28.2-.44.31-.33.23-.69.45-1.07.67l-20.72,11.96c-2.32,1.34-4.9,2.22-6.99,2.48v-186.92s32.16-19.27,32.16-19.27v186.92s-.01.05-.01.05Z"/>
      <g class="cls-1">
        <path class="cls-13" d="M252.55,312.09c0,.1-.01.21-.03.32,0,.07-.01.14-.04.21-.04.15-.1.3-.19.45-.02.09-.06.15-.11.23-.14.25-.31.5-.51.73-.19.24-.43.49-.67.72-.27.25-.54.48-.85.73-.16.15-.35.27-.53.4-.15.1-.28.2-.44.31-.33.23-.69.45-1.07.67l-20.72,11.96c-2.32,1.34-4.9,2.22-6.99,2.48v-186.92s32.16-19.27,32.16-19.27v186.92s-.01.05-.01.05Z"/>
      </g>
      <g>
        <path class="cls-15" d="M220.41,158.19v20.09c12.86-4.36,23.88-10.29,32.16-18.57v-20.09c-8.28,8.28-19.3,14.2-32.16,18.57Z"/>
        <path class="cls-15" d="M220.41,290.37v20.09c12.86-4.36,23.88-10.29,32.16-18.57v-20.09c-8.28,8.28-19.3,14.2-32.16,18.57Z"/>
      </g>
      <g>
        <path class="cls-28" d="M227.4,141.89l-1.62-2.8c-2.99,1.73-5.98,2.28-6.9,2.17.12-.89-.05-1.84-.57-2.73-.76-1.31-2.1-2.28-3.1-2.85-1.31-.75-3.05-1.43-4.71-1.59-.12,0-.24-.03-.35-.02-1.03-.08-2.04.09-2.88.54l-85.31-49.25-2.9-1.66-3.7-2.14c-.76-.44-1.46-.46-2.01-.15l-3.27,1.89c.64-.37,1.34-.27,2.05.12l.05.03,9.78,5.66,82.51,47.63c1.54.88,3.13,1.42,3.57,1.17l.76-.44c.36-.21.98-.25,1.71-.11.93.13,2.07.54,3.09,1.12,1.82,1.06,2.6,2.31,1.76,2.79l-.76.44c-.43.25-.04.86.88,1.39l1.64.94c1.8,1.05,6.41.08,10.27-2.14Z"/>
        <path class="cls-14" d="M227.4,141.89l-1.62-2.8c-2.99,1.73-5.98,2.28-6.9,2.17.12-.89-.05-1.84-.57-2.73-.76-1.31-2.1-2.28-3.1-2.85-1.31-.75-3.05-1.43-4.71-1.59-.12,0-.24-.03-.35-.02-1.03-.08-2.04.09-2.88.54l-85.31-49.25-2.9-1.66-3.7-2.14c-.76-.44-1.46-.46-2.01-.15l-3.27,1.89c.64-.37,1.34-.27,2.05.12l.05.03,9.78,5.66,82.51,47.63c1.54.88,3.13,1.42,3.57,1.17l.76-.44c.36-.21.98-.25,1.71-.11.93.13,2.07.54,3.09,1.12,1.82,1.06,2.6,2.31,1.76,2.79l-.76.44c-.43.25-.04.86.88,1.39l1.64.94c1.8,1.05,6.41.08,10.27-2.14Z"/>
        <path class="cls-28" d="M225.78,139.09l20.72-11.96c.29-.17.58-.35.85-.53l.66-.47s.04-.02.06-.05c-2.37,1.03-5.58.05-7.7-1.19-.97-.54-2.27-1.48-3.03-2.8-.57-.98-.73-2.06-.52-3.04l-.29-.17c-.2-.11-.38-.21-.58-.32l-82.51-47.63s-2.16-1.25-4.73-2.73c-.44-.25-.9-.52-1.36-.78-1.39-.8-2.8-1.61-4-2.3-.62-.27-1.23-.32-1.79,0l.9-.52,2.38-1.37c.46-.27,1.05-.29,1.67-.01.01,0,.02,0,.04.01.47.27.96.56,1.48.84.31.18.62.35.92.53.54.32,1.09.62,1.59.91.36.2.69.38.98.57.26.15.5.27.7.4.75.43,1.22.69,1.22.69l65.52,37.85,20.92,12.08c1.5.85,2.37,1.75,2.02,2.04-.05.04-.11.08-.13.09l-.73.42c-.91.52-.17,1.8,1.64,2.84,1.77,1.03,3.25,1.07,4.15.59l.9-.52c.46-.27,1.04-.36,1.31-.19.13.07.31.18.48.28.29.17.65.37,1.03.6.39.22.83.47,1.28.73.59.35.81.86.69,1.49,0,.07-.01.14-.04.21-.04.15-.1.3-.19.45h-.01c-.02.1-.05.15-.09.23-.14.25-.31.5-.51.73-.2.24-.43.49-.67.72-.27.25-.54.48-.85.73-.16.15-.34.27-.53.4-.15.1-.28.2-.44.31-.33.23-.69.45-1.07.67l-20.72,11.96-1.62-2.8Z"/>
        <path class="cls-14" d="M225.78,139.09l20.72-11.96c.29-.17.58-.35.85-.53l.66-.47s.04-.02.06-.05c-2.37,1.03-5.58.05-7.7-1.19-.97-.54-2.27-1.48-3.03-2.8-.57-.98-.73-2.06-.52-3.04l-.29-.17c-.2-.11-.38-.21-.58-.32l-82.51-47.63s-2.16-1.25-4.73-2.73c-.44-.25-.9-.52-1.36-.78-1.39-.8-2.8-1.61-4-2.3-.62-.27-1.23-.32-1.79,0l.9-.52,2.38-1.37c.46-.27,1.05-.29,1.67-.01.01,0,.02,0,.04.01.47.27.96.56,1.48.84.31.18.62.35.92.53.54.32,1.09.62,1.59.91.36.2.69.38.98.57.26.15.5.27.7.4.75.43,1.22.69,1.22.69l65.52,37.85,20.92,12.08c1.5.85,2.37,1.75,2.02,2.04-.05.04-.11.08-.13.09l-.73.42c-.91.52-.17,1.8,1.64,2.84,1.77,1.03,3.25,1.07,4.15.59l.9-.52c.46-.27,1.04-.36,1.31-.19.13.07.31.18.48.28.29.17.65.37,1.03.6.39.22.83.47,1.28.73.59.35.81.86.69,1.49,0,.07-.01.14-.04.21-.04.15-.1.3-.19.45h-.01c-.02.1-.05.15-.09.23-.14.25-.31.5-.51.73-.2.24-.43.49-.67.72-.27.25-.54.48-.85.73-.16.15-.34.27-.53.4-.15.1-.28.2-.44.31-.33.23-.69.45-1.07.67l-20.72,11.96-1.62-2.8Z"/>
      </g>
    </g>
  </g>
  <g id="Plant">
    <g id="Plant-2" data-name="Plant">
      <g id="Pot">
        <path class="cls-8" d="M133.91,290.22l-89.7-.02,9.28,38.64h.01c.71,4.66,4.14,9.21,10.31,12.77,13.95,8.05,36.57,8.05,50.52,0,6.65-3.84,10.09-8.81,10.4-13.84l9.18-37.55Z"/>
        <path class="cls-17" d="M122.97,316.7c2.03-1.17,3.81-2.44,5.38-3.76l5.05-20.64c-2.3,2.6-5.32,5.04-9.08,7.21-18.92,10.92-49.25,11.2-68.82.89l2.28-9.2-.7-.97h-12.88s9.27,38.62,9.27,38.62h.01c.71,4.66,4.14,9.21,10.31,12.77,9.94,5.74,24.26,7.36,36.73,4.93-22.35,1.67-37.68-8.11-39.98-17.11-.92-3.59-2.52-11.55-2.52-11.55,18.67,9.48,47.1,9.11,64.93-1.18Z"/>
        <path class="cls-22" d="M138.57,278.79c-.46,2.37-1.46,4.72-2.99,6.97-2.42,3.65-6.18,7.06-11.25,10-19.47,11.24-51.05,11.24-70.52,0-5.08-2.94-8.84-6.35-11.25-10-1.52-2.26-2.52-4.6-2.98-6.97h-.02c-1.74-8.45,3.02-17.26,14.25-23.74,19.47-11.26,51.05-11.26,70.52,0,11.23,6.48,15.98,15.29,14.25,23.74Z"/>
        <path class="cls-8" d="M135.58,285.76c-2.42,3.65-6.18,7.06-11.25,10-19.47,11.24-51.05,11.24-70.52,0-5.08-2.94-8.84-6.35-11.25-10-1.52-2.26-2.52-4.6-2.98-6.97h-.02l2.21,15.2c1.01,6.12,5.57,12.08,13.7,16.77,18.56,10.7,48.64,10.7,67.2,0,8.01-4.63,12.57-10.52,13.66-16.55l.12-.78,2.14-14.64c-.46,2.37-1.46,4.72-2.99,6.97Z"/>
        <path class="cls-17" d="M118.45,258.44c-16.23-9.37-42.54-9.37-58.76,0-9.19,5.31-13.16,12.47-11.96,19.38.93,5.31,4.92,10.47,11.96,14.54,16.22,9.37,42.53,9.37,58.76,0,7.03-4.07,11.02-9.23,11.95-14.52,1.22-6.93-2.76-14.09-11.95-19.4Z"/>
        <path class="cls-15" d="M50.47,284.25c2.03,2.95,5.08,5.73,9.22,8.11,16.22,9.37,42.53,9.37,58.76,0,4.13-2.39,7.18-5.16,9.21-8.11-.12-5.61-3.88-11.2-11.29-15.48-15.08-8.71-39.53-8.71-54.6,0-7.42,4.29-11.18,9.88-11.3,15.48Z"/>
      </g>
      <g id="Plant-3" data-name="Plant">
        <g>
          <path class="cls-28" d="M91.89,269.76c-7.42-2.01-8.67-18.08-4.52-35.04,4.04-16.5,16.98-41.24,19.73-40.69,2.75.54,6.19,27.43,4.25,45.19-2.34,21.51-12.05,32.55-19.47,30.54Z"/>
          <path class="cls-7" d="M91.89,269.76c-7.42-2.01-8.67-18.08-4.52-35.04,4.04-16.5,16.98-41.24,19.73-40.69,2.75.54,6.19,27.43,4.25,45.19-2.34,21.51-12.05,32.55-19.47,30.54Z"/>
          <path class="cls-23" d="M95.5,217.81c1.33,2.1,2.15,5.66,5.27,5.67,2.5.01,3.81-2.64,6.06-3.25,1.81-.49,3.53.47,4.98,1.49-.02-.65-.05-1.29-.08-1.93-1.28-.84-2.73-1.56-4.3-1.52-1.4.04-2.52.79-3.6,1.62-1.16.9-2.57,2.25-4.17,1.6-1.8-.74-2.32-3.01-3.24-4.52-.51-.84-1.16-1.55-1.98-2.03-.2.45-.4.91-.6,1.37.66.34,1.24.83,1.66,1.5ZM104.3,211.18c1.07-.51,1.68-1.56,2.5-2.36,1.05-1.01,2.47-1.22,3.82-.74.05.02.08.05.13.07-.07-.57-.14-1.14-.21-1.69-.23-.07-.46-.14-.71-.17-1.07-.16-2.21.03-3.1.67-1.02.73-1.59,2-2.67,2.65-1.94,1.16-3.48-.95-4.06-2.54-.26-.71-.46-1.44-.7-2.16-.2.37-.39.75-.59,1.13.13.51.26,1.02.41,1.5.66,2.09,2.63,4.83,5.18,3.63ZM104.06,232.64c-1.35.82-2.49,2.21-4.05,2.65-3.82,1.09-4.7-4.81-7.14-6.55-1.03-.74-2.27-1.01-3.47-.91-.15.45-.3.9-.44,1.35.63-.11,1.29-.14,1.94.02,1.63.39,2.56,1.56,3.34,2.97,1.22,2.19,2.77,5.33,5.83,4.72,1.36-.27,2.45-1.22,3.55-2,1.55-1.11,3.24-1.8,5.17-1.39,1.15.24,2.04.86,2.91,1.55.04-.58.07-1.16.09-1.75-1.06-.79-2.19-1.41-3.54-1.57-1.47-.18-2.94.14-4.2.91ZM106.39,245.6c-1.69-.42-3.51-.1-5.06.66-1.77.87-3.05,2.58-4.9,3.28-4.04,1.53-4.66-4.32-7.62-5.76-.97-.47-2.03-.66-3.06-.59-.06.46-.13.92-.19,1.37.39-.03.79-.03,1.17.02,2.03.28,3.24,1.5,4.17,3.23,1.43,2.67,3.31,4.83,6.58,3.23,1.75-.85,3-2.45,4.8-3.22,1.95-.84,4.35-.91,6.02.55.31.27.7.78,1.14,1.39.15-.57.29-1.17.43-1.76-.91-1.14-2.01-2.06-3.47-2.42Z"/>
          <path class="cls-25" d="M91.89,269.76c7.42,2.01,17.12-9.03,19.47-30.54.61-5.61.69-12.13.42-18.45-6.06,4.98-12.14,15.13-12.14,15.13,0,0-3.97-10.39-7.2-16.22-2.11,5.17-3.93,10.43-5.06,15.04-4.15,16.96-2.9,33.03,4.52,35.04Z"/>
        </g>
        <g>
          <path class="cls-28" d="M85.84,278.67c-9.76,6.26-18.86-16.01-23.71-32.82-4.85-16.81-1.68-60.76,3.23-63.17,3.48-1.7,21.91,37.68,25.53,56.85,2.62,13.86,2.7,34.16-5.05,39.14Z"/>
          <path class="cls-25" d="M85.84,278.67c-9.76,6.26-18.86-16.01-23.71-32.82-4.85-16.81-1.68-60.76,3.23-63.17,3.48-1.7,21.91,37.68,25.53,56.85,2.62,13.86,2.7,34.16-5.05,39.14Z"/>
          <path class="cls-28" d="M64.79,213.71c3.06,1.51,5.5,1.52,7.89-1.07,2.22-2.41,3.86-5.44,7.33-5.05-.34-.77-.67-1.54-1.01-2.3-.56-.03-1.12.02-1.69.17-3.03.81-4.38,3.96-6.51,5.95-3.27,3.07-6.76-.96-10.47-.74-.11,0-.22.03-.34.04-.03.67-.06,1.34-.09,2.02,1.62-.13,3.33.19,4.89.96ZM91.61,243.95c-.51-.19-1.04-.36-1.61-.46-1.61-.31-3.29.08-4.61,1.04-2.95,2.17-3.09,6.98-7.86,5.72-3.63-.96-6.36-3.35-10.17-1.44-1.3.65-2.46,1.57-3.5,2.64.18.56.37,1.11.56,1.67,1.39-1.36,2.94-2.48,4.75-2.95,4.11-1.06,7.21,3.1,11.3,2.42,3.34-.55,3.7-4.21,6.01-6.02,1.72-1.34,3.56-1.02,5.41-.34-.09-.77-.18-1.53-.28-2.28ZM64.96,197.75c1.14,1.57,2.75,3.31,4.86,2.22,2.26-1.16,2.44-3.91,3.89-5.7-.27-.51-.53-1.02-.79-1.51-1.41,1.89-2.12,6-4.82,5.85-2.12-.11-2.95-3.25-4.72-4.16-.61-.31-1.2-.4-1.77-.34-.07.42-.13.85-.2,1.29.14-.01.28-.03.42-.03,1.48.05,2.34,1.3,3.13,2.38ZM72.31,231.12c3.85.83,5.73-3.76,7.47-6.3,1.29-1.89,3.23-3.84,5.35-4.52-.26-.69-.52-1.38-.78-2.07-.71.16-1.4.4-2.01.75-1.76,1-3.07,2.59-4.18,4.24-1.16,1.73-2.12,4.06-3.92,5.23-2.06,1.34-4.48-.75-6.61-1.15-1.98-.37-4.04-.19-5.94.49-.62.22-1.22.53-1.8.87.04.95.09,1.9.15,2.82,1.61-1.51,4.11-2.15,6.26-2.1,2.25.05,3.92,1.29,6.03,1.75Z"/>
          <path class="cls-25" d="M85.78,222.07c-5.17,6.2-7.9,12.95-7.9,12.95,0,0-10.59-14.37-18.03-20.88-.41,11.93.18,24.39,2.29,31.7,4.85,16.81,13.95,39.09,23.71,32.82,7.76-4.98,7.68-25.28,5.05-39.14-.92-4.85-2.79-11.01-5.12-17.46Z"/>
        </g>
        <g>
          <path class="cls-28" d="M85.18,290.12c-17.84.96-34.52-9.84-45.33-23.46-10.81-13.62-19.26-41.76-16.82-43.49,2.44-1.73,31.23,16.02,42.04,28.83,14.18,16.8,20.11,38.12,20.11,38.12Z"/>
          <path class="cls-11" d="M85.18,290.12c-17.84.96-34.52-9.84-45.33-23.46-10.81-13.62-19.26-41.76-16.82-43.49,2.44-1.73,31.23,16.02,42.04,28.83,14.18,16.8,20.11,38.12,20.11,38.12Z"/>
          <path class="cls-28" d="M46.23,245.43c1.04-1.68.45-3.71.22-5.52-.17-1.33.1-2.49.72-3.46-.67-.48-1.34-.96-2.01-1.43-.87,1.5-.98,3.13-.73,4.84.3,2.06.79,4.62-1.96,5-3,.41-7.16-2.27-9.56.7-1.16,1.44-.72,3.28-.76,4.96-.02.7-.26,1.48-.64,2.17.32.68.65,1.35.99,2.02.7-.86,1.19-1.93,1.33-3.03.26-2.07-.56-4.75,2.24-5.2,1.94-.31,3.8.59,5.72.72,1.71.12,3.49-.23,4.45-1.78ZM36.27,230.53c.22-.34.49-.61.79-.85-.54-.34-1.08-.66-1.6-.98-1.31,1.72-1.31,4.08-2.63,5.79-.88,1.14-2.03,1.23-3.37.96-1.29-.26-2.48-.44-3.72.13-.27.12-.51.27-.75.43.13.43.27.86.41,1.3.55-.31,1.17-.5,1.87-.52,1.35-.04,2.6.67,3.97.58.94-.06,1.73-.52,2.36-1.21,1.47-1.6,1.53-3.85,2.67-5.62ZM56.04,254.44c1.39-1.15,2.26-2.87,2.71-4.59.32-1.22.3-2.53.46-3.79-.55-.5-1.11-1-1.69-1.5-.37,2.09-.17,4.2-1.25,6.17-1.24,2.25-3.09,2.91-5.55,2.91-1.78,0-3.51.11-4.77,1.52-1.17,1.31-1.53,3.11-1.78,4.79-.36,2.48-.74,4.78-3.05,6.19-.4.24-.81.43-1.23.58.42.52.86,1.03,1.29,1.55.96-.43,1.84-1.05,2.56-1.9,2.99-3.54.57-10.57,6.91-10.57,2,0,3.78-.02,5.4-1.35ZM65.64,256.24c.35-.69.82-1.3,1.34-1.87-.5-.64-1.02-1.28-1.54-1.92-1.53,1.57-2.35,3.49-2.86,5.61-.55,2.27-.84,4.75-2.32,6.65-1.55,1.99-4.02,1.78-6.07,2.93-1.75.98-3.09,2.57-3.8,4.44-.56,1.45-.73,2.98-.95,4.5.62.53,1.25,1.05,1.89,1.56.02-.09.04-.19.05-.27.4-2.53.7-5.12,2.67-6.97,1.89-1.78,4.48-1.51,6.5-2.93,3.84-2.71,3.17-7.93,5.11-11.71ZM73.37,263.67c-.51.41-1.01.85-1.45,1.33-3.04,3.35-2.67,7.69-3.78,11.78-.57,2.09-1.68,4.22-3.79,5.1-1.7.7-3.62.02-5.1,1.36-.06.05-.09.11-.14.17.88.5,1.77.98,2.67,1.43.48-.12.99-.14,1.49-.17,1-.06,1.88-.21,2.77-.67,1.54-.78,2.66-2.18,3.39-3.71,1.85-3.83,1.03-8.49,3.33-12.14.55-.87,1.2-1.6,1.93-2.23-.43-.75-.87-1.5-1.32-2.25Z"/>
          <path class="cls-11" d="M44.99,234.91c1.68,14.77,9.56,54.52,40.18,55.21,0,0-5.94-21.32-20.11-38.12-4.58-5.43-12.4-11.75-20.07-17.1Z"/>
        </g>
        <g>
          <path class="cls-28" d="M85.18,290.12c-14.04-2.05-26.08-10.93-32.27-37.37-6.19-26.44-7.13-38.38-2.88-41,4.9-3.02,24.05,23.63,30.21,35.35,15.48,29.45,4.93,43.02,4.93,43.02Z"/>
          <path class="cls-24" d="M59.14,241.27c3.5,1.1,8.05,2.27,10.67-1.19,1.28-1.69,1.63-3.98,2.53-5.76-.61-.9-1.24-1.8-1.88-2.7-1.54,2.49-1.5,6.17-4.21,7.6-2.03,1.07-4.44.37-6.5-.25-2.11-.64-4.22-1.27-6.45-.97-1.23.17-2.36.59-3.36,1.18.15.77.33,1.59.49,2.4.45-.26.92-.49,1.4-.67,2.48-.93,4.85-.41,7.3.36ZM54.99,227.59c1.06.43,2.1.86,3.26.62,2.13-.44,3.24-2.5,4.33-4.17.32-.49.67-.97,1.08-1.39-.44-.54-.88-1.07-1.32-1.59-.09.09-.18.17-.27.27-1.33,1.61-2.44,4.88-4.92,4.93-1.2.02-2.34-.77-3.5-1.02-1-.22-2.01-.23-3.03-.06-1.02.16-1.96.54-2.81,1.07.07.61.15,1.25.24,1.89,1.16-.66,2.43-1.1,3.77-1.15,1.11-.04,2.14.18,3.16.6ZM70.31,256.95c1.34-1.96,2.31-4.17,4.29-5.59,2.31-1.66,4.64-1.56,7.15-1.27-.47-.98-.97-1.97-1.5-2.98-1.62-.17-3.2-.2-4.85.31-2.19.68-4.02,2.05-5.35,3.91-1.21,1.69-2.03,3.76-3.59,5.18-2.86,2.61-6.72.33-9.91-.31-.93-.19-1.87-.26-2.8-.22.25.92.5,1.83.76,2.7,1.17-.01,2.4.16,3.69.56,4.76,1.48,8.93,2.36,12.11-2.3ZM86.47,262.09c-.24.07-.47.11-.71.2-1.9.72-3.52,1.97-4.75,3.57-1.36,1.76-2.08,3.89-3.37,5.69-1.5,2.1-3.18,2.62-5.59,1.86-2.11-.67-4.01-1.16-6.17-.45-1.49.48-2.79,1.35-3.91,2.44.48.71.97,1.37,1.46,2.02.88-.76,1.91-1.42,3.02-1.76,1.77-.54,3.2-.06,4.84.6,4.03,1.65,7.46.6,9.93-3.02,1.2-1.76,1.9-3.84,3.25-5.5.8-.98,1.79-1.72,2.9-2.22-.26-1.11-.55-2.25-.9-3.43Z"/>
          <path class="cls-21" d="M80.24,247.1c-1.11-2.12-2.66-4.73-4.46-7.57-6.07,18.77-8.02,46.14,9.4,50.59,0,0,10.55-13.57-4.93-43.02Z"/>
        </g>
        <g>
          <path class="cls-28" d="M92.43,290.12c17.84.96,34.52-9.84,45.33-23.46,10.81-13.62,19.26-41.76,16.82-43.49-2.44-1.73-31.23,16.02-42.04,28.83-14.18,16.8-20.11,38.12-20.11,38.12Z"/>
          <path class="cls-11" d="M92.43,290.12c17.84.96,34.52-9.84,45.33-23.46,10.81-13.62,19.26-41.76,16.82-43.49-2.44-1.73-31.23,16.02-42.04,28.83-14.18,16.8-20.11,38.12-20.11,38.12Z"/>
          <path class="cls-28" d="M135.83,247.21c1.91-.13,3.78-1.03,5.72-.72,2.8.44,1.98,3.12,2.24,5.2.14,1.09.63,2.17,1.33,3.03.33-.67.67-1.34.99-2.02-.39-.69-.63-1.47-.64-2.17-.04-1.69.4-3.53-.76-4.96-2.4-2.97-6.56-.29-9.56-.7-2.76-.38-2.26-2.94-1.96-5,.25-1.71.14-3.34-.73-4.84-.67.47-1.34.94-2.01,1.43.62.97.89,2.13.72,3.46-.23,1.81-.82,3.84.22,5.52.96,1.55,2.75,1.9,4.45,1.78ZM144,236.15c.63.69,1.42,1.15,2.36,1.21,1.36.09,2.62-.62,3.97-.58.71.02,1.33.21,1.87.52.14-.44.28-.87.41-1.3-.23-.16-.48-.3-.75-.43-1.24-.57-2.43-.39-3.72-.13-1.34.27-2.48.19-3.37-.96-1.32-1.71-1.32-4.07-2.63-5.79-.53.32-1.06.64-1.6.98.29.24.57.51.79.85,1.14,1.77,1.21,4.02,2.67,5.62ZM126.96,255.79c6.34,0,3.92,7.03,6.91,10.57.72.86,1.6,1.47,2.56,1.9.43-.51.87-1.03,1.29-1.55-.42-.16-.83-.34-1.23-.58-2.31-1.4-2.69-3.7-3.05-6.19-.25-1.68-.61-3.48-1.78-4.79-1.26-1.42-3-1.52-4.77-1.52-2.47,0-4.32-.65-5.55-2.91-1.08-1.97-.88-4.07-1.25-6.17-.58.5-1.14,1-1.69,1.5.16,1.25.15,2.57.47,3.79.45,1.72,1.31,3.44,2.71,4.59,1.62,1.33,3.4,1.35,5.4,1.35ZM117.08,267.95c2.02,1.42,4.61,1.15,6.5,2.93,1.97,1.85,2.27,4.44,2.67,6.97.01.09.03.18.05.27.64-.51,1.27-1.03,1.89-1.56-.23-1.52-.4-3.05-.95-4.5-.72-1.87-2.05-3.46-3.8-4.44-2.05-1.15-4.52-.93-6.07-2.93-1.48-1.9-1.78-4.38-2.32-6.65-.51-2.12-1.33-4.04-2.86-5.61-.53.63-1.04,1.27-1.54,1.92.52.57.99,1.18,1.34,1.87,1.94,3.78,1.27,9,5.11,11.71ZM102.91,265.93c.73.63,1.39,1.37,1.93,2.23,2.31,3.64,1.48,8.3,3.33,12.14.74,1.53,1.86,2.92,3.39,3.71.9.46,1.78.61,2.77.67.5.03,1.01.05,1.49.17.9-.46,1.79-.93,2.67-1.43-.05-.05-.09-.12-.14-.17-1.48-1.34-3.4-.66-5.1-1.36-2.11-.87-3.22-3-3.79-5.1-1.12-4.09-.74-8.44-3.79-11.78-.44-.48-.93-.92-1.45-1.33-.46.75-.9,1.5-1.32,2.25Z"/>
          <path class="cls-11" d="M132.61,234.91c-1.68,14.77-9.56,54.52-40.18,55.21,0,0,5.94-21.32,20.11-38.12,4.58-5.43,12.4-11.75,20.07-17.1Z"/>
        </g>
        <g>
          <path class="cls-28" d="M92.43,290.12c14.04-2.05,26.08-10.93,32.27-37.37,6.19-26.44,7.13-38.38,2.88-41-4.9-3.02-24.05,23.63-30.21,35.35-15.48,29.45-4.93,43.02-4.93,43.02Z"/>
          <path class="cls-24" d="M125.77,240.91c.48.18.95.41,1.4.67.17-.81.34-1.63.49-2.4-1.01-.6-2.13-1.02-3.36-1.18-2.22-.3-4.34.33-6.45.97-2.05.62-4.46,1.32-6.5.25-2.71-1.43-2.67-5.1-4.21-7.6-.64.9-1.27,1.8-1.88,2.7.89,1.78,1.24,4.07,2.53,5.76,2.62,3.45,7.18,2.28,10.67,1.19,2.45-.77,4.82-1.29,7.3-.36ZM125.77,226.99c1.33.05,2.61.49,3.77,1.15.09-.65.17-1.29.24-1.89-.84-.53-1.78-.91-2.81-1.07-1.01-.16-2.02-.15-3.03.06-1.16.25-2.3,1.04-3.5,1.02-2.47-.04-3.59-3.32-4.92-4.93-.09-.1-.18-.18-.27-.27-.44.52-.88,1.05-1.32,1.59.41.41.76.89,1.08,1.39,1.09,1.67,2.2,3.73,4.33,4.17,1.16.24,2.2-.19,3.26-.62,1.02-.41,2.05-.64,3.16-.6ZM119.41,259.25c1.29-.4,2.52-.58,3.69-.56.26-.88.51-1.78.76-2.7-.93-.04-1.87.03-2.8.22-3.19.63-7.05,2.92-9.91.31-1.56-1.42-2.38-3.49-3.59-5.18-1.33-1.86-3.16-3.23-5.35-3.91-1.65-.51-3.23-.48-4.85-.31-.53,1.01-1.03,2.01-1.5,2.98,2.51-.29,4.84-.39,7.15,1.27,1.98,1.42,2.95,3.63,4.29,5.59,3.19,4.66,7.35,3.78,12.11,2.3ZM90.23,265.53c1.1.5,2.1,1.24,2.9,2.22,1.35,1.66,2.05,3.74,3.25,5.5,2.47,3.62,5.9,4.67,9.93,3.02,1.63-.67,3.07-1.14,4.84-.6,1.11.34,2.14,1,3.02,1.76.5-.65.99-1.31,1.46-2.02-1.12-1.09-2.42-1.96-3.91-2.44-2.16-.7-4.06-.22-6.17.45-2.41.76-4.08.24-5.59-1.86-1.28-1.8-2-3.93-3.37-5.69-1.24-1.6-2.86-2.85-4.75-3.57-.24-.09-.47-.13-.71-.2-.35,1.19-.64,2.33-.9,3.43Z"/>
          <path class="cls-21" d="M97.36,247.1c1.11-2.12,2.66-4.73,4.46-7.57,6.07,18.77,8.02,46.14-9.4,50.59,0,0-10.55-13.57,4.93-43.02Z"/>
        </g>
        <g>
          <path class="cls-28" d="M88.8,293.03c11.84,0,15.77-16.11,14.59-29.08-1.18-12.97-9.38-37.64-14.59-37.64s-13.4,24.67-14.59,37.64c-1.18,12.97,2.75,29.08,14.59,29.08Z"/>
          <path class="cls-26" d="M88.8,293.03c11.84,0,15.77-16.11,14.59-29.08-1.18-12.97-9.38-37.64-14.59-37.64s-13.4,24.67-14.59,37.64c-1.18,12.97,2.75,29.08,14.59,29.08Z"/>
          <path class="cls-24" d="M88.73,243.19c1.89-.37,3.09-1.91,4.41-3.15,1.08-1.01,2.34-1.6,3.66-1.89-.3-.77-.61-1.52-.92-2.24-1.84.49-3.49,1.55-4.99,3.07-.72.73-1.48,1.51-2.47,1.86-1.43.5-2.3-.27-3.24-1.21-1.13-1.12-2.31-1.98-3.89-2.33-.04,0-.08,0-.12-.02-.25.61-.49,1.23-.73,1.87,1.48.26,2.91,1.02,4.13,2.32,1.13,1.21,2.47,2.06,4.19,1.72ZM79.9,257.4c3.95,3.09,7.21-1.3,9.73-3.9,2.11-2.18,4.33-2.63,6.73-.62,1.43,1.2,2.71,2.62,4.51,3.27.46.17.91.27,1.36.33-.15-.74-.31-1.48-.49-2.24-1.84-.46-3.19-1.88-4.8-3.2-3.53-2.89-6.7-1.68-9.49,1.52-1.61,1.85-4.21,5.02-6.86,3.04-1.56-1.16-2.3-3.15-3.93-4.28-.02-.01-.04-.02-.06-.03-.17.65-.33,1.3-.48,1.94,1.54,1.03,2.32,3.01,3.79,4.16ZM84.32,271.58c2.24,2.96,5.02,3.69,8.05,1.15,1.48-1.24,2.45-3,4.06-4.09,2.25-1.52,4.83-.73,7.15.18,0-.71,0-1.41-.03-2.1-1.07-.43-2.14-.83-3.29-1.03-1.81-.31-3.58-.04-5.09,1.03-1.68,1.19-2.7,3.05-4.32,4.29-.88.68-2.27,1.52-3.42,1.09-1.35-.5-2.16-2.19-3.15-3.19-1.25-1.27-2.85-2.19-4.57-2.62-2-.49-3.96-.25-5.66.57-.02.67-.04,1.34-.03,2.02,3.56-1.56,7.67-.79,10.31,2.69ZM95.55,283.65c-1.9,1.47-4.27,2.27-6.68,2-1.28-.14-2.46-.54-3.37-1.47-.66-.67-1.13-1.5-1.8-2.17-1.2-1.2-2.77-1.97-4.45-2.21-1.26-.18-2.52-.04-3.71.31.21.73.43,1.43.68,2.13,1.94-.63,3.97-.61,5.9.81,1.42,1.05,2.1,2.79,3.61,3.77,1.36.89,3.02,1.19,4.62,1.19,1.7,0,3.4-.42,4.91-1.21,1.7-.89,2.91-2.43,4.56-3.39.44-.25.9-.45,1.36-.62.33-.86.62-1.76.88-2.68-.54.06-1.09.16-1.66.35-1.96.65-3.27,1.95-4.85,3.17Z"/>
        </g>
      </g>
    </g>
  </g>
  <g id="Envelope">
    <g id="Envelope-2" data-name="Envelope">
      <g>
        <path class="cls-28" d="M242.1,380.99s0-.07,0-.1c0,0,0-.02,0-.03,0-.03,0-.06-.02-.09,0-.04,0-.08-.03-.13-.02-.05-.03-.1-.06-.15-.09-.2-.26-.39-.49-.55,0-.02-.02-.02-.02-.02-.03-.02-.05-.03-.08-.05s-.05-.04-.08-.05c0,0-.02-.02-.03-.02l-66.41-38.35s-.08-.05-.13-.07c-1.2-.66-2.54-.96-3.86-.91h-.06c-1.13.06-2.25.39-3.26.97,0,0,0,0-.02,0l-4.82,2.78-83.76,48.37-10.67,6.16s-.02.02-.03.02c-.62.49-.96,1.2-1,1.92v5.91c0,.89.43,1.76,1.3,2.27,0,0,0,0,0,0l1.05.6,65.1,37.59c.57.33,1.33.49,2.08.48.69,0,1.38-.17,1.91-.47h.02s89.56-51.71,89.56-51.71l12.99-7.5s.08-.05.12-.09l.08-.05c.41-.29.6-.64.62-1,0-.1-.02-5.39,0-5.74Z"/>
        <path class="cls-19" d="M135.5,447.39s.1.03.15.04c.17.04.34.07.52.09,0,0,0,0,0,0,.13.01.26.02.39.02.05,0,.11,0,.16,0v-5.74c-.73,0-1.46-.15-2.01-.48l-66.14-38.2c-.81-.46-1.3-1.22-1.31-2.41v5.89c0,.89.43,1.76,1.3,2.27,0,0,0,0,0,0l1.05.6,65.1,37.59c.14.08.29.15.45.21.11.04.23.07.34.1Z"/>
        <path class="cls-5" d="M242.1,386.74c-.02.36-.22.71-.62,1l-.08.05s-.08.05-.12.09l-102.56,59.21h-.02c-.53.31-1.22.47-1.91.48h-.06v-5.74c.69,0,1.44-.17,1.98-.47h.02s102.68-59.3,102.68-59.3l.08-.05c.41-.29.6-.64.62-1-.02.35,0,5.64,0,5.74Z"/>
        <path class="cls-18" d="M242.1,380.99c-.02.35-.22.71-.62,1l-.08.05-13.13,7.58-54.25,31.33-35.31,20.39h-.02c-.53.31-1.22.47-1.91.48-.75,0-1.5-.15-2.08-.48l-1.13-.66-50.68-29.27-13.28-7.66-1.05-.6s0,0,0,0c-.9-.52-1.33-1.44-1.3-2.36v-.08c.04-.73.37-1.44,1-1.92,0,0,.02-.02.03-.02l10.67-6.16,83.76-48.37,4.82-2.78s0,0,.02,0c1.01-.59,2.13-.91,3.26-.96h.06c1.32-.06,2.66.24,3.86.9.05.02.08.05.13.07l66.41,38.35s.02.02.03.02c.03.02.06.04.08.05s.05.03.08.05c0,0,.02,0,.02.02.23.16.4.35.49.55.03.05.05.1.06.15.02.05.03.09.03.13.02.04.02.07.02.09,0,.02,0,.02,0,.03,0,.03,0,.06,0,.1Z"/>
      </g>
      <g>
        <path class="cls-13" d="M112.36,406.61c-4.52,2.61-12.45,2.28-17.67-.73s-5.79-7.59-1.27-10.2c4.52-2.61,12.45-2.28,17.67.73,5.22,3.01,5.79,7.59,1.27,10.2ZM94.11,396.08c-4.19,2.42-3.66,6.66,1.18,9.46,4.84,2.8,12.19,3.1,16.38.68,4.19-2.42,3.66-6.66-1.18-9.46-4.84-2.79-12.19-3.1-16.38-.68Z"/>
        <path class="cls-13" d="M110.94,405.8l-.17.04c-8.65,1.93-17.39-3.56-17.48-3.61l-.14-.09v-.11c-.08-1.76.93-3.11,3.39-4.53,2.46-1.42,4.81-2.01,7.85-1.96h.2s.16.09.16.09c.1.05,9.6,5.1,6.26,10.09l-.06.1ZM94.12,401.96c1.13.67,8.65,4.93,16.03,3.38,2.69-4.26-4.68-8.6-5.85-9.26-2.68-.01-4.79.54-7.02,1.82-2.23,1.29-3.18,2.51-3.16,4.05Z"/>
        <path class="cls-13" d="M98.48,399.37l1,.58-.6.54,4.3,2.49c.54.31,1.08.48,1.6.49.52,0,1.01-.11,1.45-.37.45-.26.67-.54.65-.84-.01-.3-.29-.61-.84-.93l-4.3-2.49-.93.34-1-.58,2.96-1.71,1,.58-.6.54,4.3,2.49c.93.53,1.37,1.1,1.35,1.69-.03.59-.47,1.14-1.32,1.63-.85.49-1.79.75-2.82.76-1.03.01-2-.25-2.93-.78l-4.3-2.49-.93.34-1-.58.76-.44,1.43-.83.77-.44Z"/>
        <g>
          <g>
            <g>
              <polygon class="cls-13" points="114.65 408.31 113.86 408.68 111.85 408.15 112.64 407.79 114.65 408.31"/>
              <polygon class="cls-13" points="114.65 408.31 113.86 408.68 114.4 409.89 115.18 409.52 114.65 408.31"/>
            </g>
            <g>
              <polygon class="cls-13" points="112.63 409.22 111.73 409.48 109.9 408.77 110.8 408.51 112.63 409.22"/>
              <polygon class="cls-13" points="112.63 409.22 111.73 409.48 111.88 410.68 112.78 410.42 112.63 409.22"/>
            </g>
            <g>
              <polygon class="cls-13" points="110.36 409.83 109.38 409.98 107.78 409.12 108.76 408.97 110.36 409.83"/>
              <polygon class="cls-13" points="110.36 409.83 109.38 409.98 109.15 411.13 110.12 410.98 110.36 409.83"/>
            </g>
            <g>
              <polygon class="cls-13" points="107.79 410.21 106.78 410.25 105.45 409.27 106.46 409.23 107.79 410.21"/>
              <polygon class="cls-13" points="107.79 410.21 106.78 410.25 106.2 411.3 107.21 411.26 107.79 410.21"/>
            </g>
            <g>
              <polygon class="cls-13" points="105.09 410.31 104.07 410.25 103.03 409.19 104.05 409.25 105.09 410.31"/>
              <polygon class="cls-13" points="105.09 410.31 104.07 410.25 103.18 411.19 104.2 411.25 105.09 410.31"/>
            </g>
            <g>
              <polygon class="cls-13" points="102.35 410.13 101.35 409.98 100.62 408.88 101.63 409.03 102.35 410.13"/>
              <polygon class="cls-13" points="102.35 410.13 101.35 409.98 100.2 410.79 101.2 410.94 102.35 410.13"/>
            </g>
            <g>
              <polygon class="cls-13" points="99.6 409.66 98.64 409.42 98.24 408.31 99.19 408.55 99.6 409.66"/>
              <polygon class="cls-13" points="99.6 409.66 98.64 409.42 97.26 410.08 98.21 410.32 99.6 409.66"/>
            </g>
            <g>
              <polygon class="cls-13" points="96.89 408.91 96.02 408.59 95.94 407.5 96.82 407.82 96.89 408.91"/>
              <polygon class="cls-13" points="96.89 408.91 96.02 408.59 94.45 409.07 95.32 409.4 96.89 408.91"/>
            </g>
            <g>
              <polygon class="cls-13" points="94.37 407.93 93.6 407.54 93.87 406.5 94.64 406.89 94.37 407.93"/>
              <polygon class="cls-13" points="94.37 407.93 93.6 407.54 91.89 407.83 92.66 408.22 94.37 407.93"/>
            </g>
            <g>
              <polygon class="cls-13" points="92.27 406.81 91.63 406.36 92.2 405.41 92.85 405.86 92.27 406.81"/>
              <polygon class="cls-13" points="92.27 406.81 91.63 406.36 89.84 406.47 90.49 406.92 92.27 406.81"/>
            </g>
            <g>
              <polygon class="cls-13" points="90.59 405.57 90.08 405.08 90.92 404.24 91.43 404.72 90.59 405.57"/>
              <polygon class="cls-13" points="90.59 405.57 90.08 405.08 88.27 405.01 88.78 405.5 90.59 405.57"/>
            </g>
            <g>
              <polygon class="cls-13" points="89.27 404.2 88.89 403.69 89.97 402.96 90.34 403.47 89.27 404.2"/>
              <polygon class="cls-13" points="89.27 404.2 88.89 403.69 87.12 403.45 87.49 403.96 89.27 404.2"/>
            </g>
            <g>
              <polygon class="cls-13" points="88.28 402.69 88.05 402.17 89.33 401.59 89.55 402.11 88.28 402.69"/>
              <polygon class="cls-13" points="88.28 402.69 88.05 402.17 86.36 401.78 86.58 402.3 88.28 402.69"/>
            </g>
            <g>
              <polygon class="cls-13" points="87.68 401.11 87.61 400.6 89.05 400.17 89.12 400.68 87.68 401.11"/>
              <polygon class="cls-13" points="87.68 401.11 87.61 400.6 86.04 400.06 86.11 400.57 87.68 401.11"/>
            </g>
            <g>
              <polygon class="cls-13" points="87.56 399.51 87.64 399.03 89.2 398.77 89.11 399.26 87.56 399.51"/>
              <polygon class="cls-13" points="87.56 399.51 87.64 399.03 86.25 398.36 86.17 398.85 87.56 399.51"/>
            </g>
            <g>
              <polygon class="cls-13" points="88 397.92 88.24 397.47 89.86 397.4 89.62 397.85 88 397.92"/>
              <polygon class="cls-13" points="88 397.92 88.24 397.47 87.07 396.7 86.83 397.15 88 397.92"/>
            </g>
            <g>
              <polygon class="cls-13" points="89.06 396.36 89.44 395.96 91.08 396.07 90.69 396.47 89.06 396.36"/>
              <polygon class="cls-13" points="89.06 396.36 89.44 395.96 88.54 395.11 88.15 395.51 89.06 396.36"/>
            </g>
          </g>
          <g>
            <g>
              <polygon class="cls-13" points="115.3 407.94 115.93 407.48 115.02 406.32 114.39 406.77 115.3 407.94"/>
              <polygon class="cls-13" points="115.3 407.94 115.93 407.48 118.03 407.79 117.4 408.25 115.3 407.94"/>
            </g>
            <g>
              <polygon class="cls-13" points="116.88 406.77 117.33 406.25 116.1 405.2 115.65 405.71 116.88 406.77"/>
              <polygon class="cls-13" points="116.88 406.77 117.33 406.25 119.4 406.34 118.95 406.86 116.88 406.77"/>
            </g>
            <g>
              <polygon class="cls-13" points="117.94 405.46 118.19 404.89 116.7 403.97 116.44 404.53 117.94 405.46"/>
              <polygon class="cls-13" points="117.94 405.46 118.19 404.89 120.17 404.76 119.92 405.32 117.94 405.46"/>
            </g>
            <g>
              <polygon class="cls-13" points="118.58 403.98 118.65 403.39 116.96 402.62 116.89 403.21 118.58 403.98"/>
              <polygon class="cls-13" points="118.58 403.98 118.65 403.39 120.48 403.06 120.41 403.64 118.58 403.98"/>
            </g>
            <g>
              <polygon class="cls-13" points="118.75 402.42 118.65 401.83 116.82 401.23 116.92 401.82 118.75 402.42"/>
              <polygon class="cls-13" points="118.75 402.42 118.65 401.83 120.28 401.31 120.39 401.91 118.75 402.42"/>
            </g>
            <g>
              <polygon class="cls-13" points="118.45 400.84 118.19 400.26 116.28 399.84 116.55 400.42 118.45 400.84"/>
              <polygon class="cls-13" points="118.45 400.84 118.19 400.26 119.59 399.59 119.85 400.17 118.45 400.84"/>
            </g>
            <g>
              <polygon class="cls-13" points="117.64 399.25 117.22 398.7 115.29 398.46 115.72 399.01 117.64 399.25"/>
              <polygon class="cls-13" points="117.64 399.25 117.22 398.7 118.35 397.9 118.77 398.45 117.64 399.25"/>
            </g>
            <g>
              <polygon class="cls-13" points="116.34 397.68 115.78 397.18 113.89 397.14 114.45 397.64 116.34 397.68"/>
              <polygon class="cls-13" points="116.34 397.68 115.78 397.18 116.62 396.27 117.18 396.78 116.34 397.68"/>
            </g>
            <g>
              <polygon class="cls-13" points="114.64 396.23 113.95 395.79 112.16 395.94 112.84 396.38 114.64 396.23"/>
              <polygon class="cls-13" points="114.64 396.23 113.95 395.79 114.46 394.8 115.15 395.24 114.64 396.23"/>
            </g>
            <g>
              <polygon class="cls-13" points="112.7 395.02 111.92 394.65 110.27 394.98 111.06 395.35 112.7 395.02"/>
              <polygon class="cls-13" points="112.7 395.02 111.92 394.65 112.1 393.61 112.89 393.99 112.7 395.02"/>
            </g>
            <g>
              <polygon class="cls-13" points="110.55 394.05 109.7 393.75 108.24 394.24 109.08 394.53 110.55 394.05"/>
              <polygon class="cls-13" points="110.55 394.05 109.7 393.75 109.58 392.71 110.43 393 110.55 394.05"/>
            </g>
            <g>
              <polygon class="cls-13" points="108.17 393.28 107.28 393.07 106.03 393.69 106.92 393.9 108.17 393.28"/>
              <polygon class="cls-13" points="108.17 393.28 107.28 393.07 106.87 392.04 107.76 392.26 108.17 393.28"/>
            </g>
            <g>
              <polygon class="cls-13" points="105.56 392.71 104.67 392.58 103.66 393.32 104.55 393.45 105.56 392.71"/>
              <polygon class="cls-13" points="105.56 392.71 104.67 392.58 103.99 391.6 104.88 391.73 105.56 392.71"/>
            </g>
            <g>
              <polygon class="cls-13" points="102.82 392.37 101.94 392.33 101.2 393.15 102.09 393.19 102.82 392.37"/>
              <polygon class="cls-13" points="102.82 392.37 101.94 392.33 101.01 391.42 101.9 391.46 102.82 392.37"/>
            </g>
            <g>
              <polygon class="cls-13" points="100.06 392.3 99.22 392.35 98.77 393.24 99.62 393.19 100.06 392.3"/>
              <polygon class="cls-13" points="100.06 392.3 99.22 392.35 98.06 391.54 98.91 391.49 100.06 392.3"/>
            </g>
            <g>
              <polygon class="cls-13" points="97.3 392.55 96.52 392.69 96.39 393.63 97.17 393.49 97.3 392.55"/>
              <polygon class="cls-13" points="97.3 392.55 96.52 392.69 95.18 392.01 95.96 391.87 97.3 392.55"/>
            </g>
            <g>
              <polygon class="cls-13" points="94.6 393.16 93.91 393.39 94.1 394.33 94.78 394.11 94.6 393.16"/>
              <polygon class="cls-13" points="94.6 393.16 93.91 393.39 92.43 392.86 93.12 392.64 94.6 393.16"/>
            </g>
          </g>
          <g>
            <polygon class="cls-13" points="92.14 393.8 90.5 393.99 90.17 394.94 91.81 394.75 92.14 393.8"/>
            <polygon class="cls-13" points="92.14 393.8 90.17 394.94 91.81 394.75 92.14 393.8"/>
          </g>
        </g>
      </g>
      <path class="cls-13" d="M147.92,372.75l-28.3,16.35c-.75.43-2.07.38-2.94-.12h0c-.87-.5-.96-1.26-.21-1.7l28.3-16.35c.75-.43,2.07-.38,2.94.12h0c.87.5.96,1.26.21,1.7Z"/>
      <path class="cls-13" d="M154.98,376.83l-28.3,16.35c-.75.43-2.07.38-2.94-.12h0c-.87-.5-.96-1.26-.21-1.7l28.3-16.35c.75-.43,2.07-.38,2.94.12h0c.87.5.96,1.26.21,1.7Z"/>
      <path class="cls-13" d="M192.92,374.68l-56.61,32.69c-.75.43-2.07.38-2.94-.12h0c-.87-.5-.96-1.26-.21-1.7l56.61-32.69c.75-.43,2.07-.38,2.94.12h0c.87.5.96,1.26.21,1.7Z"/>
      <path class="cls-13" d="M199.97,378.76l-56.61,32.69c-.75.43-2.07.38-2.94-.12h0c-.87-.5-.96-1.26-.21-1.7l56.61-32.69c.75-.43,2.07-.38,2.94.12h0c.87.5.96,1.26.21,1.7Z"/>
    </g>
  </g>
  <g id="Letter">
    <polygon id="Shadow-5" data-name="Shadow" class="cls-11" points="310.7 452.33 153.31 361.46 283.45 286.33 440.84 377.19 310.7 452.33"/>
    <g id="Sheet">
      <path class="cls-28" d="M281.42,252.35l-2.8-1.62-126.05,72.78v1.62c0,19.95,10.74,38.55,28.02,48.53l130.08,75.1,126.04-72.77v-3.24s-128.67-74.29-128.67-74.29c-16.46-9.51-26.62-27.08-26.61-46.11Z"/>
      <polygon class="cls-4" points="310.67 445.52 436.71 372.75 436.71 375.99 310.66 448.76 310.67 445.52"/>
      <polygon class="cls-26" points="155.37 325.13 152.57 323.51 278.61 250.73 281.42 252.35 155.37 325.13"/>
      <g>
        <path class="cls-28" d="M436.71,372.75l-128.68-74.29c-16.46-9.51-26.62-27.08-26.61-46.11l-126.05,72.78c0,19.01,10.15,36.59,26.62,46.1l128.68,74.29,126.04-72.77h0Z"/>
        <path class="cls-15" d="M184.38,367.09c-14.14-8.17-23.23-23.03-24.15-39.24l116.96-67.53c2.45,17.55,12.92,33.32,28.45,42.29l121.5,70.15-116.48,67.25-126.29-72.91Z"/>
      </g>
      <path class="cls-11" d="M181.99,371.23l128.68,74.29v3.24s-130.08-75.1-130.08-75.1c-17.28-9.98-28.02-28.58-28.02-48.53v-1.62s2.81,1.62,2.81,1.62c0,19.01,10.15,36.59,26.62,46.1Z"/>
    </g>
    <g id="Text">
      <g>
        <path class="cls-9" d="M246.19,289.23l24.55-14.17c.89-.51,1.85-.29,2.15.5.3.79-.18,1.85-1.07,2.37l-24.55,14.17c-.89.51-1.86.29-2.15-.5-.3-.79.18-1.85,1.07-2.37Z"/>
        <path class="cls-9" d="M189.05,341.1l51.27-29.51c.89-.51,1.86-.29,2.15.5.3.79-.18,1.85-1.07,2.37l-51.27,29.51c-.89.51-1.86.29-2.15-.5s.18-1.85,1.07-2.37Z"/>
        <path class="cls-9" d="M197.3,353.54l84.54-48.81c.89-.51,2.29-.54,3.13-.06.84.48.79,1.29-.1,1.81l-84.55,48.81c-.89.51-2.29.54-3.13.06s-.79-1.29.1-1.81Z"/>
        <path class="cls-9" d="M203.35,357.04l84.54-48.81c.89-.51,2.29-.54,3.13-.06.84.48.79,1.29-.1,1.81l-84.55,48.81c-.89.51-2.29.54-3.13.06-.84-.48-.79-1.29.1-1.81Z"/>
        <path class="cls-9" d="M245.72,381.5l84.54-48.81c.89-.51,2.29-.54,3.13-.06.84.48.79,1.29-.1,1.81l-84.55,48.81c-.89.51-2.29.54-3.13.06-.84-.48-.79-1.29.1-1.81Z"/>
        <path class="cls-9" d="M251.78,385l84.54-48.81c.89-.51,2.29-.54,3.13-.06.84.48.79,1.29-.1,1.81l-84.55,48.81c-.89.51-2.29.54-3.13.06-.84-.48-.79-1.29.1-1.81Z"/>
        <path class="cls-9" d="M263.88,391.99l84.54-48.81c.89-.51,2.29-.54,3.13-.06.84.48.79,1.29-.1,1.81l-84.55,48.81c-.89.51-2.29.54-3.13.06s-.79-1.29.1-1.81Z"/>
        <path class="cls-9" d="M269.93,395.48l84.54-48.81c.89-.51,2.29-.54,3.13-.06.84.48.79,1.29-.1,1.81l-84.55,48.81c-.89.51-2.29.54-3.13.06-.84-.48-.79-1.29.1-1.81Z"/>
        <path class="cls-9" d="M285.07,404.22l44.95-25.95c.89-.51,2.29-.54,3.13-.06.84.48.79,1.29-.1,1.81l-44.95,25.95c-.89.51-2.29.54-3.13.06s-.79-1.29.1-1.81Z"/>
        <path class="cls-9" d="M291.37,407.56l44.95-25.95c.89-.51,2.29-.54,3.13-.06.84.48.79,1.29-.1,1.81l-44.95,25.95c-.89.51-2.29.54-3.13.06-.84-.48-.79-1.29.1-1.81Z"/>
      </g>
    </g>
    <g>
      <path class="cls-28" d="M379.53,378.05c-6.1,3.52-16.78,3.08-23.82-.99-7.04-4.06-7.81-10.23-1.71-13.75,6.1-3.52,16.78-3.08,23.82.99,7.04,4.06,7.81,10.23,1.71,13.75ZM354.93,363.85c-5.65,3.26-4.94,8.98,1.59,12.75,6.53,3.77,16.44,4.18,22.09.92,5.65-3.26,4.94-8.98-1.59-12.75-6.53-3.77-16.43-4.18-22.09-.92Z"/>
      <path class="cls-28" d="M377.63,376.95l-.22.05c-11.66,2.6-23.45-4.8-23.57-4.87l-.19-.12v-.15c-.11-2.37,1.25-4.19,4.57-6.11,3.32-1.91,6.48-2.7,10.58-2.64h.27s.21.12.21.12c.13.07,12.94,6.88,8.44,13.61l-.09.13ZM354.95,371.78c1.52.91,11.66,6.65,21.61,4.55,3.63-5.74-6.31-11.6-7.88-12.48-3.62-.02-6.46.72-9.47,2.46-3.01,1.74-4.29,3.38-4.26,5.47Z"/>
      <path class="cls-28" d="M360.82,368.28l1.34.78-.8.73,5.8,3.35c.73.42,1.45.64,2.16.65.71.01,1.36-.15,1.95-.5.6-.35.9-.73.88-1.13-.02-.41-.4-.82-1.13-1.25l-5.8-3.35-1.25.46-1.34-.78,3.99-2.3,1.34.78-.8.73,5.8,3.35c1.25.72,1.85,1.48,1.82,2.28-.03.8-.63,1.54-1.78,2.2-1.15.66-2.42,1.01-3.8,1.02-1.38.02-2.7-.33-3.95-1.05l-5.8-3.35-1.25.46-1.34-.78,1.02-.59,1.93-1.11,1.03-.6Z"/>
      <g>
        <g>
          <g>
            <polygon class="cls-28" points="382.62 380.34 381.56 380.83 378.85 380.12 379.91 379.63 382.62 380.34"/>
            <polygon class="cls-28" points="382.62 380.34 381.56 380.83 382.28 382.46 383.34 381.97 382.62 380.34"/>
          </g>
          <g>
            <polygon class="cls-28" points="379.9 381.57 378.69 381.92 376.22 380.96 377.43 380.61 379.9 381.57"/>
            <polygon class="cls-28" points="379.9 381.57 378.69 381.92 378.88 383.53 380.1 383.18 379.9 381.57"/>
          </g>
          <g>
            <polygon class="cls-28" points="376.83 382.39 375.52 382.59 373.36 381.43 374.68 381.23 376.83 382.39"/>
            <polygon class="cls-28" points="376.83 382.39 375.52 382.59 375.2 384.13 376.52 383.93 376.83 382.39"/>
          </g>
          <g>
            <polygon class="cls-28" points="373.38 382.89 372.01 382.95 370.21 381.63 371.58 381.57 373.38 382.89"/>
            <polygon class="cls-28" points="373.38 382.89 372.01 382.95 371.22 384.37 372.59 384.32 373.38 382.89"/>
          </g>
          <g>
            <polygon class="cls-28" points="369.73 383.03 368.35 382.95 366.96 381.52 368.34 381.6 369.73 383.03"/>
            <polygon class="cls-28" points="369.73 383.03 368.35 382.95 367.16 384.22 368.54 384.3 369.73 383.03"/>
          </g>
          <g>
            <polygon class="cls-28" points="366.04 382.79 364.69 382.58 363.71 381.1 365.06 381.31 366.04 382.79"/>
            <polygon class="cls-28" points="366.04 382.79 364.69 382.58 363.14 383.67 364.49 383.88 366.04 382.79"/>
          </g>
          <g>
            <polygon class="cls-28" points="362.33 382.16 361.04 381.83 360.49 380.33 361.78 380.66 362.33 382.16"/>
            <polygon class="cls-28" points="362.33 382.16 361.04 381.83 359.18 382.72 360.46 383.04 362.33 382.16"/>
          </g>
          <g>
            <polygon class="cls-28" points="358.68 381.15 357.5 380.71 357.4 379.24 358.58 379.68 358.68 381.15"/>
            <polygon class="cls-28" points="358.68 381.15 357.5 380.71 355.38 381.36 356.56 381.8 358.68 381.15"/>
          </g>
          <g>
            <polygon class="cls-28" points="355.28 379.82 354.25 379.29 354.6 377.89 355.64 378.43 355.28 379.82"/>
            <polygon class="cls-28" points="355.28 379.82 354.25 379.29 351.94 379.69 352.98 380.22 355.28 379.82"/>
          </g>
          <g>
            <polygon class="cls-28" points="352.46 378.32 351.59 377.71 352.36 376.43 353.23 377.03 352.46 378.32"/>
            <polygon class="cls-28" points="352.46 378.32 351.59 377.71 349.18 377.85 350.05 378.46 352.46 378.32"/>
          </g>
          <g>
            <polygon class="cls-28" points="350.18 376.64 349.49 375.98 350.63 374.84 351.32 375.5 350.18 376.64"/>
            <polygon class="cls-28" points="350.18 376.64 349.49 375.98 347.06 375.89 347.75 376.55 350.18 376.64"/>
          </g>
          <g>
            <polygon class="cls-28" points="348.4 374.79 347.9 374.1 349.35 373.13 349.85 373.81 348.4 374.79"/>
            <polygon class="cls-28" points="348.4 374.79 347.9 374.1 345.51 373.78 346.01 374.47 348.4 374.79"/>
          </g>
          <g>
            <polygon class="cls-28" points="347.06 372.76 346.76 372.06 348.48 371.28 348.78 371.98 347.06 372.76"/>
            <polygon class="cls-28" points="347.06 372.76 346.76 372.06 344.48 371.53 344.78 372.23 347.06 372.76"/>
          </g>
          <g>
            <polygon class="cls-28" points="346.26 370.63 346.17 369.94 348.1 369.37 348.2 370.05 346.26 370.63"/>
            <polygon class="cls-28" points="346.26 370.63 346.17 369.94 344.05 369.22 344.15 369.9 346.26 370.63"/>
          </g>
          <g>
            <polygon class="cls-28" points="346.1 368.48 346.21 367.82 348.31 367.48 348.19 368.14 346.1 368.48"/>
            <polygon class="cls-28" points="346.1 368.48 346.21 367.82 344.34 366.92 344.22 367.58 346.1 368.48"/>
          </g>
          <g>
            <polygon class="cls-28" points="346.69 366.33 347.01 365.72 349.2 365.62 348.88 366.23 346.69 366.33"/>
            <polygon class="cls-28" points="346.69 366.33 347.01 365.72 345.44 364.68 345.11 365.29 346.69 366.33"/>
          </g>
          <g>
            <polygon class="cls-28" points="348.12 364.22 348.64 363.69 350.84 363.83 350.32 364.37 348.12 364.22"/>
            <polygon class="cls-28" points="348.12 364.22 348.64 363.69 347.42 362.54 346.9 363.07 348.12 364.22"/>
          </g>
        </g>
        <g>
          <g>
            <polygon class="cls-28" points="383.5 379.83 384.35 379.22 383.13 377.65 382.28 378.26 383.5 379.83"/>
            <polygon class="cls-28" points="383.5 379.83 384.35 379.22 387.17 379.64 386.32 380.25 383.5 379.83"/>
          </g>
          <g>
            <polygon class="cls-28" points="385.63 378.26 386.23 377.56 384.57 376.14 383.97 376.84 385.63 378.26"/>
            <polygon class="cls-28" points="385.63 378.26 386.23 377.56 389.02 377.67 388.42 378.37 385.63 378.26"/>
          </g>
          <g>
            <polygon class="cls-28" points="387.05 376.49 387.4 375.73 385.38 374.49 385.04 375.25 387.05 376.49"/>
            <polygon class="cls-28" points="387.05 376.49 387.4 375.73 390.07 375.55 389.72 376.31 387.05 376.49"/>
          </g>
          <g>
            <polygon class="cls-28" points="387.92 374.49 388.02 373.7 385.73 372.67 385.64 373.46 387.92 374.49"/>
            <polygon class="cls-28" points="387.92 374.49 388.02 373.7 390.48 373.25 390.39 374.04 387.92 374.49"/>
          </g>
          <g>
            <polygon class="cls-28" points="388.15 372.39 388.01 371.6 385.55 370.79 385.69 371.58 388.15 372.39"/>
            <polygon class="cls-28" points="388.15 372.39 388.01 371.6 390.22 370.9 390.36 371.7 388.15 372.39"/>
          </g>
          <g>
            <polygon class="cls-28" points="387.75 370.26 387.39 369.48 384.82 368.92 385.18 369.7 387.75 370.26"/>
            <polygon class="cls-28" points="387.75 370.26 387.39 369.48 389.28 368.58 389.64 369.36 387.75 370.26"/>
          </g>
          <g>
            <polygon class="cls-28" points="386.65 368.11 386.09 367.37 383.49 367.06 384.06 367.8 386.65 368.11"/>
            <polygon class="cls-28" points="386.65 368.11 386.09 367.37 387.62 366.3 388.18 367.04 386.65 368.11"/>
          </g>
          <g>
            <polygon class="cls-28" points="384.9 366.01 384.15 365.33 381.6 365.27 382.35 365.95 384.9 366.01"/>
            <polygon class="cls-28" points="384.9 366.01 384.15 365.33 385.27 364.11 386.03 364.79 384.9 366.01"/>
          </g>
          <g>
            <polygon class="cls-28" points="382.61 364.05 381.68 363.45 379.26 363.66 380.19 364.25 382.61 364.05"/>
            <polygon class="cls-28" points="382.61 364.05 381.68 363.45 382.37 362.12 383.29 362.72 382.61 364.05"/>
          </g>
          <g>
            <polygon class="cls-28" points="380 362.42 378.95 361.91 376.72 362.36 377.77 362.86 380 362.42"/>
            <polygon class="cls-28" points="380 362.42 378.95 361.91 379.19 360.52 380.24 361.03 380 362.42"/>
          </g>
          <g>
            <polygon class="cls-28" points="377.09 361.1 375.95 360.71 373.98 361.36 375.12 361.76 377.09 361.1"/>
            <polygon class="cls-28" points="377.09 361.1 375.95 360.71 375.79 359.3 376.93 359.7 377.09 361.1"/>
          </g>
          <g>
            <polygon class="cls-28" points="373.88 360.07 372.69 359.79 371 360.62 372.2 360.91 373.88 360.07"/>
            <polygon class="cls-28" points="373.88 360.07 372.69 359.79 372.14 358.4 373.33 358.69 373.88 360.07"/>
          </g>
          <g>
            <polygon class="cls-28" points="370.37 359.3 369.16 359.13 367.8 360.12 369.01 360.3 370.37 359.3"/>
            <polygon class="cls-28" points="370.37 359.3 369.16 359.13 368.24 357.81 369.45 357.98 370.37 359.3"/>
          </g>
          <g>
            <polygon class="cls-28" points="366.68 358.84 365.48 358.78 364.49 359.9 365.69 359.96 366.68 358.84"/>
            <polygon class="cls-28" points="366.68 358.84 365.48 358.78 364.23 357.56 365.43 357.62 366.68 358.84"/>
          </g>
          <g>
            <polygon class="cls-28" points="362.95 358.75 361.81 358.81 361.22 360.02 362.36 359.96 362.95 358.75"/>
            <polygon class="cls-28" points="362.95 358.75 361.81 358.81 360.26 357.73 361.4 357.66 362.95 358.75"/>
          </g>
          <g>
            <polygon class="cls-28" points="359.23 359.09 358.18 359.28 358.01 360.54 359.06 360.35 359.23 359.09"/>
            <polygon class="cls-28" points="359.23 359.09 358.18 359.28 356.38 358.36 357.43 358.18 359.23 359.09"/>
          </g>
          <g>
            <polygon class="cls-28" points="355.58 359.91 354.66 360.21 354.91 361.49 355.83 361.19 355.58 359.91"/>
            <polygon class="cls-28" points="355.58 359.91 354.66 360.21 352.67 359.51 353.6 359.21 355.58 359.91"/>
          </g>
        </g>
        <g>
          <polygon class="cls-28" points="352.28 360.78 350.06 361.03 349.62 362.31 351.83 362.06 352.28 360.78"/>
          <polygon class="cls-28" points="352.28 360.78 349.62 362.31 351.83 362.06 352.28 360.78"/>
        </g>
      </g>
    </g>
    <path class="cls-22" d="M351.49,394.37c-6.01,2.86-11.5,6.03-16.62,9.42-.51.34-1.02.68-1.52,1.02-1.2-2.47-2.39-4.94-3.59-7.41-.05-.31-.1-.62-.17-.93-.43-2.11-.98-4.26-2.04-6.35-.57-1.12-1.33-2.21-2.49-3.22-.25-.22-1.2-.28-1.09.06.62,1.95,1.54,3.88,2.48,5.81.73,1.51,1.46,3.03,2.19,4.54.1.53.18,1.06.25,1.59.07.57.15,1.14.16,1.7,0,.36-.05.72-.27,1.03-.37-.3-.73-.59-1.1-.89-.2-.16-.71-.19-.93-.1-.47-.3-.98-.58-1.52-.83-.24-.11-.98-.18-.94.08.26,1.54.37,3.08.33,4.61-.78-.74-1.42-1.53-1.91-2.34-.18-.3-1.21-.28-1.06.06.55,1.28.82,2.57.79,3.84-.01.65-.1,1.29-.28,1.92-.12.43-.38,1.33-1.41,1.27-.66-.04-1.21-.45-1.58-.81.91-2.18,1.38-4.53.91-6.86-.12-.63-.33-1.25-.6-1.87-.04-.09-.27-.17-.41-.18-1.15-.14-1.83.28-2.22.82-.43.58-.7,1.23-.85,1.87-.32,1.31-.16,2.68.49,4.03.32.67.76,1.33,1.32,1.97.07.08.14.15.21.23-.77,1.87-2,3.68-4.23,5.03-.67.4-1.43.75-2.28,1.03-.74.24-1.69.54-2.65.43-.02,0-.04,0-.07-.01,2.96-2.6,4.68-5.78,5.6-8.91.67-2.3.86-4.69.3-7.11-.27-1.17-.72-2.34-1.37-3.49-.62-1.1-1.36-2.43-2.89-3.3-1.78-1.01-3.96-.65-5.41.07-1.66.83-2.52,2.06-3.05,3.32-1,2.41-1.26,5.02-1.05,7.58.21,2.58.92,5.24,2.33,7.79.7,1.26,1.67,2.62,3.23,3.67.26.18.55.33.86.47-1.12.93-2.41,1.78-3.91,2.51-.75.36-1.55.69-2.4.99-.37.13.44.5.78.38,2.62-.92,4.76-2.15,6.5-3.58.26.05.54.09.82.1,1.03.04,1.97-.18,2.81-.43,3.8-1.15,5.81-3.49,6.93-5.86.3.19.65.35,1.05.47,1.06.3,2.18.12,2.73-.38.61-.55.7-1.3.8-1.98.15-.93.13-1.89-.05-2.84.39.38.81.76,1.27,1.12.24.19,1.01.24,1.02-.03.09-1.62.01-3.25-.22-4.89.73.42,1.36.89,1.89,1.4.16.15.64.21.88.12.05.04.09.08.14.12.21.18.74.21.95.07.76-.5.86-1.19.82-1.89.79,1.64,1.59,3.29,2.38,4.93-4.26,2.92-8.29,5.97-12.22,9.05-1.31,1.03-2.6,2.06-3.89,3.09-.63.51-1.26,1.01-1.89,1.52-.32.26-.64.52-.96.78-.14.12-.29.23-.43.35-.05.04-.32.22-.43.36-.11-.03-.23-.05-.34-.04-.81.05-.29.62.37.65.38.02.63-.1.83-.25.36-.28.7-.56,1.05-.84,1.23-.98,2.45-1.97,3.69-2.95,2.47-1.97,4.97-3.93,7.52-5.87,2.29-1.74,4.64-3.45,7.06-5.12.73,1.51,1.45,3.01,2.18,4.52.53,1.1,1.05,2.21,1.6,3.31.48.95,1.08,1.9,2.3,2.67.39.24,1.39.06.92-.23-1.09-.69-1.65-1.54-2.09-2.39-.49-.95-.93-1.91-1.4-2.87-.9-1.86-1.8-3.72-2.71-5.58,2.67-1.82,5.43-3.6,8.32-5.31,3.27-1.93,6.7-3.79,10.34-5.5.43-.2-.53-.51-.88-.35ZM325.96,389.28c.67,1.05,1.09,2.15,1.45,3.23-.51-1.07-1.01-2.15-1.45-3.23ZM317.77,406.6c-.63-1.12-.89-2.29-.81-3.41.05-.63.22-1.25.5-1.84.14-.29.29-.59.51-.86.09-.12.29-.36.55-.46.95,2.36.7,4.74.01,6.98-.05.17-.11.34-.16.51-.22-.3-.42-.61-.6-.92ZM306.52,413.64c-.63-.57-1.13-1.17-1.56-1.79-.84-1.21-1.38-2.47-1.83-3.72-.43-1.2-.73-2.41-.92-3.61-.38-2.45-.28-4.88.34-7.23.32-1.24.74-2.51,1.75-3.57.49-.51,1.12-.98,1.94-1.33.74-.31,1.75-.62,2.76-.28.87.29,1.46.86,1.89,1.35.46.54.83,1.1,1.17,1.66.66,1.08,1.13,2.19,1.43,3.3.61,2.24.55,4.47.05,6.62-.54,2.32-1.58,4.58-3.09,6.68-.73,1.01-1.59,1.98-2.61,2.89-.54-.27-.97-.66-1.31-.98ZM347.24,389.46c-.27.34-.59.69-1.08.93-.64.32-1.33.26-2.04-.14-.67-.39-1.25-.85-1.82-1.28-.66-.51-1.28-1.03-1.83-1.58-.19-.18-1.1-.34-.99-.02.8,2.2,1.86,4.55,1.28,6.71-.17.63-1.08,2.58-2.83,1.68-.45-.23-.81-.53-1.13-.83.19-1.18.03-2.42-.3-3.64-.32-1.21-.7-2.49-1.45-3.67-.37-.58-.86-1.14-1.56-1.63-.54-.38-1.47-.72-2.13-.37-.61.32-.41.96-.34,1.42.09.61.25,1.22.46,1.83.42,1.2,1.08,2.4,1.96,3.55.42.56.89,1.11,1.41,1.65.29.3.59.6.91.9-.17.91-.56,1.79-1.28,2.6-.19.22.71.51.91.29.62-.68,1.01-1.41,1.23-2.17.62.44,1.45.8,2.4.78.91-.02,1.56-.37,1.98-.78,1.12-1.11,1.12-2.59.91-3.93-.15-1.02-.49-2.04-.89-3.05.27.22.53.44.8.65.69.54,1.42,1.24,2.48,1.57,1.88.57,3.29-.34,3.89-1.18.2-.27-.78-.52-.97-.28ZM334.96,393.02c-1.7-2.02-2.72-4.2-2.94-6.32-.02-.21-.04-.42.09-.61.02-.03.07-.1.12-.12.03-.02.05-.02.07-.03.19.05.5.32.59.4.6.47,1,1,1.3,1.54.57,1.02.91,2.09,1.21,3.13.29,1,.48,2.01.46,3-.32-.33-.62-.65-.9-.99ZM350.63,389.14c-.4.23.55.54.86.36.4-.23-.55-.54-.86-.36Z"/>
    <path class="cls-28" d="M294.99,315.63l-78.44,45.29,24.5,14.14,78.44-45.29-24.5-14.14ZM220.22,360.92l74.77-43.17,20.82,12.02-74.77,43.17-20.82-12.02ZM254.62,356.25c-.36-.41-.85-.82-1.48-1.23-.75-.47-1.53-.92-2.34-1.35-.7-.36-1.41-.65-2.13-.86-.72-.21-1.43-.33-2.15-.35-.71-.03-1.42.04-2.13.21-.7.17-1.39.45-2.07.84l-3.39,1.96c-.1.06-.14.13-.13.22.01.09.08.17.19.24l10.23,5.9c.11.07.25.1.41.11.16,0,.29-.02.39-.08l3.45-1.99c.66-.38,1.13-.77,1.41-1.17.28-.4.4-.81.35-1.22-.05-.41-.26-.82-.62-1.23ZM252.22,358.1c-.15.23-.42.45-.79.67l-1.91,1.1-7.12-4.11,1.84-1.06c.39-.23.79-.39,1.2-.48.4-.09.81-.13,1.21-.11.4.02.8.08,1.19.19.39.11.76.26,1.11.45.82.43,1.6.88,2.34,1.35.32.21.58.42.78.65.2.23.31.45.34.68.03.23-.03.46-.19.68ZM247.97,362.55s-.08-.04-.12-.06l-13.36-3.84c-.23-.07-.43-.11-.6-.12-.16,0-.32.03-.46.11l-1.51.87c-.15.08-.21.17-.19.27.02.09.09.21.21.34l6.65,7.72s.05.05.1.07c.12.07.25.1.41.11.16,0,.29-.02.39-.08l.99-.57c.18-.11.27-.21.25-.3-.02-.09-.05-.17-.11-.24l-1.17-1.35,4.33-2.5,2.35.67c.11.03.25.05.41.06.16.01.34-.04.52-.14l.99-.57c.1-.06.15-.13.13-.22-.01-.09-.07-.17-.19-.24ZM238.12,363.97l-3-3.48,6.02,1.73-3.02,1.74ZM267.87,351.07l-10.23-5.9c-.12-.07-.25-.1-.41-.11-.16,0-.29.02-.39.08l-.93.54c-.18.11-.26.22-.23.33.03.12.05.2.07.25l2.62,4.52-7.83-1.51c-.09,0-.24-.02-.44-.04-.2-.02-.4.03-.58.13l-.93.54c-.1.06-.15.13-.13.22.01.09.08.17.19.24l10.23,5.9c.12.07.25.1.41.11.16,0,.29-.02.39-.08l1.11-.64c.1-.06.14-.13.13-.22-.01-.09-.07-.17-.19-.24l-6.19-3.57,5.34,1.03c.13.02.28.04.45.04.17,0,.32-.03.45-.1l.71-.41c.13-.07.19-.16.18-.26,0-.1-.03-.19-.07-.26l-1.78-3.09,6.19,3.57c.12.07.25.1.41.11.16,0,.29-.02.39-.08l1.11-.64c.1-.06.14-.13.13-.22-.01-.09-.08-.17-.19-.24ZM297.01,334.24l-1.12-.65c-.12-.07-.25-.1-.41-.11-.16,0-.29.02-.39.08l-4.54,2.62-2.63-1.52,4.13-2.38c.1-.06.14-.13.13-.22-.01-.09-.08-.17-.19-.24l-1.12-.65c-.12-.07-.25-.1-.41-.11-.16,0-.29.02-.39.08l-4.13,2.38-2.52-1.45,4.43-2.56c.1-.06.15-.13.13-.22-.01-.09-.07-.17-.19-.24l-1.12-.65c-.12-.07-.25-.1-.41-.11-.16,0-.29.02-.39.08l-5.91,3.41c-.1.06-.15.13-.13.22.01.09.07.17.19.24l10.23,5.9c.12.07.25.1.41.11.16,0,.29-.02.39-.08l6.02-3.48c.1-.06.14-.13.13-.22-.01-.09-.08-.17-.19-.24ZM286.04,340.57l-8.67-5.01,2.47-1.42c.1-.06.15-.13.13-.22-.01-.09-.07-.17-.19-.24l-1.12-.65c-.12-.07-.25-.1-.41-.11-.16,0-.29.02-.39.08l-6.79,3.92c-.1.06-.14.13-.13.22.01.09.08.17.19.24l1.12.65c.12.07.25.1.41.11.16,0,.29-.02.39-.08l2.47-1.42,8.67,5.01c.12.07.25.1.41.11.16,0,.29-.02.39-.08l1.11-.64c.1-.06.14-.13.13-.22-.01-.09-.08-.17-.19-.24ZM304.72,328.91c-.05-.41-.26-.82-.62-1.23-.36-.41-.85-.82-1.48-1.23-.75-.47-1.53-.92-2.34-1.35-.7-.36-1.41-.65-2.13-.86s-1.43-.33-2.15-.35c-.71-.03-1.42.04-2.13.21s-1.39.45-2.07.84l-3.39,1.96c-.1.06-.14.13-.13.22.01.09.08.17.19.24l10.23,5.9c.12.07.25.1.41.11.16,0,.29-.02.39-.08l3.45-1.99c.66-.38,1.13-.77,1.41-1.17.28-.4.4-.81.35-1.22ZM301.71,329.53c-.15.23-.42.45-.79.67l-1.91,1.1-7.12-4.11,1.84-1.06c.39-.23.79-.39,1.2-.48.4-.09.81-.13,1.21-.11.4.02.8.08,1.19.19.39.11.76.26,1.11.45.82.43,1.6.88,2.34,1.35.32.21.58.42.78.65.2.23.31.45.34.68.03.23-.03.46-.19.68ZM271.86,348.77l-10.23-5.9c-.11-.07-.25-.1-.41-.11-.16,0-.29.02-.39.08l-1.11.64c-.1.06-.15.13-.13.22.01.09.07.17.19.24l10.23,5.9c.12.07.25.1.41.11.16,0,.29-.02.39-.08l1.11-.64c.1-.06.14-.13.13-.22-.01-.09-.08-.17-.19-.24ZM277.91,345.27l-8.67-5.01,2.47-1.42c.1-.06.15-.13.13-.22-.01-.09-.07-.17-.19-.24l-1.12-.65c-.12-.07-.25-.1-.41-.11-.16,0-.29.02-.39.08l-6.79,3.92c-.1.06-.15.13-.13.22.01.09.08.17.19.24l1.12.65c.12.07.25.1.41.11.16,0,.29-.02.39-.08l2.47-1.42,8.67,5.01c.12.07.25.1.41.11.16,0,.29-.02.39-.08l1.11-.64c.1-.06.15-.13.13-.22-.01-.09-.08-.17-.19-.24Z"/>
  </g>
  <g id="Pen">
    <g id="Pen-2" data-name="Pen">
      <path id="Shadow-6" data-name="Shadow" class="cls-11" d="M276.51,451.3l-7.82-8.88h0s0,0,0,0h0l-58.88-34.11s0,0,0,0l-1.66-.96-2.7-1.56-.19-.11s.04.01.06.03l-2.6-1.49s0,0,0-.01l-10.62-6.12c-2.05-1.4-5.13,1.44-6.32,4.31,0,0,0,0,0,0-.19.45-.33.9-.42,1.34-.23,1.19-.03,2.26.85,2.87l8.66,4.99,2.35,1.36s0,.02.02.02l1.94,1.12.18.1,2.25,1.3h0s.06.05.09.07l1.89,1.07,59.89,34.69s0,0,0,0c0,0,0,0,0,0l11.4,2.26,3.1.61c.16.03.3-.02.39-.11.16-.15.21-.42.03-.62l-1.9-2.15Z"/>
      <g id="Pencil">
        <path class="cls-22" d="M195.75,407.81l1.07.61,1.28.74,66.85,38.7c-.4-.89-.09-2.68.83-4.4,1.06-2,2.69-3.58,3.87-3.64l-66.51-38.51-2.46-1.41c1.54,1-3.37,8.88-4.93,7.89Z"/>
        <g>
          <path class="cls-20" d="M203.02,401.26l-2.38-1.36c-.68-.42-1.96.8-3.08,2.41-1.5,2.13-2.71,4.96-1.82,5.51l1.75,1.01.63.35c-.9-.55.32-3.38,1.82-5.51,1.08-1.54,2.31-2.72,3-2.44h0s.05.02.07.04Z"/>
          <path class="cls-28" d="M202.42,400.93c-1.57-.97-6.47,6.94-4.9,7.91l2.38,1.37c-1.57-.97,3.33-8.89,4.9-7.91l-2.38-1.37Z"/>
          <path class="cls-20" d="M207.07,403.6l-2.35-1.35c-1.53-.97-6.34,6.63-5.04,7.84.02.02.05.04.08.07l2.38,1.34c-1.54-1,3.37-8.88,4.93-7.89Z"/>
        </g>
        <path class="cls-16" d="M200.67,399.91v.02s-.03-.02-.03-.02c-.67-.43-1.95.79-3.08,2.41-1.48,2.09-2.69,4.86-1.86,5.47l-9.92-5.7c-.8-.55-.98-1.52-.77-2.59.55-2.89,3.94-6.56,6.08-5.1l9.59,5.51Z"/>
        <g>
          <path class="cls-16" d="M275.97,448.24c-.82,1.11-.74,1.66-.74,1.66l-10.29-2.03c-1.02-1.56-.35-4.09,1.06-5.9l.45.25,9.51,6.01Z"/>
          <path class="cls-8" d="M278.04,450.44l-2.8-.55s-.13-.54.74-1.66l2.44,1.54h0c.16.18.12.42-.03.56-.09.08-.21.13-.35.1Z"/>
          <path class="cls-12" d="M269.63,439.83h0s0,0,0,0l7.06,8.01c-.28.05-.54.19-.73.4l-9.51-6.01-.45-.25c.96-1.23,2.27-2.12,3.63-2.14Z"/>
          <path class="cls-22" d="M275.97,448.24c.19-.28.59-.42.73-.4l1.71,1.94-2.44-1.54Z"/>
        </g>
        <path class="cls-11" d="M266.01,441.97l-80-44.89c-.49.78-.85,1.62-1,2.41-.21,1.08-.02,2.04.77,2.59l9.96,5.73,1.07.61,1.28.74,66.85,38.7c-1.25-1.94.12-4.8,1.06-5.9Z"/>
      </g>
    </g>
  </g>
  <g id="Speech_Bubble" data-name="Speech Bubble">
    <g id="Speech_Bubble-2" data-name="Speech Bubble">
      <g id="Speech_Bubble-3" data-name="Speech Bubble">
        <g>
          <path class="cls-28" d="M61.22,147.44l1-3.11c.54-2.51-9.72,3.41-10.25,5.92l3.3,8.89c.13.29.32.51.55.65.73.45,3.4,1.95,3.63,2.1.73.45,1.81.17,2.11-.78l4.28-14.68c.26-1.24-2.1-.43-4.62,1.02Z"/>
          <path class="cls-24" d="M61.22,147.44l1-3.11c.54-2.51-9.72,3.41-10.25,5.92l3.3,8.89c.13.29.32.51.55.65.73.45,3.4,1.95,3.63,2.1.73.45,1.81.17,2.11-.78l4.28-14.68c.26-1.24-2.1-.43-4.62,1.02Z"/>
        </g>
        <g>
          <path class="cls-28" d="M75.16,87.67l-38.98,22.48c-.73.42-1.32,1.44-1.32,2.28v46.18c0,.84.59,1.86,1.32,2.27l2.41,1.36c.73.41,1.92.41,2.64-.01l38.98-22.48c.73-.42,1.32-1.44,1.32-2.28v-46.18c0-.84-.59-1.86-1.32-2.27l-2.41-1.36c-.73-.41-1.91-.41-2.64.01Z"/>
          <path class="cls-24" d="M75.16,87.67l-38.98,22.48c-.73.42-1.32,1.44-1.32,2.28v46.18c0,.84.59,1.86,1.32,2.27l2.41,1.36c.73.41,1.92.41,2.64-.01l38.98-22.48c.73-.42,1.32-1.44,1.32-2.28v-46.18c0-.84-.59-1.86-1.32-2.27l-2.41-1.36c-.73-.41-1.91-.41-2.64.01Z"/>
          <path class="cls-28" d="M80.22,90.53l-38.98,22.48c-.73.42-1.32,1.44-1.32,2.28v46.18c0,.84.59,1.18,1.32.76l14.92-8.6,2.74,7.6c.53,1.21,2.27,1.12,2.67-.14l3.64-12.69,15.01-8.66c.73-.42,1.32-1.44,1.32-2.28v-46.18c0-.84-.59-1.18-1.32-.76Z"/>
          <path class="cls-3" d="M80.22,90.53l-38.98,22.48c-.73.42-1.32,1.44-1.32,2.28v46.18c0,.84.59,1.18,1.32.76l14.92-8.6,2.74,7.6c.53,1.21,2.27,1.12,2.67-.14l3.64-12.69,15.01-8.66c.73-.42,1.32-1.44,1.32-2.28v-46.18c0-.84-.59-1.18-1.32-.76Z"/>
          <path class="cls-13" d="M58.67,113.72v3.56l-2.36,1.97v15.36c0,1.94.39,3.17,1.17,3.68s1.86.37,3.22-.41c1.38-.8,2.47-1.9,3.26-3.32.79-1.41,1.18-3.09,1.18-5.05v-15.36l-2.35.75v-3.56l9.14-5.28v3.56l-2.36,1.97v15.36c0,3.3-.82,6.32-2.45,9.05-1.63,2.73-3.77,4.86-6.42,6.39-2.64,1.52-4.77,1.86-6.39,1-1.62-.86-2.43-2.93-2.43-6.23v-15.36l-2.35.75v-3.56l2.35-1.36,4.42-2.55,2.36-1.36Z"/>
          <path class="cls-2" d="M81.52,91.05c-.1-.66-.65-.9-1.3-.52l-38.97,22.49c-.36.21-.69.57-.93.99l-5.04-2.91c.24-.4.55-.74.91-.94l38.98-22.49c.72-.42,1.9-.43,2.64-.01l2.41,1.36c.66.38,1.22,1.25,1.31,2.03Z"/>
        </g>
      </g>
    </g>
  </g>
</svg>