<?xml version="1.0" encoding="UTF-8"?>
<svg id="Layer_2" data-name="Layer 2" xmlns="http://www.w3.org/2000/svg" viewBox="0 0 1854.73 1664.57">
  <defs>
    <style>
      .cls-1 {
        fill: #355389;
      }

      .cls-1, .cls-2, .cls-3, .cls-4, .cls-5, .cls-6, .cls-7, .cls-8, .cls-9, .cls-10, .cls-11, .cls-12, .cls-13, .cls-14 {
        stroke-width: 0px;
      }

      .cls-2 {
        fill: #b75742;
      }

      .cls-3 {
        fill: #96d9c9;
      }

      .cls-4 {
        fill: #50bfa5;
      }

      .cls-5 {
        fill: #fff;
      }

      .cls-6 {
        fill: #86b1f2;
      }

      .cls-7 {
        fill: #466eb6;
      }

      .cls-8 {
        fill: #f7cc7f;
      }

      .cls-9 {
        fill: #f48c7f;
      }

      .cls-10 {
        fill: #9bc1f9;
      }

      .cls-11 {
        fill: #f47458;
      }

      .cls-12 {
        fill: #fae0b2;
      }

      .cls-13 {
        fill: #3c8f7c;
      }

      .cls-14 {
        fill: #184655;
      }
    </style>
  </defs>
  <g id="Layer_1-2" data-name="Layer 1">
    <path class="cls-5" d="M1408.13,1661.17c266.89-153.55,446.6-441.59,446.6-771.61C1854.73,398.27,1456.46,0,965.17,0S75.6,398.27,75.6,889.56c0,330.01,179.71,618.06,446.6,771.61"/>
    <polygon class="cls-4" points="678.87 603.98 664.85 608.28 655.44 586.49 634.17 590.25 624.46 575.1 616.79 580.01 629.78 600.28 649.93 596.71 659.73 619.38 680.82 612.91 678.87 603.98"/>
    <polygon class="cls-4" points="1577.78 1387.69 1563.77 1391.99 1554.35 1370.2 1533.08 1373.96 1523.37 1358.81 1515.7 1363.72 1528.69 1383.99 1548.84 1380.43 1558.64 1403.09 1579.73 1396.62 1577.78 1387.69"/>
    <path class="cls-4" d="M592.5,1645.66s-74.8-253.52-80.8-309.45c-6-55.92,35.82-38.59,35.82-38.59,0,0-35.19-106.56-9.74-131.85,25.44-25.29,48.39,21.85,48.39,21.85,0,0,7.7-129.36,34.83-129.41,50.53-.09,49.53,141.08,49.53,141.08,0,0,12.9-55.27,39.95-40.12,40.8,22.85-17.71,133.61-17.71,133.61,0,0,51.99.04,70.25,26.25,32.77,47.03-170.53,326.63-170.53,326.63Z"/>
    <g>
      <path class="cls-4" d="M616.96,1612.1s-215.63-36.06-262.53-74.27c-46.9-38.21-.48-55.44-.48-55.44,0,0-108.32-55.53-107.07-93.29,1.25-37.76,55.07-18.56,55.07-18.56,0,0-91.27-104.08-69.66-123.84,40.25-36.82,145.76,71.37,145.76,71.37,0,0-31.33-51.45,1.67-59.59,49.76-12.28,86.49,114.59,86.49,114.59,0,0-9.33-50.1,24.98-43.43,61.56,11.97,125.78,282.45,125.78,282.45Z"/>
      <path class="cls-13" d="M491.18,1329.65c-34.4-6.22-24.98,43.43-24.98,43.43,0,0-36.73-126.87-86.49-114.59-33,8.14-1.67,59.59-1.67,59.59,0,0-105.52-108.19-145.76-71.37l383.95,365.46c-6.83-34.91-67.38-272.09-125.05-282.51Z"/>
    </g>
    <g>
      <path class="cls-1" d="M678.3,1641.85s-113.56-115.48-170.74-127.51c-57.19-12.03-46.9,28.66-46.9,28.66,0,0-113.46-99.22-139.75-75.18-26.29,24.04,2.15,47.25,2.15,47.25,0,0-94.51-16.75-108.04,14.27-20.79,47.66,134.64,73.59,134.64,73.59,0,0-65.13,4.51-50.03,34.39,22.78,45.06,378.67,4.52,378.67,4.52Z"/>
      <path class="cls-7" d="M215.02,1529.33c13.53-31.01,108.04-14.27,108.04-14.27,0,0-28.44-23.21-2.15-47.25,26.29-24.04,136.23,61.69,136.23,61.69,0,0-25.92-49.54,31.27-37.52,57.19,12.03,189.91,149.86,189.91,149.86l-463.29-112.51Z"/>
    </g>
    <g>
      <path class="cls-8" d="M859.09,450.81c-38.22,6.29-49.58,56.46-17.8,78.9,5.71,4.03,9.66,10.09,11.34,16.87l5.79,23.34c1.59,6.43,7.86,10.56,14.4,9.48l14.48-2.38c6.54-1.08,11.15-6.99,10.6-13.6-2.01-24.09-4.49-32.83,3.34-43.58,22.91-31.43-3.91-75.33-42.14-69.03Z"/>
      <path class="cls-12" d="M862.99,552.8c-2.49-20.64-5.98-42.43-7.17-48.61-21.91,1.21-13.58-21.89-3.47-12.5,2.88,2.68,4.24,6.31,5.14,10.28,7.28-.66,14.39-2.73,20.87-6.08-.35-5.09-.85-8.95.57-12.21,2.15-4.92,8.38-6.26,10.92-1.47.95,1.8,1.12,4.1.43,6.01-1.47,4.07-5.89,6.76-9.75,8.87,1.15,16.41,2.75,32.95,4.76,49.23l-2.07.26c-1.98-16.02-3.56-32.29-4.71-48.44-6.44,3.2-13.44,5.2-20.61,5.88,1.5,7.9,4.81,29.14,7.15,48.52l-2.07.25ZM845.42,499.32c1.95,2.1,5.21,3.02,9.97,2.8-.82-3.51-2.04-6.66-4.45-8.9-5.44-5.06-8.78,2.58-5.51,6.1ZM880.85,484.52c-1.2,2.74-.74,6.25-.47,10.28,3.13-1.78,6.77-4.01,7.94-7.27.83-2.29-.1-5.52-2.43-6.12-.25-.06-4.21,1.2-5.04,3.12Z"/>
      <path class="cls-3" d="M852.46,546c.05.19.12.38.17.58l5.79,23.34c1.59,6.43,7.86,10.56,14.4,9.48l14.48-2.38c6.54-1.08,11.15-6.99,10.6-13.6-.89-10.72-1.88-18.39-2.01-24.56l-43.42,7.14Z"/>
      <path class="cls-12" d="M830.76,433.38l-11.43-20.86c-1.11-2.02-.37-4.55,1.65-5.66,2.02-1.11,4.55-.37,5.66,1.65l11.43,20.86c1.11,2.02.37,4.55-1.65,5.66-2.03,1.11-4.56.36-5.66-1.65Z"/>
      <path class="cls-12" d="M805.77,483.85l-24.91-2.18c-2.29-.2-3.99-2.22-3.79-4.52.2-2.29,2.22-3.99,4.52-3.79l24.91,2.18c2.29.2,3.99,2.22,3.79,4.52-.2,2.29-2.22,3.99-4.52,3.79Z"/>
      <path class="cls-12" d="M781.07,560.24c-1.62-1.64-1.6-4.28.04-5.9,6.12-6.05,12.86-11.55,20.02-16.33,1.91-1.28,4.5-.76,5.78,1.15,1.28,1.91.76,4.5-1.15,5.78-6.72,4.49-13.04,9.65-18.79,15.33-1.63,1.61-4.27,1.61-5.9-.04Z"/>
      <path class="cls-12" d="M892.32,432.26c-2.23-.59-3.55-2.88-2.95-5.1,2.82-10.56,4.55-21.45,5.14-32.37.12-2.3,2.09-4.07,4.39-3.94,2.3.12,4.06,2.09,3.94,4.39-.62,11.49-2.44,22.96-5.41,34.08-.6,2.24-2.9,3.54-5.1,2.95Z"/>
      <path class="cls-12" d="M917.98,464.28c-.66-2.21.58-4.53,2.79-5.2l25.9-7.81c2.21-.66,4.53.58,5.2,2.79.66,2.2-.58,4.53-2.79,5.19l-25.9,7.81c-2.2.66-4.53-.58-5.19-2.79Z"/>
      <path class="cls-12" d="M960.52,533.21c-.37,0-.75-.05-1.13-.16-8.97-2.52-17.7-6.02-25.94-10.4-2.03-1.08-2.8-3.6-1.72-5.64,1.08-2.03,3.61-2.81,5.64-1.73,7.71,4.1,15.88,7.37,24.28,9.73,2.22.62,3.51,2.92,2.88,5.14-.52,1.84-2.19,3.04-4.01,3.04Z"/>
    </g>
    <path class="cls-8" d="M1339.91,717.5l-13.07-30.9-32.87-6.75c-3.74-.77-4.98-5.5-2.09-8l25.35-21.98-3.73-33.34c-.43-3.8,3.69-6.43,6.96-4.46l28.73,17.32,30.56-13.85c3.48-1.58,7.26,1.52,6.4,5.24l-7.59,32.68,22.62,24.78c2.58,2.82.8,7.37-3.01,7.7l-33.43,2.88-16.58,29.17c-1.89,3.32-6.77,3.04-8.26-.48Z"/>
    <polygon class="cls-9" points="1547.94 611.47 1542.57 633.1 1506.81 628.31 1495.05 658.97 1467.7 659.75 1468.1 673.6 1504.68 672.55 1515.82 643.49 1553.02 648.48 1561.11 615.93 1547.94 611.47"/>
    <path class="cls-2" d="M1229.32,1648.5h-628.65c-24.01,0-43.48-20.19-43.48-45.09v-26.81c0-24.91,19.47-45.09,43.48-45.09h628.65c-28.76,32.6-29.25,82.43-1.16,115.64l1.16,1.36Z"/>
    <path class="cls-12" d="M1219.61,1544.9h-348.68c-24.01,0-43.48,20.19-43.48,45.1h0c0,24.9,19.46,45.09,43.48,45.09h348.71c-16.29-27.66-16.26-62.6-.03-90.19Z"/>
    <path class="cls-6" d="M1008.46,1450.24c.91-1.71-.48-3.7-2.59-3.7h-332.64c-26.07,0-47.21,19.02-47.21,42.49h0c0,23.46,21.14,42.49,47.21,42.49h332.73c2.12,0,3.52-2,2.59-3.72h0c-13.17-24.56-13.14-53.11-.1-77.56Z"/>
    <path class="cls-8" d="M1006.36,1454.44h-164.86c-30.6,0-55.41,15.94-55.41,35.6s24.81,35.6,55.41,35.6h165.94c-11.34-22.66-11.66-48.45-1.08-71.21Z"/>
    <g>
      <path class="cls-2" d="M963.79,1471.32h-21.47c-4.62,0-8.36,1.55-8.36,3.46v.31h29.83v-3.77Z"/>
      <path class="cls-11" d="M982.1,1480.01c0-4.8-5.61-8.68-12.52-8.68h-27.55c5.25,0,9.5,2.95,9.5,6.59l-.13,93.09,15.22-11.97,15.52,11.97-.03-90.99Z"/>
    </g>
    <g>
      <path class="cls-12" d="M947.3,1443.47h-193.55c-17.16,0-31.08-16.51-31.08-36.88h0c0-20.37,13.91-36.88,31.08-36.88h193.55c-14.79,20.45-15.37,50.44-1.38,71.67l1.38,2.1Z"/>
      <path class="cls-7" d="M722.7,1406.59h0c0-20.37,14.24-36.88,31.81-36.88h196.48c.92,0,1.66-.87,1.65-1.93h0c0-1.05-.74-1.89-1.65-1.89h-311.7c-19.39,0-35.11,18.22-35.11,40.71h0c0,22.48,15.72,40.71,35.11,40.71h311.69c.9,0,1.64-.85,1.65-1.89h0c0-1.06-.73-1.93-1.65-1.93h-196.48c-17.57,0-31.81-16.51-31.81-36.88Z"/>
      <g>
        <path class="cls-14" d="M913.51,1387.83h-21.47c-4.62,0-8.36,1.52-8.36,3.4v.3h29.83v-3.7Z"/>
        <path class="cls-13" d="M931.82,1396.35c0-4.7-5.61-8.52-12.52-8.52h-27.55c5.25,0,9.5,2.89,9.5,6.46l-.13,91.29,15.22-11.74,15.52,11.74-.03-89.23Z"/>
      </g>
    </g>
    <g>
      <path class="cls-8" d="M497.75,880.7l-190.86-35.54c-3.83-.71-6.36-4.4-5.65-8.23l23.91-128.39c.71-3.83,4.4-6.36,8.23-5.65l190.86,35.54c3.83.71,6.36,4.4,5.65,8.23l-23.91,128.39c-.71,3.83-4.4,6.36-8.23,5.65Z"/>
      <path class="cls-8" d="M406.9,733.92l-58.1-10.82c-3.83-.71-6.36-4.4-5.65-8.23l3.64-19.54c.71-3.83,4.4-6.36,8.23-5.65l58.1,10.82c3.83.71,6.36,4.4,5.65,8.23l-3.64,19.54c-.71,3.83-4.4,6.36-8.23,5.65Z"/>
      <path class="cls-12" d="M506.44,875.79c-.99,3.51-4.5,5.69-8.09,5.02l-192.1-35.77c-3.57-.67-6.06-3.93-5.74-7.56l10.05-115.09c.17-1.98,1.18-3.8,2.76-5.01,1.59-1.2,3.61-1.68,5.56-1.32l213.41,39.74c1.95.36,3.66,1.53,4.71,3.22,1.05,1.69,1.34,3.73.8,5.64l-31.36,111.12Z"/>
    </g>
    <polygon class="cls-4" points="1381.84 455.26 1349.16 464.18 1342.12 424.57 1352.82 422.67 1357.77 450.57 1378.98 444.78 1381.84 455.26"/>
    <g>
      <path class="cls-1" d="M340.62,999.18c8.18-.67,20.75,2.94,26.38,6.76.85.79,7.33,3.37,14.06,14.53l-1.52,1.05c-7.11-7.44-11.89-9.11-17.58-10.81-9.38-2.41-18.84-.61-19.62-.19l-1.73-11.33Z"/>
      <path class="cls-11" d="M380.3,1021s-49.87,8.32-45.22,47.28c4.65,38.96,57.26,69.26,104.21,45.17,63.16-32.41,38.22-114.82-6.74-121.19-44.96-6.37-52.25,28.74-52.25,28.74Z"/>
      <path class="cls-9" d="M401.46,1003.84s13.01-13.36,41.52-1.2c28.51,12.15,30.57,68.82,5.14,65.53-25.42-3.29-66.99-56.14-46.66-64.32Z"/>
    </g>
    <g>
      <path class="cls-6" d="M744.52,486.29l-205.1,73.16c-6.61,2.36-13.88-1.09-16.24-7.7l-37.86-106.13c-2.36-6.61,1.09-13.88,7.7-16.24l205.1-73.16c6.61-2.36,13.88,1.09,16.24,7.7l37.86,106.12c2.36,6.61-1.09,13.88-7.7,16.24Z"/>
      <path class="cls-5" d="M608.57,459.02c7.54,21.14-3.48,44.4-24.63,51.94-21.14,7.54-44.4-3.48-51.94-24.63-7.54-21.14,3.48-44.4,24.63-51.94,21.14-7.54,44.4,3.48,51.94,24.63Z"/>
      <path class="cls-6" d="M576.11,453.33c2.22,6.23-1.03,13.09-7.26,15.32-6.23,2.22-13.09-1.03-15.32-7.26s1.03-13.09,7.26-15.32c6.23-2.22,13.09,1.03,15.32,7.26Z"/>
      <path class="cls-6" d="M569.55,475.22h9.9c7.84,0,14.2,6.36,14.2,14.2v4.3h-38.3v-4.3c0-7.84,6.36-14.2,14.2-14.2Z" transform="translate(-129.38 221.18) rotate(-19.63)"/>
      <path class="cls-5" d="M613.63,436.83c-2.19,0-4.15-1.38-4.88-3.44-.96-2.69.45-5.66,3.14-6.62l89.66-31.98c.56-.2,1.15-.3,1.74-.3,2.19,0,4.15,1.38,4.88,3.44.96,2.69-.45,5.66-3.14,6.62l-89.66,31.98c-.56.2-1.15.3-1.74.3Z"/>
      <path class="cls-5" d="M637.83,459.18c-2.19,0-4.15-1.38-4.88-3.44-.96-2.69.45-5.66,3.14-6.62l70.03-24.98c.56-.2,1.15-.3,1.74-.3,2.19,0,4.15,1.38,4.88,3.44.46,1.3.39,2.71-.2,3.96-.59,1.25-1.64,2.2-2.94,2.66l-70.03,24.98c-.56.2-1.15.3-1.74.3Z"/>
    </g>
    <path class="cls-11" d="M1063.2,1286.78h-495.24c-15.38,0-27.85,12.47-27.85,27.85v23.42c0,15.38,12.47,27.85,27.85,27.85h495.24l-.26-.27c-21.19-22.05-21.07-56.93.26-78.84Z"/>
    <path class="cls-12" d="M1054.43,1298.49h-264.75c-15.38,0-27.85,12.47-27.85,27.85h0c0,15.38,12.47,27.85,27.85,27.85h264.74c-9.73-17.24-9.72-38.46,0-55.69Z"/>
    <g>
      <g>
        <path class="cls-12" d="M1468.52,1289.06l-37.54-94.18c-1.89-4.74.42-10.11,5.16-12l135.09-53.84c4.74-1.89,10.11.42,12,5.16l37.54,94.18c1.89,4.74-.42,10.11-5.16,12l-135.08,53.84c-4.74,1.89-10.11-.42-12-5.16Z"/>
        <path class="cls-7" d="M1595.95,1234.6l-33.73-84.63c-.54-1.36.12-2.9,1.48-3.44h0c1.36-.54,2.9.12,3.44,1.48l33.73,84.63c.54,1.36-.12,2.9-1.48,3.44h0c-1.36.54-2.9-.12-3.44-1.48Z"/>
        <path class="cls-7" d="M1579.88,1223.45l-27.7-69.49c-.54-1.36.12-2.9,1.48-3.44h0c1.36-.54,2.9.12,3.44,1.48l27.7,69.49c.54,1.36-.12,2.9-1.48,3.44h0c-1.36.54-2.9-.12-3.44-1.48Z"/>
        <path class="cls-7" d="M1575.88,1242.6l-33.73-84.63c-.54-1.36.12-2.9,1.48-3.44h0c1.36-.54,2.9.12,3.44,1.48l33.73,84.63c.54,1.36-.12,2.9-1.48,3.44h0c-1.36.54-2.9-.12-3.44-1.48Z"/>
        <path class="cls-7" d="M1558.15,1227.28l-26.04-65.32c-.54-1.36.12-2.9,1.48-3.44h0c1.36-.54,2.9.12,3.44,1.48l26.04,65.32c.54,1.36-.12,2.9-1.48,3.44h0c-1.36.54-2.9-.12-3.44-1.48Z"/>
        <g>
          <path class="cls-1" d="M1595.04,1140.94l-.68-1.7c-.25-.63-.93-.95-1.52-.71l-12.82,5.11c-.59.23-.87.93-.62,1.56l.68,1.7c.25.63.93.95,1.52.71l12.82-5.11c.59-.23.87-.93.62-1.56Z"/>
          <path class="cls-1" d="M1597.95,1148.23l-.68-1.7c-.25-.63-.93-.95-1.52-.71l-12.82,5.11c-.59.23-.87.93-.62,1.56l.68,1.7c.25.63.93.95,1.52.71l12.82-5.11c.59-.24.86-.93.62-1.56Z"/>
          <path class="cls-1" d="M1600.85,1155.52l-.68-1.7c-.25-.63-.93-.95-1.52-.71l-12.82,5.11c-.59.23-.87.93-.62,1.56l.68,1.7c.25.63.93.95,1.52.71l12.82-5.11c.59-.23.87-.93.62-1.56Z"/>
          <path class="cls-1" d="M1603.76,1162.81l-.68-1.7c-.25-.63-.93-.95-1.52-.71l-12.82,5.11c-.59.24-.87.93-.62,1.56l.68,1.7c.25.63.93.95,1.52.71l12.82-5.11c.59-.24.87-.93.62-1.56Z"/>
          <path class="cls-1" d="M1606.67,1170.1l-.68-1.7c-.25-.63-.93-.95-1.52-.71l-12.82,5.11c-.59.24-.87.94-.62,1.56l.68,1.7c.25.63.93.95,1.52.71l12.82-5.11c.59-.24.87-.93.62-1.56Z"/>
          <path class="cls-1" d="M1609.57,1177.39l-.68-1.7c-.25-.63-.93-.95-1.52-.71l-12.82,5.11c-.59.24-.87.93-.62,1.56l.68,1.7c.25.63.93.95,1.52.71l12.82-5.11c.59-.24.87-.93.62-1.56Z"/>
          <path class="cls-1" d="M1612.48,1184.68l-.68-1.7c-.25-.63-.93-.95-1.52-.71l-12.82,5.11c-.59.24-.87.93-.62,1.56l.68,1.7c.25.63.93.95,1.52.71l12.82-5.11c.59-.24.87-.93.62-1.56Z"/>
          <path class="cls-1" d="M1615.38,1191.97l-.68-1.7c-.25-.63-.93-.95-1.52-.71l-12.82,5.11c-.59.24-.87.93-.62,1.56l.68,1.7c.25.63.93.95,1.52.71l12.82-5.11c.59-.24.87-.93.62-1.56Z"/>
          <path class="cls-1" d="M1618.29,1199.25l-.68-1.7c-.25-.63-.93-.95-1.52-.71l-12.82,5.11c-.59.24-.87.93-.62,1.56l.68,1.7c.25.63.93.95,1.52.71l12.82-5.11c.59-.24.87-.93.62-1.56Z"/>
          <path class="cls-1" d="M1621.19,1206.54l-.68-1.7c-.25-.63-.93-.95-1.52-.71l-12.82,5.11c-.59.24-.87.93-.62,1.56l.68,1.7c.25.63.93.95,1.52.71l12.82-5.11c.59-.24.87-.94.62-1.56Z"/>
          <path class="cls-1" d="M1624.1,1213.83l-.68-1.71c-.25-.63-.93-.95-1.52-.71l-12.82,5.11c-.59.24-.87.93-.62,1.56l.68,1.7c.25.63.93.95,1.52.71l12.82-5.11c.59-.24.87-.93.62-1.56Z"/>
          <path class="cls-1" d="M1627,1221.12l-.68-1.7c-.25-.63-.93-.95-1.52-.71l-12.82,5.11c-.59.23-.87.93-.62,1.56l.68,1.7c.25.63.93.95,1.52.71l12.82-5.11c.59-.24.87-.93.62-1.56Z"/>
        </g>
      </g>
      <g>
        <path class="cls-2" d="M1662.42,1213.62l-53.61,76.34c-.12.17-.21.36-.28.56l-5.46,16.77c-.64,1.95,1.62,3.56,3.26,2.33l14.35-10.82c.18-.13.33-.29.46-.47l53.75-76.54c.69-.98.42-2.33-.59-2.98l-9.02-5.76c-.95-.61-2.2-.36-2.85.56Z"/>
        <path class="cls-8" d="M1621.07,1298.42l-.13.19-13.85,10.44-3.78-2.53,5.18-15.9c4.06,2.22,8.92,4.5,12.57,7.8Z"/>
      </g>
    </g>
    <g>
      <path class="cls-7" d="M1119.28,387.15c7.72,6.16,21.14,25.98,38.27,39.89,10.02,8.14,17.74,6.07,30.53,7.61,60.68,7.33,44.24,19.74,51.52,20.96-2.07,4.76-20.97,44.94-24.5,53.07-3.26,7.49-8.89,10.85-17.05,9.72-12.55-1.73-25.21-3.03-37.57-5.7-31.67-6.87-49.29-22.71-71.99-41.95-6.02-5.1-7.5-11.47-4.38-18.68,14.53-33.57,33.61-61.83,35.18-64.92Z"/>
      <path class="cls-6" d="M1246.17,503.96c-.27,13.22.74,15.88-4.94,13.87-3.42-1.21-6.73-2.78-9.96-4.45-2.28-1.18-2.37-2.73-.52-4.59,2.69-2.71,5.46-5.34,8.16-7.97-1.97-5.19.29-11.22,5.14-14.06.99-.58.27.65,8.72-18.8-27.95-3.45-47.66-5.76-81.76-9.95-9.12-1.12-17.22-4.66-24.27-10.56-24.35-20.38-48.7-40.75-73.04-61.15-3.3-2.77-3.72-6.82-1.1-9.94,2-2.39,4.66-2.5,7.52-2.14,7.78.98,84.07,10.45,91.82,11.36,10.18,1.19,19.14,5.02,27.01,11.61,23.92,20.03,47.91,40,71.86,59.99,3.29,2.74,4.18,5.26,3.02,8.31-1.27,3.35-4.04,4.95-8.23,4.05-3.02-.65-4.36.26-5.4,3.06-4.7,12.65-7.98,15.45-6.84,20.07.88,3.56-3.36,9.74-7.19,11.28Z"/>
    </g>
    <g>
      <path class="cls-7" d="M1372.73,1402.3l13.9,13.26c32.89,31.37,59.71,68.53,79.11,109.62l2.13,4.51s36.41,3.22,41.49-29.7h0c-31.94-36.07-58.24-74.57-79.94-117.4l-6.58-15.39-50.12,35.1Z"/>
      <path class="cls-6" d="M1422.82,1367.15c1.79,2.56-7.98,12.46-21.81,22.11-13.83,9.65-26.56,15.51-28.35,12.95-1.79-2.56,8.04-12.58,21.88-22.23,13.83-9.65,26.5-15.39,28.28-12.83Z"/>
      <path class="cls-1" d="M1422.88,1367.24l-.04-.05s-27.71,23.46-39.14,25.85l3.53,4.8c4.17-2.26,8.91-5.19,13.79-8.59,13.67-9.54,23.37-19.32,21.87-22.02Z"/>
      <g>
        <path class="cls-2" d="M1459.9,1435.35c.05,4.04-1.5,21.5-30.54,28.78,1.91,2.6,3.79,5.23,5.63,7.88,18.38-5.43,26.65-14.87,30.36-22.06.59-1.14,1.3-2.66,1.77-3.84-2.45-3.56-4.86-7.15-7.23-10.76Z"/>
        <polygon class="cls-2" points="1431.97 1458.98 1389.23 1457.45 1399.36 1466.04 1393.31 1477.02 1433.76 1466.71 1431.97 1458.98"/>
        <polygon class="cls-2" points="1435.87 1468.91 1420.68 1495.37 1431.36 1491.3 1435.47 1499.7 1442.61 1471.88 1435.87 1468.91"/>
        <path class="cls-11" d="M1441.66,1476.09c-7.5.53-14.03-5.31-14.58-13.04-.55-7.73,5.09-14.43,12.6-14.96,7.5-.53,14.03,5.31,14.58,13.04.55,7.73-5.09,14.43-12.6,14.96Z"/>
      </g>
    </g>
    <g>
      <path class="cls-10" d="M1532.38,875.92l-90-80.31c-5.85-5.22-3.41-15.96,4.66-20.53l71.83-40.67c4.6-2.6,9.78-2.36,13.11.61l90,80.31c5.85,5.22,3.41,15.96-4.66,20.53l-71.83,40.67c-4.6,2.6-9.78,2.36-13.11-.61Z"/>
      <path class="cls-5" d="M1528.12,812.03l-7.5-61.7c-.29-2.36,1.43-4.89,3.84-5.64,2.41-.75,4.6.56,4.88,2.92l6.91,56.78,68.25,16.5c2.22.54,3.25,2.94,2.29,5.36-.96,2.42-3.55,3.95-5.78,3.41l-72.89-17.63Z"/>
    </g>
    <path class="cls-14" d="M8.72,1647.76c-4.82,0-8.72,4.52-8.72,10.09s3.9,10.09,9.76,3.32h1772.62c2.27,0,4.11-2.98,4.13-6.66h0c.01-3.72-1.84-6.75-4.13-6.75H8.72Z"/>
    <polygon class="cls-8" points="352.85 529.4 362.15 547.8 383.17 547.12 392.14 568.49 414.3 560.86 425.51 584.58 446.78 580.07 461.3 601.12 453.33 606.62 442.48 590.88 420.03 595.63 409.25 572.83 386.72 580.59 376.82 557.01 356.3 557.67 347.68 540.62 334.29 543.87 332 534.47 352.85 529.4"/>
    <polygon class="cls-4" points="1478.4 1000.18 1497.51 1007.94 1512.91 993.62 1533.7 1003.84 1545.4 983.53 1569.43 994.05 1582.51 976.67 1607.29 983.01 1604.89 992.39 1586.36 987.65 1572.56 1005.98 1549.46 995.87 1537.57 1016.52 1514.62 1005.25 1499.58 1019.23 1481.87 1012.03 1473.92 1023.28 1466.01 1017.69 1478.4 1000.18"/>
  </g>
</svg>