<?xml version="1.0" encoding="UTF-8"?>
<svg id="Layer_2" data-name="Layer 2" xmlns="http://www.w3.org/2000/svg" xmlns:xlink="http://www.w3.org/1999/xlink" viewBox="0 0 2790.43 2791.38">
  <defs>
    <style>
      .cls-1 {
        fill: url(#linear-gradient-12);
      }

      .cls-1, .cls-2, .cls-3, .cls-4, .cls-5, .cls-6, .cls-7, .cls-8, .cls-9, .cls-10, .cls-11, .cls-12, .cls-13, .cls-14, .cls-15, .cls-16, .cls-17, .cls-18, .cls-19, .cls-20, .cls-21, .cls-22, .cls-23 {
        stroke-width: 0px;
      }

      .cls-2 {
        fill: url(#linear-gradient-17);
      }

      .cls-3 {
        fill: url(#linear-gradient-19);
      }

      .cls-4 {
        fill: url(#linear-gradient);
      }

      .cls-5 {
        fill: url(#linear-gradient-6);
      }

      .cls-6 {
        fill: #7d97f4;
      }

      .cls-7 {
        fill: #bdd0fb;
      }

      .cls-8 {
        fill: #fff;
        opacity: .5;
      }

      .cls-9 {
        fill: url(#linear-gradient-15);
      }

      .cls-10 {
        fill: url(#linear-gradient-11);
      }

      .cls-11 {
        fill: url(#linear-gradient-5);
      }

      .cls-12 {
        fill: url(#linear-gradient-13);
      }

      .cls-13 {
        fill: url(#linear-gradient-16);
      }

      .cls-24 {
        opacity: .3;
      }

      .cls-14 {
        fill: url(#linear-gradient-14);
      }

      .cls-15 {
        fill: url(#linear-gradient-2);
      }

      .cls-16 {
        fill: url(#linear-gradient-7);
      }

      .cls-17 {
        fill: url(#linear-gradient-3);
      }

      .cls-18 {
        fill: url(#linear-gradient-9);
      }

      .cls-19 {
        fill: url(#linear-gradient-8);
      }

      .cls-20 {
        fill: url(#linear-gradient-18);
      }

      .cls-21 {
        fill: #91b3fa;
      }

      .cls-22 {
        fill: url(#linear-gradient-10);
      }

      .cls-23 {
        fill: url(#linear-gradient-4);
      }
    </style>
    <linearGradient id="linear-gradient" x1="2959.31" y1="3148.41" x2="911.89" y2="938.49" gradientUnits="userSpaceOnUse">
      <stop offset="0" stop-color="#dae3fe"/>
      <stop offset="1" stop-color="#e9effd"/>
    </linearGradient>
    <linearGradient id="linear-gradient-2" x1="1885.13" y1="206.94" x2="1878.39" y2="-904.71" gradientUnits="userSpaceOnUse">
      <stop offset="0" stop-color="#e1473d"/>
      <stop offset="1" stop-color="#e9605a"/>
    </linearGradient>
    <linearGradient id="linear-gradient-3" x1="1584.7" y1="-2014.71" x2="1780.08" y2="-323.65" gradientUnits="userSpaceOnUse">
      <stop offset="0" stop-color="#ff928e"/>
      <stop offset="1" stop-color="#fe7062"/>
    </linearGradient>
    <linearGradient id="linear-gradient-4" x1="2462.96" y1="-842.49" x2="2038.53" y2="178.16" gradientUnits="userSpaceOnUse">
      <stop offset="0" stop-color="#febbba"/>
      <stop offset="1" stop-color="#ff928e"/>
    </linearGradient>
    <linearGradient id="linear-gradient-5" x1="2388.11" y1="-530.59" x2="2024.32" y2="444.59" xlink:href="#linear-gradient-4"/>
    <linearGradient id="linear-gradient-6" x1="1534.63" y1="-2008.92" x2="1730.01" y2="-317.86" xlink:href="#linear-gradient-3"/>
    <linearGradient id="linear-gradient-7" x1="2075.64" y1="563.81" x2="1823.01" y2="1084.24" xlink:href="#linear-gradient-4"/>
    <linearGradient id="linear-gradient-8" x1="2466.58" y1="-125.73" x2="1819.83" y2="1379.98" xlink:href="#linear-gradient-4"/>
    <linearGradient id="linear-gradient-9" x1="1488.12" y1="-2003.55" x2="1683.5" y2="-312.49" xlink:href="#linear-gradient-3"/>
    <linearGradient id="linear-gradient-10" x1="2457.44" y1="37.28" x2="1739.95" y2="1724.9" xlink:href="#linear-gradient-4"/>
    <linearGradient id="linear-gradient-11" x1="2418.11" y1="637.13" x2="1978.52" y2="1480.93" xlink:href="#linear-gradient-4"/>
    <linearGradient id="linear-gradient-12" x1="1439.45" y1="-1997.93" x2="1634.83" y2="-306.87" xlink:href="#linear-gradient-3"/>
    <linearGradient id="linear-gradient-13" x1="2400.35" y1="583.31" x2="1950.66" y2="1654.48" xlink:href="#linear-gradient-4"/>
    <linearGradient id="linear-gradient-14" x1="2448.91" y1="965.82" x2="1918.38" y2="2016.78" xlink:href="#linear-gradient-4"/>
    <linearGradient id="linear-gradient-15" x1="-1185.84" y1="2346.49" x2="-700.74" y2="891.19" gradientTransform="translate(233.35) rotate(-180) scale(1 -1)" gradientUnits="userSpaceOnUse">
      <stop offset="0" stop-color="#09005d"/>
      <stop offset="1" stop-color="#1a0f91"/>
    </linearGradient>
    <linearGradient id="linear-gradient-16" x1="175.49" y1="1776.12" x2="2261.1" y2="1776.12" gradientUnits="userSpaceOnUse">
      <stop offset="0" stop-color="#4f52ff"/>
      <stop offset="1" stop-color="#4042e2"/>
    </linearGradient>
    <linearGradient id="linear-gradient-17" x1="-56.84" y1="2259.44" x2="-2217.57" y2="2785.02" gradientTransform="translate(2188.19 4966.73) scale(1 -1)" xlink:href="#linear-gradient-15"/>
    <linearGradient id="linear-gradient-18" x1="-50.07" y1="1329.13" x2="1101.02" y2="1329.13" gradientTransform="translate(3393.04 1364.67) rotate(-153.14) scale(1 -1)" xlink:href="#linear-gradient-15"/>
    <linearGradient id="linear-gradient-19" x1="-1436.73" y1="952.46" x2="-261.09" y2="952.46" gradientTransform="translate(1248.21 168.97) rotate(-155.52) scale(1 -1)" xlink:href="#linear-gradient-15"/>
  </defs>
  <g id="Illustration">
    <path class="cls-4" d="M2673.99,1889.06c-281.33,657.58-1023.96,940.02-1605.81,891.87-158.87-13.15-478.52-39.61-728.11-275.63-479.31-453.27-405.49-1400.74,53.35-1958.55C452.51,474.91,861.51-6.38,1498.87.06c466.64,4.72,794.17,268.32,834,301.16,50.31,41.49,161.28,140.07,261.29,296.46,234.98,367.47,255.64,880.46,79.84,1291.38Z"/>
    <g>
      <rect class="cls-15" x="1101.95" y="661.27" width="1579.89" height="1323.88"/>
      <g>
        <path class="cls-17" d="M2736.65,489.51l-1690.54,10.64c-22.93.14-41.85,16.92-41.85,37.48v252.23c0,19.79,17.85,35.95,39.92,36.09l1692.48,10.65c25.1.16,46.24-16.86,46.24-38.02v-271.05c0-21.15-21.15-38.17-46.25-38.02Z"/>
        <g>
          <path class="cls-23" d="M2735.87,489.51l-1691.71,10.65c-22.08.14-39.94,16.3-39.94,36.09l1777.14-8.72c0-21.15-20.38-38.17-45.48-38.02Z"/>
          <path class="cls-11" d="M1044.16,825.94l1691.71,10.65c25.1.16,45.48-16.86,45.48-38.02l-1777.14-8.72c0,19.79,17.87,35.95,39.94,36.09Z"/>
        </g>
      </g>
      <g>
        <path class="cls-5" d="M2738,910.11l-1691.84-3.51c-23.66-.05-43.22,17.07-43.48,38.25l-3.24,260.36c-.25,20.47,18,37.23,40.83,37.43l1697.65,14.84c24.42.21,44.98-16.8,44.98-37.99v-271.05c0-21.11-20.54-38.26-44.9-38.31Z"/>
        <g>
          <path class="cls-16" d="M2737.23,910.11l-1693.04-3.51c-22.78-.05-41.43,16.44-41.68,36.83l1778.85,4.99c0-21.11-19.76-38.26-44.12-38.31Z"/>
          <path class="cls-19" d="M1040.22,1242.63l1696.9,14.84c24.42.21,44.23-16.8,44.23-37.99l-1782.01-14.27c-.25,20.47,18.05,37.23,40.88,37.43Z"/>
        </g>
      </g>
      <g>
        <path class="cls-18" d="M2738.73,1331.63h-1690.25c-24.45,0-44.22,18.02-44.22,39.99v269.58c0,21.15,19.04,37.4,42.58,37.4h1691.89c23.54,0,44.17-16.25,44.17-37.4v-271.05c0-21.15-20.63-38.51-44.17-38.51Z"/>
        <g>
          <path class="cls-22" d="M2738.73,1331.63h-1691.89c-23.54,0-42.63,16.84-42.63,37.06h1777.14c0-20.21-19.08-37.06-42.63-37.06Z"/>
          <path class="cls-10" d="M1046.84,1678.6h1691.89c23.54,0,42.63-16.84,42.63-37.06H1004.22c0,20.21,19.08,37.06,42.63,37.06Z"/>
        </g>
      </g>
      <g>
        <path class="cls-1" d="M2740.52,1759.98l-1691.2-6.62c-24.89-.1-45.06,17.64-45.06,39.62v269.58c0,21.14,19.41,38.29,43.37,38.3l1691.96.65c23.13,0,41.92-16.81,41.98-37.58l.75-266.16c.06-20.78-18.65-37.7-41.8-37.79Z"/>
        <g>
          <path class="cls-12" d="M2740.52,1759.98l-1692.89-6.63c-23.97-.09-43.42,16.99-43.42,38.15l1778.1,6.27c.06-20.78-18.65-37.7-41.79-37.79Z"/>
          <path class="cls-14" d="M1047.61,2100.86l1691.97.65c23.13,0,41.92-16.81,41.98-37.58l-1777.35-1.37c0,21.14,19.43,38.29,43.39,38.3Z"/>
        </g>
      </g>
    </g>
    <g>
      <g>
        <g class="cls-24">
          <path class="cls-21" d="M1874.2,524.44c-5.68-.98-9.83-6.12-9.43-12.01.86-12.86,2.29-25.88,4.26-38.69.96-6.23,6.78-10.51,13.01-9.56.07.01.15.03.22.04,6.11,1.06,10.28,6.82,9.33,12.98-1.87,12.17-3.23,24.54-4.04,36.76-.42,6.29-5.86,11.05-12.15,10.63-.4-.03-.8-.08-1.19-.14ZM1891.86,426.58c-.44-.08-.88-.18-1.32-.31-6.04-1.8-9.49-8.15-7.69-14.19,3.69-12.41,7.95-24.79,12.66-36.78,2.3-5.87,8.9-8.75,14.8-6.46,5.87,2.3,8.76,8.93,6.46,14.79-4.47,11.4-8.52,23.16-12.02,34.96-1.67,5.6-7.25,8.97-12.87,8ZM1930.63,335.04c-1.25-.22-2.49-.65-3.66-1.31-5.49-3.1-7.43-10.06-4.34-15.55,6.34-11.26,13.26-22.38,20.55-33.05,3.56-5.2,10.66-6.53,15.86-2.99,5.2,3.56,6.54,10.66,2.99,15.86-6.93,10.14-13.49,20.7-19.52,31.39-2.43,4.32-7.27,6.45-11.89,5.65ZM1988.91,254.46c-2.07-.36-4.06-1.29-5.73-2.81-4.66-4.24-4.99-11.47-.75-16.12,8.71-9.56,17.94-18.85,27.43-27.63,4.63-4.27,11.85-3.99,16.13.63,4.28,4.63,4,11.85-.63,16.13-9.01,8.33-17.78,17.16-26.05,26.25-2.73,2.99-6.68,4.2-10.39,3.56ZM2063.7,188.89c-2.9-.5-5.61-2.12-7.42-4.73-3.6-5.17-2.33-12.29,2.85-15.89,10.59-7.37,21.64-14.39,32.85-20.86,5.46-3.16,12.44-1.29,15.59,4.18,3.15,5.46,1.28,12.44-4.18,15.59-10.66,6.15-21.16,12.82-31.22,19.82-2.57,1.79-5.61,2.37-8.47,1.88ZM2151.12,141.51c-3.76-.65-7.11-3.17-8.65-6.96-2.37-5.84.45-12.5,6.29-14.87,11.97-4.85,24.31-9.26,36.65-13.08,6.03-1.86,12.42,1.51,14.28,7.53,1.86,6.02-1.51,12.41-7.53,14.28-11.73,3.63-23.45,7.81-34.82,12.42-2.05.83-4.19,1.02-6.22.67ZM2567.9,185.98c-1.56-.27-3.08-.87-4.47-1.81-10.14-6.9-20.71-13.45-31.43-19.47-5.5-3.09-7.45-10.04-4.37-15.54,3.08-5.5,10.04-7.45,15.54-4.37,11.29,6.34,22.43,13.24,33.11,20.5,5.21,3.55,6.56,10.65,3.01,15.86-2.6,3.82-7.11,5.57-11.39,4.83ZM2246.8,114.69c-4.67-.81-8.52-4.49-9.32-9.42-1.01-6.22,3.22-12.09,9.44-13.1,12.75-2.07,25.75-3.61,38.64-4.58,6.29-.44,11.77,4.24,12.24,10.53.47,6.29-4.24,11.76-10.53,12.24-12.24.92-24.58,2.38-36.69,4.35-1.29.21-2.56.2-3.77-.01ZM2479.92,139.65c-.74-.13-1.48-.33-2.21-.61-11.43-4.46-23.21-8.48-35-11.96-6.05-1.79-9.5-8.14-7.72-14.18,1.79-6.04,8.14-9.53,14.18-7.72,12.41,3.66,24.8,7.9,36.83,12.59,5.87,2.29,8.78,8.91,6.49,14.78-2,5.14-7.33,8.01-12.57,7.1ZM2346.08,109.92c-5.68-.98-9.82-6.11-9.43-11.98.41-6.29,5.84-11.06,12.13-10.65,12.88.84,25.9,2.24,38.69,4.18.08,0,.16.02.24.04,6.1,1.05,10.27,6.8,9.34,12.95-.94,6.24-6.76,10.52-12.99,9.58-12.15-1.84-24.52-3.17-36.75-3.96-.41-.03-.82-.08-1.22-.15Z"/>
          <path class="cls-21" d="M2629.8,236.89c-2.21-.38-4.34-1.42-6.06-3.12-4.19-4.14-8.53-8.25-12.91-12.24-4.66-4.24-5-11.46-.76-16.12,4.24-4.66,11.47-5.01,16.12-.76,4.61,4.19,9.18,8.52,13.59,12.87,4.49,4.43,4.53,11.66.11,16.14-2.73,2.77-6.52,3.85-10.08,3.23Z"/>
        </g>
        <g class="cls-24">
          <path class="cls-21" d="M2762.36,558.66c-5.43-.94-9.53-5.7-9.46-11.39.07-5.88.02-11.87-.15-17.79-.18-6.3,4.78-11.56,11.08-11.74,6.33-.18,11.56,4.78,11.74,11.08.18,6.23.23,12.53.16,18.73-.08,6.3-5.25,11.35-11.56,11.27-.62,0-1.23-.07-1.82-.17Z"/>
          <path class="cls-21" d="M2242.54,991.67c-5.18-.89-10.36-1.88-15.54-2.96-6.17-1.28-10.14-7.33-8.85-13.5,1.28-6.17,7.36-10.15,13.5-8.86,11.96,2.48,24,4.48,35.91,5.94,6.26.78,10.71,6.46,9.94,12.72-.77,6.26-6.46,10.71-12.72,9.94-7.37-.9-14.85-2.01-22.23-3.29ZM2168.97,972.45c-.63-.11-1.26-.27-1.88-.49-12-4.25-23.96-9.06-35.54-14.29-5.74-2.59-8.3-9.36-5.7-15.1,2.6-5.75,9.37-8.31,15.1-5.7,11,4.97,22.36,9.53,33.76,13.58,5.94,2.1,9.05,8.63,6.95,14.57-1.89,5.32-7.31,8.37-12.69,7.44ZM2324.76,998.12c-5.3-.92-9.37-5.5-9.46-11.07-.09-6.31,4.94-11.49,11.24-11.59,12.06-.18,24.27-.88,36.31-2.08,6.27-.62,11.87,3.95,12.49,10.22.63,6.28-3.95,11.87-10.23,12.49-12.67,1.27-25.54,2-38.24,2.19-.73.01-1.44-.05-2.13-.17ZM2080.87,929.8c-1.43-.25-2.83-.77-4.13-1.59-10.77-6.78-21.37-14.1-31.53-21.76-5.03-3.8-6.03-10.95-2.23-15.98,3.8-5.04,10.95-6.04,15.99-2.24,9.64,7.27,19.71,14.23,29.94,20.66,5.34,3.36,6.94,10.41,3.58,15.74-2.54,4.03-7.19,5.93-11.61,5.17ZM2421.78,985.84c-4.35-.75-8.05-4.01-9.16-8.57-1.48-6.13,2.29-12.3,8.42-13.78,11.72-2.82,23.48-6.19,34.96-10.01,5.98-1.99,12.44,1.25,14.43,7.23,1.99,5.98-1.25,12.44-7.23,14.43-12.09,4.02-24.47,7.57-36.81,10.54-1.56.38-3.13.41-4.62.16ZM2513.76,952.57c-3.48-.6-6.63-2.8-8.31-6.21-2.78-5.66-.45-12.5,5.2-15.28,10.85-5.34,21.6-11.19,31.95-17.4,5.4-3.25,12.41-1.5,15.66,3.91,3.24,5.41,1.49,12.42-3.91,15.66-10.89,6.54-22.21,12.7-33.62,18.31-2.25,1.11-4.68,1.4-6.97,1.01ZM2596.3,900.04c-2.64-.46-5.14-1.84-6.95-4.1-3.95-4.91-3.16-12.1,1.75-16.05,9.44-7.58,18.65-15.63,27.4-23.95,4.57-4.34,11.79-4.17,16.14.41,4.34,4.57,4.16,11.79-.41,16.14-9.2,8.75-18.91,17.23-28.83,25.2-2.66,2.13-5.98,2.88-9.1,2.35ZM2665.42,830.76c-1.83-.32-3.61-1.09-5.17-2.33-4.93-3.93-5.73-11.11-1.8-16.04,7.55-9.45,14.77-19.33,21.48-29.36,3.5-5.24,10.6-6.65,15.83-3.15,5.24,3.5,6.65,10.59,3.15,15.83-7.06,10.57-14.68,20.97-22.62,30.92-2.69,3.37-6.91,4.81-10.88,4.12ZM2717.66,747.97c-1.03-.18-2.05-.5-3.04-.98-5.67-2.75-8.04-9.58-5.29-15.25,5.26-10.85,10.13-22.08,14.47-33.36,2.26-5.88,8.88-8.81,14.75-6.55,5.88,2.26,8.82,8.87,6.56,14.75-4.57,11.88-9.7,23.69-15.24,35.12-2.27,4.68-7.33,7.12-12.21,6.27ZM2750.41,655.79c-.23-.04-.46-.09-.69-.14-6.13-1.45-9.93-7.6-8.48-13.73,2.05-8.66,3.85-17.48,5.36-26.24.55-3.17,1.06-6.34,1.53-9.5.94-6.24,6.75-10.53,12.99-9.59,6.33.83,10.53,6.75,9.59,12.98-.5,3.33-1.04,6.66-1.61,9.99-1.59,9.2-3.49,18.49-5.64,27.6-1.39,5.9-7.14,9.64-13.04,8.62Z"/>
          <path class="cls-21" d="M2004.14,868.6c-2.24-.39-4.38-1.44-6.11-3.16-4.38-4.36-8.74-8.9-12.98-13.49-4.28-4.63-3.99-11.85.64-16.13,4.63-4.28,11.85-4,16.13.64,4.02,4.36,8.17,8.67,12.33,12.81,4.46,4.45,4.48,11.67.03,16.14-2.73,2.74-6.5,3.8-10.04,3.19Z"/>
        </g>
        <g>
          <path class="cls-21" d="M2041.87,740.77c1.12,1.98,3.37,3.04,5.61,2.63l63.87-11.7c20.52,22.32,44.75,41.54,72.1,56.56l3.89,64.77c.14,2.27,1.7,4.21,3.89,4.82l75.02,20.94c2.19.61,4.53-.24,5.82-2.11l36.86-53.4c31.18,1.31,61.85-2.58,90.97-11.05l48.58,43.08c1.7,1.51,4.18,1.77,6.16.66l67.85-38.24c1.98-1.12,3.04-3.37,2.63-5.61l-11.7-63.87c22.32-20.52,41.54-44.75,56.56-72.1l64.77-3.89c2.27-.14,4.21-1.7,4.82-3.89l20.93-75.02c.61-2.19-.23-4.53-2.11-5.82l-53.4-36.86c1.31-31.18-2.58-61.85-11.05-90.97l43.08-48.58c1.51-1.7,1.77-4.18.66-6.16l-38.24-67.85c-1.12-1.98-3.37-3.04-5.61-2.63l-63.87,11.7c-20.52-22.32-44.75-41.54-72.1-56.56l-3.89-64.77c-.14-2.27-1.7-4.21-3.89-4.82l-75.02-20.93c-2.19-.61-4.53.23-5.82,2.11l-36.86,53.4c-31.18-1.31-61.85,2.58-90.97,11.05l-48.58-43.08c-1.7-1.51-4.18-1.77-6.16-.66l-67.85,38.24c-1.98,1.12-3.04,3.37-2.63,5.61l11.7,63.87c-22.32,20.52-41.54,44.75-56.56,72.1l-64.77,3.89c-2.27.14-4.21,1.7-4.82,3.89l-20.93,75.02c-.61,2.19.23,4.53,2.11,5.82l53.4,36.86c-1.31,31.18,2.58,61.85,11.05,90.97l-43.08,48.58c-1.51,1.7-1.77,4.18-.66,6.16l38.24,67.85Z"/>
          <path class="cls-7" d="M2307.26,616.07c-37.6-6.5-65.85-39.82-64.88-79.08,1.07-43.16,37.06-77.39,80.21-76.32,20.91.51,40.36,9.15,54.77,24.3,14.42,15.15,22.07,35,21.55,55.91-1.07,43.16-37.05,77.39-80.21,76.32-3.89-.1-7.71-.48-11.44-1.12ZM2331,479.79c-2.9-.5-5.86-.8-8.86-.87-33.09-.82-60.67,25.43-61.5,58.51-.82,33.09,25.42,60.69,58.51,61.5,33.09.82,60.67-25.43,61.5-58.51.4-16.03-5.47-31.25-16.52-42.87-8.98-9.44-20.52-15.58-33.13-17.76Z"/>
          <path class="cls-7" d="M2289.58,727.76c-6.46-1.12-12.9-2.56-19.3-4.35h0c-2.01-.56-4.02-1.16-6.02-1.78-9.84-3.09-19.42-6.96-28.59-11.54-.12-.06-.25-.12-.38-.19-.35-.18-.71-.36-1.06-.54-.69-.35-1.37-.71-2.06-1.07-1.8-.94-2.7-2.91-2.38-4.81.08-.46.23-.92.46-1.35,1.17-2.23,3.94-3.08,6.17-1.91,11.48,6.04,23.69,10.89,36.29,14.4,62.58,17.48,126.79.12,171.91-40.35,25.1-22.51,44.28-52.17,54-86.98,1.7-6.1,3.09-12.25,4.15-18.41,7.16-41.46-.09-83.77-21.03-120.91-24.05-42.67-63.28-73.42-110.45-86.58-97.43-27.18-198.73,29.95-225.91,127.33-1.68,6-3.04,12.07-4.09,18.17-4.57,26.45-3.3,53.6,3.81,79.5.18.67.21,1.34.1,1.98-.29,1.69-1.53,3.14-3.29,3.63-2.44.66-4.95-.76-5.61-3.2-7.47-27.2-8.8-55.7-4.01-83.47,1.11-6.41,2.54-12.77,4.3-19.08,28.53-102.24,134.95-162.19,237.16-133.68,49.53,13.82,90.7,46.1,115.95,90.9,21.98,38.99,29.6,83.41,22.08,126.93-1.12,6.47-2.57,12.92-4.36,19.32-13.82,49.53-46.1,90.71-90.89,115.96-39,21.99-83.43,29.59-126.96,22.07Z"/>
        </g>
      </g>
      <g>
        <g class="cls-24">
          <path class="cls-21" d="M1439.13,754.49c-3.01-.52-5.43-2.96-5.8-6.14-.68-5.95-1.2-11.99-1.52-17.97-.21-3.89,2.77-7.21,6.66-7.42,3.89-.23,7.21,2.77,7.42,6.66.31,5.7.8,11.46,1.45,17.14.45,3.86-2.33,7.36-6.2,7.81-.69.08-1.36.05-2.01-.06Z"/>
          <path class="cls-21" d="M1437.91,700.27c-3.52-.61-6.08-3.8-5.82-7.43.71-10.28,1.97-20.64,3.72-30.79.37-2.14.76-4.28,1.18-6.42.75-3.82,4.63-6.14,8.27-5.58,3.82.74,6.32,4.45,5.58,8.27-.4,2.05-.78,4.09-1.13,6.13-1.67,9.68-2.87,19.56-3.55,29.37-.27,3.89-3.64,6.81-7.52,6.55-.24-.02-.48-.05-.72-.09ZM1451.9,628.42c-.33-.06-.66-.14-.99-.24-3.7-1.21-5.73-5.18-4.53-8.89,3.86-11.88,8.49-23.63,13.76-34.91,1.65-3.53,5.86-5.04,9.37-3.4,3.53,1.65,5.05,5.84,3.4,9.37-5.03,10.76-9.44,21.97-13.12,33.3-1.1,3.37-4.5,5.36-7.9,4.77ZM1482.9,562.11c-.88-.15-1.75-.48-2.55-.98-3.3-2.07-4.28-6.43-2.21-9.72,6.65-10.55,14.02-20.81,21.93-30.48,2.47-3.02,6.9-3.46,9.92-.99,3.01,2.46,3.46,6.91.99,9.92-7.54,9.22-14.58,18.99-20.91,29.06-1.57,2.49-4.44,3.66-7.17,3.19ZM1529.26,505.44c-1.44-.25-2.81-.95-3.9-2.08-2.69-2.82-2.58-7.29.24-9.97,9.05-8.62,18.7-16.76,28.71-24.18,3.13-2.32,7.55-1.65,9.86,1.47,2.32,3.13,1.67,7.54-1.46,9.86-9.54,7.07-18.76,14.83-27.38,23.05-1.68,1.6-3.95,2.21-6.07,1.84ZM1588.04,461.82c-2.01-.35-3.85-1.56-4.94-3.47-1.92-3.38-.73-7.69,2.66-9.61,10.86-6.15,22.2-11.69,33.71-16.47,3.6-1.5,7.72.21,9.21,3.81,1.49,3.6-.21,7.72-3.81,9.21-10.98,4.56-21.8,9.84-32.16,15.72-1.48.83-3.13,1.08-4.67.81ZM1655.63,433.79c-2.6-.45-4.84-2.35-5.6-5.07-1.04-3.75,1.16-7.63,4.91-8.67,12.03-3.33,24.38-5.94,36.7-7.75,3.86-.55,7.43,2.1,8,5.95.57,3.85-2.1,7.43-5.95,8-11.75,1.73-23.52,4.21-34.99,7.39-1.04.29-2.09.32-3.08.15ZM1727.99,423.14c-3.26-.56-5.77-3.36-5.84-6.79-.09-3.89,3-7.12,6.89-7.21,12.44-.27,25.05.23,37.5,1.49,3.87.46,6.7,3.86,6.3,7.73-.39,3.87-3.85,6.69-7.73,6.3-11.87-1.21-23.91-1.69-35.76-1.43-.47.01-.92-.03-1.36-.1ZM1836,440.91c-.4-.07-.8-.17-1.2-.32-9.67-3.49-19.69-6.52-29.81-9-1.53-.38-3.04-.74-4.54-1.08-3.8-.87-6.18-4.64-5.32-8.44.86-3.81,4.68-6.29,8.43-5.32,1.61.37,3.21.74,4.81,1.15,10.56,2.59,21.08,5.76,31.21,9.43,3.66,1.33,5.56,5.36,4.23,9.03-1.18,3.26-4.52,5.12-7.82,4.55Z"/>
        </g>
        <g class="cls-24">
          <path class="cls-21" d="M1688.12,1014.36c-3.79-.66-6.36-4.24-5.76-8.06.61-3.84,4.23-6.47,8.07-5.85,11.58,1.85,23.36,3,35.03,3.44,3.86.18,6.93,3.41,6.79,7.31-.15,3.89-3.42,6.93-7.31,6.79-12.24-.46-24.6-1.67-36.73-3.6-.03,0-.06-.01-.1-.02ZM1652.91,1006.55c-.25-.04-.5-.1-.75-.17-11.8-3.37-23.52-7.49-34.83-12.25-3.59-1.51-5.27-5.64-3.76-9.23,1.51-3.6,5.66-5.26,9.23-3.77,10.79,4.54,21.97,8.47,33.23,11.69,3.74,1.07,5.91,4.97,4.84,8.71-1,3.5-4.47,5.62-7.97,5.02ZM1760.06,1017.01c-3.08-.53-5.54-3.08-5.82-6.34-.33-3.87,2.54-7.29,6.42-7.62,11.69-1.01,23.4-2.74,34.84-5.14,3.82-.79,7.55,1.64,8.35,5.45.8,3.81-1.64,7.55-5.45,8.35-11.98,2.52-24.27,4.33-36.52,5.38-.62.05-1.23.03-1.81-.08ZM1586.54,978.57c-.79-.14-1.57-.41-2.31-.83-10.65-6.11-21.04-12.94-30.85-20.31-3.12-2.33-3.75-6.75-1.41-9.87,2.33-3.1,6.75-3.74,9.87-1.41,9.36,7.02,19.26,13.53,29.42,19.36,3.38,1.94,4.54,6.25,2.61,9.62-1.51,2.64-4.48,3.93-7.32,3.44ZM1830.5,1002.2c-2.46-.43-4.62-2.15-5.48-4.67-1.26-3.69.71-7.69,4.39-8.95,11.07-3.77,22.03-8.26,32.57-13.36,3.51-1.7,7.72-.22,9.42,3.28,1.69,3.51.22,7.72-3.28,9.42-11.05,5.33-22.54,10.05-34.15,14.01-1.16.39-2.35.47-3.47.27ZM1895.33,970.92c-1.88-.33-3.62-1.41-4.74-3.14-2.1-3.28-1.15-7.64,2.12-9.74,9.87-6.34,19.44-13.32,28.45-20.77,3-2.48,7.45-2.06,9.93.94,2.48,3,2.06,7.44-.94,9.92-9.44,7.81-19.47,15.13-29.82,21.77-1.54.99-3.33,1.3-5.01,1.01ZM1950.8,925.01c-1.32-.23-2.59-.83-3.64-1.83-2.83-2.68-2.95-7.14-.27-9.97,8.07-8.51,15.68-17.59,22.63-26.98,2.31-3.12,6.73-3.79,9.86-1.47,3.13,2.32,3.79,6.73,1.48,9.86-7.29,9.85-15.27,19.38-23.73,28.3-1.69,1.78-4.08,2.48-6.32,2.09Z"/>
          <path class="cls-21" d="M1528.66,935.16c-1.34-.23-2.63-.85-3.68-1.87-4.35-4.18-8.59-8.51-12.62-12.87-2.64-2.86-2.47-7.32.39-9.97,2.86-2.63,7.32-2.46,9.97.4,3.84,4.16,7.89,8.29,12.04,12.28,2.81,2.7,2.89,7.16.19,9.97-1.69,1.75-4.06,2.44-6.29,2.06Z"/>
        </g>
        <g>
          <path class="cls-21" d="M1549.95,846.41c.75,1.33,2.25,2.03,3.75,1.76l42.74-7.83c13.73,14.94,29.94,27.8,48.25,37.85l2.6,43.34c.09,1.52,1.14,2.82,2.6,3.22l50.2,14.01c1.47.41,3.03-.16,3.9-1.41l24.67-35.73c20.86.88,41.39-1.73,60.87-7.4l32.51,28.83c1.14,1.01,2.79,1.19,4.12.44l45.4-25.59c1.33-.75,2.03-2.26,1.76-3.75l-7.83-42.74c14.94-13.73,27.8-29.94,37.85-48.25l43.34-2.6c1.52-.09,2.82-1.14,3.22-2.6l14.01-50.2c.41-1.47-.16-3.03-1.41-3.9l-35.73-24.67c.88-20.86-1.73-41.39-7.4-60.87l28.83-32.51c1.01-1.14,1.19-2.79.44-4.12l-25.59-45.4c-.75-1.33-2.25-2.03-3.75-1.76l-42.74,7.83c-13.73-14.94-29.94-27.79-48.25-37.85l-2.6-43.34c-.09-1.52-1.14-2.81-2.6-3.22l-50.2-14.01c-1.47-.41-3.03.16-3.9,1.41l-24.67,35.73c-20.86-.88-41.39,1.73-60.87,7.4l-32.51-28.83c-1.14-1.01-2.8-1.19-4.12-.44l-45.4,25.59c-1.33.75-2.03,2.25-1.76,3.75l7.83,42.74c-14.94,13.73-27.79,29.94-37.85,48.25l-43.34,2.6c-1.52.09-2.82,1.14-3.22,2.6l-14.01,50.2c-.41,1.47.16,3.03,1.41,3.9l35.73,24.67c-.88,20.86,1.73,41.39,7.4,60.87l-28.83,32.51c-1.01,1.14-1.19,2.79-.44,4.12l25.59,45.4Z"/>
          <path class="cls-7" d="M1727.3,763.89c-11.21-1.94-21.46-7.39-29.44-15.78-9.82-10.32-15.03-23.85-14.67-38.09.73-29.39,25.23-52.71,54.63-51.98,29.43.78,52.72,25.25,51.99,54.64-.35,14.24-6.23,27.49-16.55,37.31-10.32,9.82-23.85,15.04-38.09,14.68-2.66-.07-5.29-.33-7.87-.77ZM1743.21,672.7c-1.87-.32-3.78-.51-5.73-.56-21.62-.53-39.65,16.62-40.19,38.24-.26,10.47,3.57,20.43,10.79,28.01,7.23,7.59,16.97,11.9,27.45,12.18h0c10.47.26,20.43-3.57,28.01-10.79,7.59-7.23,11.92-16.97,12.18-27.45.49-19.67-13.67-36.37-32.51-39.63Z"/>
          <path class="cls-7" d="M1714.89,841.62c-4.4-.76-8.79-1.75-13.17-2.97-8.71-2.43-17.18-5.74-25.2-9.87-.36-.19-.72-.38-1.08-.56-2.77-1.46-4.17-4.5-3.67-7.43.12-.71.36-1.42.71-2.09,1.81-3.45,6.08-4.75,9.52-2.95,7.45,3.92,15.35,7.06,23.49,9.32h0c.45.13.9.25,1.34.36,19.31,5.19,39.19,5.37,58.13.82,10.28-2.47,20.29-6.34,29.79-11.58.08-.04.15-.09.23-.13.24-.13.47-.26.7-.4,27.62-15.57,47.53-40.96,56.05-71.5,1.11-3.95,2-7.93,2.69-11.92,4.64-26.84-.06-54.23-13.61-78.28-15.57-27.62-40.97-47.52-71.5-56.04-30.52-8.5-62.57-4.64-90.2,10.92-27.62,15.57-47.53,40.96-56.05,71.5-1.09,3.89-1.97,7.81-2.65,11.76-2.96,17.12-2.14,34.7,2.47,51.47.28,1.03.32,2.07.15,3.06-.45,2.61-2.36,4.85-5.08,5.6-3.76,1.02-7.63-1.17-8.67-4.94-5.15-18.76-6.07-38.43-2.77-57.58.76-4.42,1.75-8.82,2.96-13.16,9.54-34.17,31.81-62.58,62.71-80,30.9-17.41,66.72-21.79,100.9-12.22,34.17,9.53,62.58,31.8,80,62.71,15.17,26.9,20.42,57.55,15.23,87.57-.77,4.46-1.77,8.91-3,13.33-18.46,66.15-84.17,106.65-150.44,95.19Z"/>
        </g>
      </g>
    </g>
    <g>
      <path class="cls-9" d="M166.63,2399.29c0,20.87,17.09,37.95,37.98,37.95h2053.96c20.89,0,37.98-17.08,37.98-37.95l17.09-1180.35c0-20.87-24.59-61.61-69.65-58.55l-2007.36-51.94c-26.21-.68-51.56,9.41-70.12,27.91-18.56,18.5-28.72,43.8-28.1,69.98l28.21,1192.95Z"/>
      <path class="cls-13" d="M204.13,2362.88c0,19.76,16.17,35.93,35.93,35.93h1968.98c19.76,0,35.93-16.17,35.93-35.93l16.13-1071.54c-1.9-64.48-58.43-87.66-92.7-86.29l-1923.87-51.61c-18.41-.49-36.22,6.6-49.26,19.61-13.04,13.01-20.22,30.81-19.75,49.23l28.61,1140.6Z"/>
      <g>
        <path class="cls-6" d="M2223.7,1853.83h-.08c-2.91-.04-5.23-2.43-5.19-5.35l1.27-86.9c.04-2.88,2.39-5.19,5.26-5.19h.05c2.94.04,5.26,2.43,5.21,5.35l-1.27,86.9c-.04,2.88-2.39,5.19-5.26,5.19Z"/>
        <path class="cls-6" d="M2226.82,1640.88h-.08c-2.91-.04-5.23-2.44-5.19-5.35l4.89-332.83c-.09-19.77-6.09-35.55-17.84-46.81-21.92-21-56.73-19.93-58.2-19.86l-614.91-16.49c-2.91-.07-5.2-2.5-5.12-5.4.08-2.91,2.31-5.38,5.41-5.12l614.55,16.49c3.82-.23,40.88-.87,65.57,22.78,13.88,13.3,20.98,31.63,21.08,54.47l-4.89,332.93c-.04,2.88-2.39,5.19-5.26,5.19Z"/>
      </g>
      <rect class="cls-2" x="0" y="2431.51" width="2421.54" height="103.71" rx="5.65" ry="5.65" transform="translate(2421.54 4966.73) rotate(180)"/>
      <g>
        <rect class="cls-6" x="663.01" y="1227.05" width="43.55" height="635.82" transform="translate(-860.2 2229.69) rotate(-90)"/>
        <rect class="cls-6" x="660.02" y="935.97" width="43.55" height="635.82" transform="translate(-572.12 1935.63) rotate(-90)"/>
        <rect class="cls-6" x="750.6" y="1099.16" width="43.55" height="458.47" transform="translate(-556.05 2100.73) rotate(-90)"/>
        <rect class="cls-6" x="457.32" y="1291.92" width="43.55" height="65.98" transform="translate(-845.84 1803.95) rotate(-90)"/>
        <rect class="cls-6" x="750.14" y="1171.96" width="43.55" height="458.47" transform="translate(-629.31 2173.06) rotate(-90)"/>
        <rect class="cls-6" x="456.99" y="1364.72" width="43.55" height="65.98" transform="translate(-918.97 1876.42) rotate(-90)"/>
        <rect class="cls-6" x="748.46" y="1244.64" width="43.55" height="458.47" transform="translate(-703.67 2244.05) rotate(-90)"/>
        <rect class="cls-6" x="453.07" y="1437.4" width="43.55" height="65.98" transform="translate(-995.57 1945.18) rotate(-90)"/>
        <rect class="cls-6" x="660" y="1530.11" width="43.55" height="635.82" transform="translate(-1166.27 2529.72) rotate(-90)"/>
        <rect class="cls-6" x="747.59" y="1402.22" width="43.55" height="458.47" transform="translate(-862.12 2400.76) rotate(-90)"/>
        <rect class="cls-6" x="454.3" y="1594.98" width="43.55" height="65.98" transform="translate(-1151.91 2103.99) rotate(-90)"/>
        <rect class="cls-6" x="747.13" y="1475.02" width="43.55" height="458.47" transform="translate(-935.38 2473.1) rotate(-90)"/>
        <rect class="cls-6" x="453.97" y="1667.78" width="43.55" height="65.98" transform="translate(-1225.04 2176.46) rotate(-90)"/>
        <rect class="cls-6" x="745.45" y="1547.7" width="43.55" height="458.47" transform="translate(-1009.74 2544.09) rotate(-90)"/>
        <rect class="cls-6" x="450.05" y="1740.46" width="43.55" height="65.98" transform="translate(-1301.64 2245.21) rotate(-90)"/>
        <rect class="cls-6" x="660" y="1832.77" width="43.55" height="635.82" transform="translate(-1468.93 2832.38) rotate(-90)"/>
        <rect class="cls-6" x="747.59" y="1704.89" width="43.55" height="458.47" transform="translate(-1164.79 2703.42) rotate(-90)"/>
        <rect class="cls-6" x="454.3" y="1897.64" width="43.55" height="65.98" transform="translate(-1454.58 2406.64) rotate(-90)"/>
        <rect class="cls-6" x="747.13" y="1777.69" width="43.55" height="458.47" transform="translate(-1238.05 2775.75) rotate(-90)"/>
        <rect class="cls-6" x="453.97" y="1970.44" width="43.55" height="65.98" transform="translate(-1527.7 2479.11) rotate(-90)"/>
        <rect class="cls-6" x="745.45" y="1850.36" width="43.55" height="458.47" transform="translate(-1312.41 2846.74) rotate(-90)"/>
        <rect class="cls-6" x="450.05" y="2043.12" width="43.55" height="65.98" transform="translate(-1604.3 2547.86) rotate(-90)"/>
        <rect class="cls-6" x="750.6" y="2000.4" width="43.55" height="458.47" transform="translate(-1457.29 3001.93) rotate(-90)"/>
        <rect class="cls-6" x="457.32" y="2193.16" width="43.55" height="65.98" transform="translate(-1747.08 2705.16) rotate(-90)"/>
        <rect class="cls-6" x="746.98" y="2073.2" width="43.55" height="458.47" transform="translate(-1533.72 3071.1) rotate(-90)"/>
        <rect class="cls-6" x="453.82" y="2265.96" width="43.55" height="65.98" transform="translate(-1823.37 2774.45) rotate(-90)"/>
      </g>
      <g>
        <rect class="cls-6" x="1692.63" y="1858.53" width="44.14" height="457.66" transform="translate(-372.74 3801.96) rotate(-90)"/>
        <rect class="cls-6" x="1648.89" y="1642.33" width="44.14" height="742.53" transform="translate(-342.71 3684.46) rotate(-90)"/>
        <rect class="cls-6" x="1812.7" y="1642.29" width="44.14" height="595.21" transform="translate(-105.21 3774.58) rotate(-90)"/>
        <rect class="cls-6" x="1684.8" y="1696.46" width="44.15" height="339.41" transform="translate(-159.37 3572.95) rotate(-90)"/>
        <rect class="cls-6" x="1820.22" y="1495.08" width="44.14" height="594.47" transform="translate(49.89 3634.53) rotate(-90)"/>
        <rect class="cls-6" x="1720.94" y="1467.46" width="44.14" height="502.34" transform="translate(24.31 3461.57) rotate(-90)"/>
        <rect class="cls-6" x="1545.81" y="1376.58" width="44.14" height="536.34" transform="translate(-76.95 3212.55) rotate(-90)"/>
        <rect class="cls-6" x="1823.01" y="1265.07" width="44.15" height="611.92" transform="translate(273.97 3416.04) rotate(-90)"/>
        <rect class="cls-6" x="1826.81" y="1187.52" width="44.14" height="619.51" transform="translate(351.52 3346.08) rotate(-90)"/>
        <rect class="cls-6" x="1828.13" y="1118.36" width="44.14" height="610.3" transform="translate(426.61 3273.65) rotate(-90)"/>
        <rect class="cls-6" x="1662.48" y="1099.76" width="44.14" height="499.96" transform="translate(334.74 3034.24) rotate(-90)"/>
        <rect class="cls-6" x="1163.63" y="1504.35" width="44.14" height="129.64" transform="translate(-383.53 2754.8) rotate(-90)"/>
        <rect class="cls-6" x="1163.63" y="1580.22" width="44.14" height="129.64" transform="translate(-459.4 2830.67) rotate(-90)"/>
        <rect class="cls-6" x="1163.63" y="1652.99" width="44.14" height="129.64" transform="translate(-532.16 2903.43) rotate(-90)"/>
        <rect class="cls-6" x="1163.63" y="1727.02" width="44.14" height="129.64" transform="translate(-606.19 2977.46) rotate(-90)"/>
        <rect class="cls-6" x="1163.63" y="1802.89" width="44.14" height="129.64" transform="translate(-682.06 3053.32) rotate(-90)"/>
        <rect class="cls-6" x="1163.63" y="1875.66" width="44.14" height="129.64" transform="translate(-754.83 3126.09) rotate(-90)"/>
        <rect class="cls-6" x="1170.21" y="1948.2" width="44.14" height="129.64" transform="translate(-820.79 3205.2) rotate(-90)"/>
        <rect class="cls-6" x="1170.21" y="2024.07" width="44.14" height="129.64" transform="translate(-896.67 3281.07) rotate(-90)"/>
        <rect class="cls-6" x="1170.21" y="2096.84" width="44.14" height="129.64" transform="translate(-969.43 3353.84) rotate(-90)"/>
        <rect class="cls-6" x="1170.21" y="2171.07" width="44.14" height="129.64" transform="translate(-1043.67 3428.06) rotate(-90)"/>
        <rect class="cls-6" x="1170.21" y="2246.94" width="44.14" height="129.64" transform="translate(-1119.54 3503.93) rotate(-90)"/>
        <rect class="cls-6" x="1163.63" y="1432.42" width="44.14" height="129.64" transform="translate(-311.6 2682.88) rotate(-90)"/>
        <rect class="cls-6" x="1163.63" y="1358.72" width="44.14" height="129.64" transform="translate(-237.89 2609.17) rotate(-90)"/>
        <rect class="cls-6" x="1163.63" y="1284.91" width="44.14" height="129.64" transform="translate(-164.08 2535.37) rotate(-90)"/>
        <rect class="cls-6" x="1163.63" y="1211.16" width="44.14" height="129.64" transform="translate(-90.33 2461.62) rotate(-90)"/>
        <path class="cls-6" d="M1299.73,1253.89v44.14s621.7.02,621.7.02c0-24.38-20.03-44.15-44.74-44.15l-576.96-.02Z"/>
        <rect class="cls-6" x="1834.48" y="2001.19" width="44.14" height="626.94" transform="translate(-458.19 4171.11) rotate(-90)"/>
        <rect class="cls-6" x="1828.79" y="1930.88" width="44.14" height="615.55" transform="translate(-387.88 4089.42) rotate(-90)"/>
        <path class="cls-6" d="M1543.09,2144v44.14s391.45.02,391.45.02c0-24.38-12.61-44.15-28.17-44.15h-363.28Z"/>
      </g>
      <rect class="cls-6" x="1055.45" y="1223.64" width="12.67" height="1142.73" rx="5.98" ry="5.98"/>
    </g>
    <g>
      <path class="cls-20" d="M1959.09,1818.84l778.77,830.94c32.66,34.85,28.71,90.13-8.57,119.99l-6.12,4.9c-32.99,26.42-81.17,20.93-107.37-12.23l-709.87-898.28,53.16-45.33Z"/>
      <ellipse class="cls-8" cx="1626.1" cy="1387.6" rx="518.75" ry="528.28" transform="translate(-346.45 2211.41) rotate(-63.14)"/>
      <path class="cls-3" d="M1101.67,1122.04c-144.02,284.41-25.97,633.86,263.66,780.53,289.63,146.66,641.18,35,785.2-249.41,144.02-284.41,25.97-633.86-263.66-780.53-289.63-146.67-641.18-35-785.2,249.41ZM1178.71,1161.05c122.86-242.63,422.77-337.89,669.86-212.77,247.09,125.12,347.79,423.24,224.93,665.87-122.86,242.63-422.77,337.89-669.85,212.77-247.09-125.12-347.79-423.24-224.93-665.87Z"/>
      <path class="cls-7" d="M2079.29,1694.48c-.69-.47-.87-1.4-.4-2.09,7.65-11.29,14.96-23.03,21.74-34.91.41-.72,1.33-.98,2.05-.56.72.41.97,1.33.56,2.05-6.81,11.95-14.16,23.76-21.86,35.11-.33.49-.89.72-1.44.65-.23-.03-.45-.11-.65-.25ZM2149.03,1548.86c-.8-.24-1.25-1.08-1.01-1.88,10.72-35.75,17.62-72.76,20.52-110.01,8.22-105.49-15.05-210.75-67.3-304.42-53.49-95.91-134.06-173.08-232.98-223.18-93.04-47.11-196.56-67.06-299.39-57.7-.83.08-1.56-.53-1.64-1.36-.08-.83.53-1.56,1.36-1.64,103.4-9.42,207.49,10.65,301.03,58.02,99.46,50.36,180.46,127.96,234.25,224.39,52.53,94.19,75.93,200.05,67.67,306.13-2.92,37.46-9.86,74.69-20.64,110.64-.21.72-.91,1.15-1.63,1.06-.08-.01-.16-.03-.24-.05Z"/>
      <path class="cls-7" d="M2658.11,2763.86c33.53,4.34,56.75-4.55,69.05-26.43,12.51-22.26,8.89-50.66-9.01-70.65l-92-102.75c-.55-.62-1.51-.68-2.13-.12-.62.55-.67,1.51-.12,2.13l92,102.75c17.04,19.04,20.51,46.03,8.63,67.17-11.76,20.92-34.21,29.29-67.08,24.78h-.01c-.82-.11-1.57.47-1.69,1.29-.11.82.46,1.58,1.29,1.7.35.05.71.1,1.06.14Z"/>
      <path class="cls-7" d="M2596.48,2534.87c.42.05.86-.07,1.2-.37.62-.55.67-1.51.12-2.13l-11.92-13.32c-.55-.62-1.51-.68-2.13-.12-.62.55-.67,1.51-.12,2.13l11.92,13.32c.25.28.58.44.93.49Z"/>
    </g>
    <g>
      <path class="cls-21" d="M997.85,579.26c-4.08-.1-7.37-3.44-7.45-7.57-.76-42.4-13.82-252.91-196.94-296.9-203.87-48.98-297.16,160.92-297.16,160.92,0,0-252.24-97.95-300.61,164.42C37.54,638.56-3.56,847.68,99.31,949.86c16.34,16.24,38.25,25.41,61.15,25.62l990.49,9.03c29.07.27,54.85-19,63.11-47.22,30.94-105.73,71.49-351.21-216.21-358.03Z"/>
      <path class="cls-7" d="M975.22,583.76c-4.08-.1-7.36-3.43-7.44-7.56-.81-40.66-13.75-235.86-186.21-276.78-192.77-45.74-280.98,150.27-280.98,150.27,0,0-238.51-91.47-284.25,153.54-148.12,35.54-187.65,227.44-93.9,323.82,16.44,16.9,38.82,26.5,62.24,26.71l932.41,8.4c29.14.26,54.95-19.09,63.15-47.4,29.08-100.4,63.59-324.5-205.02-331.01Z"/>
    </g>
  </g>
</svg>